<svg width="1184" height="1580" viewBox="0 0 1184 1580" fill="none" xmlns="http://www.w3.org/2000/svg">
<g opacity="0.1">
<path d="M451.883 1188.14C450.326 1163 449.034 1138 446.871 1113.1C446.575 1110.34 441.517 1106.52 438.103 1105.76C364.639 1088.94 305.63 1050.19 264.875 986.732C212.478 904.992 204.193 817.251 241.614 726.653C296.117 594.541 437.616 526.397 574.678 564.668C729.071 607.733 814.112 778.468 755.95 929.109C725.006 1009.14 668.899 1063.91 589.254 1094.45C581.673 1097.32 579.296 1100.68 580.022 1108.63C582.011 1131.79 582.993 1155.07 584.575 1179.76C588.673 1178.91 591.977 1178.44 595.029 1177.58C629.066 1167.97 660.935 1153.36 690.407 1133.73C713.77 1118.28 737.419 1116.07 762.004 1129.23C770.35 1133.62 777.648 1133.3 784.683 1126.47C791.908 1119.51 790.222 1112.42 786.484 1104.64C762.539 1053.45 798.855 1000.27 855.385 1003.8C864.181 1004.33 871.369 1002.77 875.018 993.89C878.871 984.657 874.928 978.057 867.997 971.995C839.745 947.446 835.766 906.671 858.619 877.155C881.08 848.122 921.475 841.891 952.899 862.708C981.868 881.895 990.95 923.334 972.416 954.483C960.878 973.948 943.536 985.165 921.196 988.357C901.567 991.089 891.608 1014.75 903.28 1030.93C920.844 1055.4 921.593 1086.69 905.129 1111.12C888.715 1135.47 859.602 1146.47 830.252 1139.43C809.657 1134.43 790.926 1152.39 794.648 1173.12C799.787 1202.42 790.242 1226.79 765.391 1242.8C633.054 1328.05 490.891 1350.01 342.472 1301.15C185.615 1249.5 80.1031 1142.03 28.9993 984.001C-6.49658 874.187 -1.30879 764.195 40.5507 655.748C65.5622 591.067 102.806 534.405 151.577 485.358C173.696 463.079 200.186 458.125 228.831 470.296C244.91 477.087 262.319 463.906 260.658 446.12C255.994 395.887 299.108 357.403 346.569 369.912C361.18 373.747 374.068 381.432 383.178 393.915C389.497 402.691 397.401 402.123 406.341 400.141C415.143 398.199 422.105 395.799 425.305 385.253C438.409 341.712 484.721 321.182 524.348 342.543C558.991 361.188 569.351 400.174 552.855 433.071C534.511 469.628 493.822 483.347 460.627 465.644C448.001 458.933 437.914 450.015 431.086 437.417C426.731 429.287 420.209 426.401 411.268 428.382C402.606 430.286 398.964 435.869 397.558 444.492C388.767 497.671 337.103 521.87 291.452 494.491C290.836 494.14 290.219 493.79 289.69 493.489C282.958 488.718 275.997 484.758 267.88 490.623C259.763 496.488 261.636 504.266 263.672 512.373C269.957 536.793 264.3 558.425 247.117 577.152C237.705 587.344 227.978 597.475 219.434 608.397C153.837 691.33 128.179 785.439 143.586 889.361C158.048 987.565 206.495 1066 286.066 1124.57C332.508 1158.75 384.41 1180.27 441.711 1188.6C444.105 1188.9 446.448 1189.29 448.893 1189.5C449.573 1189.54 450.192 1189.06 452.374 1188.3L451.883 1188.14ZM371.363 760.765C331.709 830.071 355.617 919.868 424.317 959.415C492.803 998.722 582.631 973.854 622.386 904.369C662.142 834.885 638.183 745.177 569.332 705.897C500.392 666.567 411.257 691.242 371.313 760.854L371.363 760.765Z" fill="#3F5397"/>
<path d="M159.371 1447.15C-8.86992 1346.63 -119.664 1211.54 -171.434 1030.28C-213.287 883.877 -207.944 737.936 -153.894 594.731C-86.8996 417.08 32.2172 286.388 202.071 202.221C222.536 192.074 243.067 186.322 264.913 195.685C272.417 198.894 279.616 203.459 285.817 208.753C304.333 224.585 324.703 217.681 329.787 193.367C339.215 148.088 389.177 124.216 429.522 145.751C454.333 158.921 468.401 185.648 465.615 214.331C462.983 241.099 443.407 265.06 417.502 273.291C390.486 281.832 361.202 273.655 343.608 251.281C336.91 242.761 330.251 239.091 319.669 242.729C311.546 245.528 306.998 250.244 306.436 259.228C304.557 287.955 290.006 307.59 263.827 319.787C175.664 360.795 101.99 420.409 45.2991 499.575C-55.5789 640.641 -88.8866 796.586 -50.7757 965.359C-21.2011 1096.65 48.8612 1202.69 155.289 1283.96C386.929 1460.82 718.745 1428.14 912.798 1208.76C938.245 1180.01 959.505 1147.35 981.707 1115.7C1005.88 1081.4 1042.32 1072.68 1076.61 1094.42C1106.28 1113.18 1113.82 1153.04 1093.28 1186.69C1062.93 1236.56 1027.91 1282.95 986.456 1324.26C797.829 1512.58 526.082 1578.24 274.277 1496.49C260.474 1492.06 246.748 1487.08 233.528 1481.21C205.753 1468.94 178.294 1455.91 159.107 1447L159.371 1447.15Z" fill="#516FDB"/>
<mask id="mask0_2328_49663" style="mask-type:alpha" maskUnits="userSpaceOnUse" x="186" y="513" width="745" height="685">
<path d="M432.48 1180.12C514.136 1217.13 578.765 1187.68 600.873 1168.34L785.9 960.898L929.912 654.466L715.906 532.741L443.718 513.309L255.519 621.812L186.619 742.948L189.213 888.716L261.699 1024.36C284.603 1060.86 350.825 1143.11 432.48 1180.12Z" fill="#D9D9D9" stroke="black" stroke-width="0.141633"/>
</mask>
<g mask="url(#mask0_2328_49663)">
<path d="M451.922 1188.09C450.365 1162.94 449.073 1137.95 446.91 1113.05C446.614 1110.29 441.556 1106.47 438.142 1105.7C364.678 1088.89 305.669 1050.14 264.914 986.681C212.517 904.941 204.232 817.2 241.653 726.602C296.157 594.49 437.655 526.346 574.717 564.617C729.11 607.682 814.151 778.416 755.989 929.057C725.045 1009.09 668.938 1063.86 589.293 1094.4C581.712 1097.27 579.335 1100.63 580.061 1108.58C582.05 1131.73 583.032 1155.02 584.615 1179.71C588.712 1178.86 592.016 1178.39 595.068 1177.53C629.105 1167.92 660.974 1153.31 690.446 1133.68C713.81 1118.23 737.458 1116.02 762.043 1129.18C770.389 1133.57 777.687 1133.25 784.722 1126.41C791.947 1119.45 790.261 1112.37 786.523 1104.59C762.578 1053.4 798.894 1000.22 855.424 1003.75C864.22 1004.28 871.408 1002.71 875.057 993.838C878.91 984.605 874.967 978.005 868.036 971.943C839.784 947.394 835.805 906.62 858.658 877.103C881.119 848.07 921.514 841.839 952.938 862.657C981.907 881.843 990.989 923.282 972.455 954.432C960.918 973.896 943.576 985.113 921.235 988.306C901.606 991.038 891.647 1014.7 903.319 1030.88C920.883 1055.35 921.632 1086.63 905.168 1111.07C888.754 1135.42 859.641 1146.42 830.291 1139.38C809.696 1134.38 790.966 1152.34 794.687 1173.07C799.827 1202.37 790.281 1226.74 765.43 1242.75C633.093 1328 490.93 1349.96 342.511 1301.1C185.654 1249.45 80.1422 1141.98 29.0384 983.949C-6.45751 874.136 -1.26972 764.144 40.5898 655.696C65.6013 591.016 102.845 534.353 151.616 485.307C173.735 463.027 200.225 458.074 228.87 470.245C244.949 477.035 262.359 463.854 260.697 446.068C256.033 395.836 299.147 357.351 346.608 369.861C361.219 373.696 374.107 381.38 383.217 393.863C389.536 402.64 397.44 402.071 406.38 400.09C415.182 398.147 422.144 395.748 425.344 385.202C438.448 341.661 484.761 321.13 524.387 342.492C559.03 361.136 569.39 400.123 552.894 433.02C534.55 469.576 493.861 483.295 460.666 465.592C448.04 458.882 437.953 449.964 431.125 437.365C426.77 429.235 420.248 426.35 411.307 428.331C402.645 430.234 399.003 435.818 397.597 444.44C388.806 497.619 337.142 521.819 291.491 494.44C290.875 494.089 290.258 493.738 289.729 493.437C282.997 488.666 276.036 484.707 267.919 490.572C259.802 496.436 261.675 504.215 263.712 512.321C269.996 536.741 264.339 558.373 247.156 577.101C237.744 587.293 228.017 597.424 219.473 608.345C153.876 691.278 128.218 785.387 143.625 889.31C158.087 987.513 206.534 1065.95 286.105 1124.51C332.547 1158.7 384.449 1180.22 441.75 1188.55C444.144 1188.85 446.487 1189.24 448.932 1189.45C449.612 1189.49 450.231 1189.01 452.413 1188.25L451.922 1188.09ZM371.402 760.713C331.748 830.02 355.656 919.817 424.356 959.363C492.842 998.671 582.67 973.802 622.426 904.318C662.181 834.833 638.222 745.126 569.371 705.846C500.431 666.516 411.297 691.19 371.352 760.802L371.402 760.713Z" fill="#F6B221"/>
</g>
</g>
</svg>
