<svg width="294" height="83" viewBox="0 0 294 83" fill="none" xmlns="http://www.w3.org/2000/svg">
<path d="M188.484 13.5391V69.4277" stroke="#706F6F" stroke-width="1.52532" stroke-miterlimit="10" stroke-linecap="round"/>
<path d="M256.736 58.7196C255.831 57.3361 254.947 55.9527 254.016 54.6028C253.91 54.4551 253.497 54.4013 253.278 54.4685C248.543 55.8922 243.921 55.5967 239.539 53.3C233.9 50.3383 230.582 45.6037 229.777 39.2237C228.6 29.9224 234.459 21.4471 243.516 19.1839C253.717 16.6319 264.104 23.6095 265.673 34.0861C266.504 39.6535 265.081 44.5963 261.53 48.9213C261.191 49.3309 261.165 49.5996 261.464 50.0294C262.328 51.2852 263.14 52.5814 264.031 53.938C264.237 53.7566 264.41 53.6223 264.556 53.4746C266.185 51.8225 267.528 49.9555 268.572 47.8803C269.404 46.2417 270.68 45.3485 272.509 45.3015C273.128 45.2813 273.533 45.0261 273.713 44.4083C273.899 43.777 273.573 43.4278 273.108 43.1054C270.082 40.9631 270.428 36.7523 273.766 35.1204C274.285 34.8652 274.644 34.5428 274.564 33.9182C274.484 33.2668 274.045 33.0183 273.453 32.8974C271.046 32.4139 269.497 30.2179 269.843 27.7935C270.182 25.4094 272.283 23.7439 274.75 23.9118C277.024 24.0662 278.886 26.1347 278.84 28.5121C278.813 29.9962 278.188 31.1984 277.018 32.105C275.987 32.8974 276.187 34.5697 277.377 35.1137C279.172 35.9397 280.23 37.6992 280.083 39.6266C279.937 41.5474 278.634 43.1188 276.732 43.6695C275.395 44.0523 274.91 45.6843 275.794 46.7454C277.038 48.2497 277.284 49.9488 276.386 51.668C271.605 60.8216 264.21 66.6845 254.162 68.7126C243.542 70.855 234.04 68.1485 226 60.7947C220.414 55.684 217.142 49.2436 216.012 41.7018C215.34 37.2023 215.626 32.7631 216.817 28.3845C217.355 26.3966 218.705 25.2549 220.733 25.0199C221.87 24.8855 222.436 23.5692 221.764 22.6089C219.869 19.8957 221.079 16.3028 224.191 15.4768C225.149 15.2216 226.133 15.2417 227.057 15.6581C227.702 15.9536 228.135 15.6648 228.58 15.2618C229.019 14.8656 229.338 14.503 229.179 13.7978C228.514 10.8899 230.489 8.21701 233.441 8.14985C236.021 8.08941 237.877 9.97654 238.003 12.3875C238.143 15.0671 236.267 17.1691 233.8 17.2363C232.863 17.2631 231.998 17.0818 231.2 16.5849C230.688 16.2625 230.223 16.3095 229.777 16.7125C229.345 17.102 229.318 17.5385 229.518 18.0758C230.741 21.3933 228.58 24.449 225.089 24.3684C225.042 24.3684 224.996 24.3684 224.956 24.3684C224.417 24.3147 223.892 24.3147 223.619 24.9124C223.347 25.5101 223.706 25.8929 224.085 26.2891C225.235 27.4778 225.614 28.8949 225.242 30.5201C225.036 31.4066 224.81 32.2997 224.677 33.1997C223.626 40.0565 225.215 46.2551 229.465 51.6814C233.474 56.8123 238.781 59.7135 245.218 60.4724C248.975 60.9156 252.633 60.459 256.17 59.0755C256.317 59.0151 256.463 58.9613 256.609 58.8942C256.649 58.874 256.669 58.827 256.769 58.7129L256.736 58.7196ZM238.282 36.9605C238.269 42.1988 242.545 46.5439 247.745 46.5708C252.925 46.5909 257.241 42.2592 257.254 37.0075C257.268 31.7558 252.992 27.4174 247.792 27.4107C242.585 27.404 238.302 31.702 238.282 36.9672V36.9605Z" fill="#3F5397"/>
<path d="M248.454 82.9752C235.6 82.6999 224.9 78.5898 216.069 69.9332C208.934 62.9421 204.505 54.4467 202.943 44.5275C201.001 32.2242 203.554 20.9081 210.51 10.5994C211.348 9.357 212.332 8.36307 213.882 8.18846C214.414 8.12801 214.972 8.15488 215.497 8.25561C217.067 8.55782 218.004 7.50345 217.506 5.95211C216.575 3.06433 218.65 0.0825259 221.649 0.0019367C223.491 -0.0517894 225.16 1.01602 225.931 2.74197C226.649 4.35375 226.31 6.35505 225.1 7.66463C223.836 9.02793 221.901 9.51146 220.172 8.80631C219.514 8.53767 219.015 8.54439 218.53 9.09508C218.157 9.51818 218.051 9.93455 218.31 10.4651C219.135 12.1642 218.942 13.7558 217.845 15.3005C214.148 20.4985 211.88 26.2874 211.215 32.6406C210.038 43.9566 213.197 53.9295 220.844 62.3175C226.789 68.8453 234.224 72.6195 242.928 73.8015C261.874 76.3736 279.735 63.748 283.685 44.9438C284.204 42.4792 284.357 39.9272 284.596 37.402C284.862 34.662 286.658 32.9831 289.318 33.1107C291.619 33.2181 293.341 35.2463 293.261 37.8318C293.148 41.6598 292.656 45.4408 291.632 49.1412C286.984 65.9978 273.617 78.5563 256.607 82.0619C255.676 82.2566 254.732 82.4178 253.787 82.5118C251.806 82.7133 249.817 82.8611 248.434 82.9752H248.454Z" fill="#516FDB"/>
<mask id="mask0_3624_75788" style="mask-type:alpha" maskUnits="userSpaceOnUse" x="227" y="12" width="42" height="48">
<path d="M255.371 58.89C261.228 58.3518 263.958 54.5767 264.592 52.7563L268.414 34.9262L266.687 12.7812H250.536L234.384 20.5015L227.172 32.7929V41.9353L232.048 50.1635L240.581 55.5473C243.071 56.8858 249.515 59.4282 255.371 58.89Z" fill="#D9D9D9" stroke="black" stroke-width="0.152532"/>
</mask>
<g mask="url(#mask0_3624_75788)">
<path d="M256.744 58.7137C255.839 57.3303 254.955 55.9468 254.024 54.597C253.917 54.4492 253.505 54.3955 253.286 54.4626C248.551 55.8864 243.929 55.5909 239.547 53.2941C233.908 50.3324 230.59 45.5978 229.785 39.2178C228.608 29.9165 234.466 21.4412 243.524 19.178C253.724 16.626 264.112 23.6037 265.681 34.0803C266.512 39.6477 265.089 44.5905 261.538 48.9154C261.199 49.3251 261.172 49.5937 261.472 50.0235C262.336 51.2794 263.147 52.5755 264.038 53.9321C264.245 53.7508 264.417 53.6164 264.564 53.4687C266.193 51.8166 267.536 49.9496 268.58 47.8745C269.412 46.2358 270.688 45.3426 272.517 45.2956C273.135 45.2755 273.541 45.0203 273.721 44.4024C273.907 43.7711 273.581 43.4219 273.115 43.0996C270.09 40.9572 270.436 36.7464 273.774 35.1145C274.293 34.8593 274.652 34.537 274.572 33.9124C274.492 33.261 274.053 33.0125 273.461 32.8916C271.054 32.4081 269.505 30.212 269.85 27.7876C270.19 25.4035 272.291 23.738 274.758 23.9059C277.032 24.0604 278.894 26.1288 278.848 28.5062C278.821 29.9904 278.196 31.1925 277.026 32.0991C275.995 32.8916 276.194 34.5638 277.385 35.1078C279.18 35.9338 280.238 37.6934 280.091 39.6208C279.945 41.5415 278.642 43.113 276.74 43.6637C275.403 44.0465 274.918 45.6784 275.802 46.7395C277.046 48.2438 277.292 49.9429 276.394 51.6622C271.613 60.8158 264.218 66.6786 254.17 68.7068C243.55 70.8491 234.047 68.1427 226.008 60.7889C220.422 55.6782 217.15 49.2378 216.02 41.696C215.348 37.1964 215.634 32.7573 216.824 28.3786C217.363 26.3907 218.713 25.249 220.741 25.014C221.878 24.8797 222.443 23.5634 221.772 22.603C219.877 19.8899 221.087 16.2969 224.199 15.4709C225.157 15.2157 226.141 15.2358 227.065 15.6522C227.71 15.9477 228.142 15.6589 228.588 15.256C229.027 14.8598 229.346 14.4971 229.186 13.792C228.521 10.884 230.496 8.21115 233.449 8.14399C236.029 8.08355 237.884 9.97068 238.011 12.3816C238.15 15.0612 236.275 17.1633 233.808 17.2304C232.87 17.2573 232.006 17.076 231.208 16.579C230.696 16.2566 230.23 16.3036 229.785 16.7066C229.353 17.0961 229.326 17.5326 229.526 18.0699C230.749 21.3875 228.588 24.4432 225.097 24.3626C225.05 24.3626 225.004 24.3626 224.964 24.3626C224.425 24.3088 223.9 24.3088 223.627 24.9065C223.354 25.5042 223.714 25.887 224.093 26.2833C225.243 27.472 225.622 28.889 225.25 30.5142C225.044 31.4007 224.817 32.2939 224.684 33.1938C223.634 40.0506 225.223 46.2493 229.472 51.6756C233.482 56.8064 238.789 59.7076 245.226 60.4665C248.983 60.9098 252.641 60.4531 256.178 59.0697C256.325 59.0092 256.471 58.9555 256.617 58.8883C256.657 58.8682 256.677 58.8212 256.777 58.707L256.744 58.7137ZM238.29 36.9546C238.277 42.1929 242.553 46.538 247.753 46.5649C252.933 46.585 257.249 42.2534 257.262 37.0016C257.276 31.7499 253 27.4115 247.799 27.4048C242.593 27.3981 238.31 31.6962 238.29 36.9613V36.9546Z" fill="#F6B221"/>
</g>
<path d="M14.2274 19.2815C13.4109 19.2815 12.6894 19.1641 12.063 18.9292C11.4366 18.6943 10.9444 18.3531 10.5865 17.9057C10.2397 17.4583 10.0663 16.9213 10.0663 16.295C10.0663 15.7133 10.2173 15.1876 10.5194 14.7178C10.8326 14.248 11.2632 13.8229 11.8113 13.4426C12.3706 13.0511 13.0249 12.6876 13.7744 12.352C14.535 12.0052 15.3572 11.6697 16.2408 11.3453L16.6435 13.9963C15.8941 14.1753 15.2677 14.3654 14.7643 14.5668C14.2721 14.7569 13.8806 14.9527 13.5898 15.154C13.299 15.3442 13.0865 15.5287 12.9522 15.7077C12.8292 15.8755 12.7677 16.0209 12.7677 16.1439C12.7677 16.2894 12.8628 16.4124 13.0529 16.5131C13.2431 16.6026 13.601 16.6473 14.1267 16.6473C14.2386 16.6473 14.4008 16.6417 14.6133 16.6305C14.8258 16.6193 15.0719 16.597 15.3516 16.5634C15.6312 16.5187 15.9276 16.4571 16.2408 16.3788L16.8616 18.5936C16.4142 18.8061 15.9891 18.9739 15.5865 19.097C15.195 19.22 14.7419 19.2815 14.2274 19.2815ZM18.3214 19.5332C17.6055 19.5332 17.0294 19.4381 16.5932 19.248C16.1681 19.0466 15.8437 18.7949 15.62 18.4929C15.4075 18.1797 15.2621 17.8442 15.1838 17.4862C15.1167 17.1283 15.0831 16.7927 15.0831 16.4795V10.5735H17.7844V15.7245C17.7844 16.1607 17.8963 16.4683 18.12 16.6473C18.3549 16.8151 18.7296 16.899 19.2442 16.899H19.7979V19.5332H18.3214ZM12.969 9.63388L11.2073 7.85536L12.8683 6.06006L14.6301 7.85536L12.969 9.63388ZM15.922 9.63388L14.1603 7.85536L15.8381 6.06006L17.5999 7.85536L15.922 9.63388ZM19.7917 19.5332V16.899H22.1239C22.1687 16.7088 22.2078 16.4516 22.2414 16.1272C22.2749 15.8028 22.3029 15.4784 22.3253 15.154C22.3476 14.8184 22.3532 14.5388 22.342 14.3151L25.4964 13.2077C25.2951 14.0243 25.0937 14.7905 24.8924 15.5064C24.7022 16.2111 24.4729 16.8934 24.2045 17.5533C23.9472 18.2021 23.6116 18.8621 23.1977 19.5332H19.7917ZM26.6709 19.5332C25.8991 19.5332 25.2447 19.4605 24.7078 19.3151C24.1821 19.1585 23.7402 18.9795 23.3823 18.7782C23.0244 18.5656 22.7168 18.3699 22.4595 18.1909L23.8857 16.5299C24.0423 16.6082 24.2268 16.6753 24.4394 16.7312C24.6519 16.7871 24.8868 16.8319 25.144 16.8654C25.4013 16.8878 25.6698 16.899 25.9494 16.899H26.6709V19.5332ZM19.7917 16.899H19.9595V19.5332H19.7917C19.4561 19.5332 19.2884 19.097 19.2884 18.2245C19.2884 17.3408 19.4561 16.899 19.7917 16.899ZM21.7212 24.0466L19.9595 22.2513L21.6206 20.4728L23.3823 22.2513L21.7212 24.0466ZM24.6743 24.0466L22.9125 22.2513L24.5904 20.4728L26.3521 22.2513L24.6743 24.0466ZM38.8212 19.5332C38.0717 19.5332 37.4565 19.4661 36.9755 19.3319C36.5057 19.1976 36.1086 18.9795 35.7842 18.6775C35.471 18.3643 35.1802 17.956 34.9118 17.4527L36.7071 16.6137C36.8301 16.6809 36.9643 16.7368 37.1097 16.7815C37.2663 16.8151 37.4677 16.843 37.7138 16.8654C37.971 16.8878 38.2954 16.899 38.6869 16.899H39.3245V19.5332H38.8212ZM26.6735 16.899H26.8413V19.5332H26.6735C26.3379 19.5332 26.1702 19.097 26.1702 18.2245C26.1702 17.3408 26.3379 16.899 26.6735 16.899ZM26.6735 19.5332V16.899H27.0594C28.0773 16.899 28.933 16.8766 29.6265 16.8319C30.32 16.7871 30.9073 16.72 31.3883 16.6305C31.8693 16.5299 32.2887 16.4068 32.6467 16.2614C33.0046 16.116 33.357 15.9426 33.7037 15.7413C33.782 15.6965 33.8491 15.6574 33.9051 15.6238C33.961 15.5903 34.0113 15.5623 34.0561 15.5399C34.112 15.5064 34.1567 15.484 34.1903 15.4728C33.7764 15.2603 33.4017 15.0813 33.0661 14.9359C32.7306 14.7793 32.4118 14.6563 32.1098 14.5668C31.8189 14.4661 31.5393 14.3934 31.2708 14.3486C31.0136 14.3039 30.7507 14.2815 30.4822 14.2815C30.1355 14.2815 29.8167 14.3766 29.5259 14.5668C29.235 14.7569 28.9274 15.0869 28.603 15.5567L26.8749 14.6674C27.2552 13.8733 27.6634 13.258 28.0997 12.8218C28.5359 12.3856 28.9889 12.0835 29.4587 11.9158C29.9285 11.7368 30.3928 11.6473 30.8514 11.6473C31.4554 11.6473 32.0091 11.7368 32.5124 11.9158C33.027 12.0947 33.508 12.3184 33.9554 12.5869C34.4028 12.8554 34.8391 13.1238 35.2641 13.3923C35.6892 13.6495 36.1142 13.8677 36.5393 14.0466C36.9643 14.2256 37.4174 14.3095 37.8983 14.2983L37.848 16.5802C37.5572 16.6585 37.1992 16.7759 36.7742 16.9325C36.3491 17.0779 35.857 17.2961 35.2977 17.5869C34.8502 17.8218 34.3804 18.0567 33.8883 18.2916C33.3961 18.5153 32.8312 18.7222 32.1936 18.9124C31.5561 19.1026 30.8066 19.2536 29.9453 19.3654C29.084 19.4773 28.0661 19.5332 26.8916 19.5332H26.6735ZM26.6735 16.899H26.8413V19.5332H26.6735C26.3379 19.5332 26.1702 19.097 26.1702 18.2245C26.1702 17.3408 26.3379 16.899 26.6735 16.899ZM31.942 24.0466L30.1634 22.2513L31.8581 20.4728L33.6198 22.2513L31.942 24.0466ZM39.3229 19.5332V16.899H41.6551C41.6999 16.7088 41.739 16.4516 41.7726 16.1272C41.8062 15.8028 41.8341 15.4784 41.8565 15.154C41.8789 14.8184 41.8845 14.5388 41.8733 14.3151L45.0276 13.2077C44.8263 14.0243 44.6249 14.7905 44.4236 15.5064C44.2334 16.2111 44.0041 16.8934 43.7357 17.5533C43.4784 18.2021 43.1428 18.8621 42.729 19.5332H39.3229ZM46.2021 19.5332C45.4303 19.5332 44.776 19.4605 44.239 19.3151C43.7133 19.1585 43.2715 18.9795 42.9135 18.7782C42.5556 18.5656 42.248 18.3699 41.9907 18.1909L43.4169 16.5299C43.5735 16.6082 43.7581 16.6753 43.9706 16.7312C44.1831 16.7871 44.418 16.8319 44.6753 16.8654C44.9326 16.8878 45.201 16.899 45.4806 16.899H46.2021V19.5332ZM39.3229 16.899H39.4907V19.5332H39.3229C38.9874 19.5332 38.8196 19.097 38.8196 18.2245C38.8196 17.3408 38.9874 16.899 39.3229 16.899ZM41.2525 24.0466L39.4907 22.2513L41.1518 20.4728L42.9135 22.2513L41.2525 24.0466ZM44.2055 24.0466L42.4437 22.2513L44.1216 20.4728L45.8833 22.2513L44.2055 24.0466ZM50.0302 16.899H52.0437V19.5332H50.0302V16.899ZM46.2047 19.5332V16.899H47.8323V7.11711H50.5336V19.5332H46.2047ZM46.2047 16.899H46.3725V19.5332H46.2047C45.8692 19.5332 45.7014 19.097 45.7014 18.2245C45.7014 17.3408 45.8692 16.899 46.2047 16.899ZM52.0379 16.899H53.3802V19.5332H52.0379V16.899ZM52.0379 16.899H52.2057V19.5332H52.0379C51.7023 19.5332 51.5345 19.097 51.5345 18.2245C51.5345 17.3408 51.7023 16.899 52.0379 16.899ZM65.5291 19.5332C64.7797 19.5332 64.1645 19.4661 63.6835 19.3319C63.2137 19.1976 62.8166 18.9795 62.4922 18.6775C62.179 18.3643 61.8882 17.956 61.6197 17.4527L63.415 16.6137C63.5381 16.6809 63.6723 16.7368 63.8177 16.7815C63.9743 16.8151 64.1757 16.843 64.4217 16.8654C64.679 16.8878 65.0034 16.899 65.3949 16.899H66.0325V19.5332H65.5291ZM53.3815 16.899H53.5493V19.5332H53.3815C53.0459 19.5332 52.8781 19.097 52.8781 18.2245C52.8781 17.3408 53.0459 16.899 53.3815 16.899ZM53.3815 19.5332V16.899H53.7674C54.7853 16.899 55.641 16.8766 56.3345 16.8319C57.028 16.7871 57.6153 16.72 58.0962 16.6305C58.5772 16.5299 58.9967 16.4068 59.3546 16.2614C59.7126 16.116 60.0649 15.9426 60.4117 15.7413C60.49 15.6965 60.5571 15.6574 60.613 15.6238C60.669 15.5903 60.7193 15.5623 60.764 15.5399C60.82 15.5064 60.8647 15.484 60.8983 15.4728C60.4844 15.2603 60.1097 15.0813 59.7741 14.9359C59.4385 14.7793 59.1197 14.6563 58.8177 14.5668C58.5269 14.4661 58.2473 14.3934 57.9788 14.3486C57.7215 14.3039 57.4587 14.2815 57.1902 14.2815C56.8435 14.2815 56.5247 14.3766 56.2338 14.5668C55.943 14.7569 55.6354 15.0869 55.311 15.5567L53.5828 14.6674C53.9631 13.8733 54.3714 13.258 54.8077 12.8218C55.2439 12.3856 55.6969 12.0835 56.1667 11.9158C56.6365 11.7368 57.1007 11.6473 57.5593 11.6473C58.1634 11.6473 58.7171 11.7368 59.2204 11.9158C59.7349 12.0947 60.2159 12.3184 60.6634 12.5869C61.1108 12.8554 61.547 13.1238 61.9721 13.3923C62.3971 13.6495 62.8222 13.8677 63.2472 14.0466C63.6723 14.2256 64.1253 14.3095 64.6063 14.2983L64.556 16.5802C64.2651 16.6585 63.9072 16.7759 63.4821 16.9325C63.0571 17.0779 62.5649 17.2961 62.0056 17.5869C61.5582 17.8218 61.0884 18.0567 60.5962 18.2916C60.1041 18.5153 59.5392 18.7222 58.9016 18.9124C58.264 19.1026 57.5146 19.2536 56.6533 19.3654C55.792 19.4773 54.7741 19.5332 53.5996 19.5332H53.3815ZM53.3815 16.899H53.5493V19.5332H53.3815C53.0459 19.5332 52.8781 19.097 52.8781 18.2245C52.8781 17.3408 53.0459 16.899 53.3815 16.899ZM57.6097 10.2379L55.8312 8.45939L57.5258 6.66409L59.2875 8.45939L57.6097 10.2379ZM66.0309 19.5332V16.899H67.6584V7.11711H70.3598V19.5332H66.0309ZM66.0309 16.899H66.1987V19.5332H66.0309C65.6953 19.5332 65.5276 19.097 65.5276 18.2245C65.5276 17.3408 65.6953 16.899 66.0309 16.899ZM72.6777 7.11711H75.379V19.5332H72.6777V7.11711ZM87.4455 23.8285C86.4612 23.8285 85.6334 23.6943 84.9623 23.4258C84.2912 23.1685 83.7543 22.8162 83.3516 22.3688C82.9489 21.9325 82.6581 21.4404 82.4791 20.8923C82.3001 20.3553 82.2106 19.8017 82.2106 19.2312C82.2106 18.7838 82.2777 18.2692 82.412 17.6876C82.5574 17.0947 82.7531 16.4683 82.9992 15.8084L85.2308 16.5131C85.0853 16.9717 84.9735 17.3911 84.8952 17.7715C84.8281 18.1406 84.7945 18.4706 84.7945 18.7614C84.7945 19.1641 84.8616 19.5164 84.9959 19.8184C85.1413 20.1316 85.3426 20.3889 85.5999 20.5902C85.8683 20.7916 86.1927 20.9426 86.573 21.0433C86.9534 21.1439 87.3784 21.1943 87.8482 21.1943C88.1614 21.1943 88.4858 21.1495 88.8214 21.06C89.1569 20.9817 89.4645 20.8531 89.7442 20.6741C90.035 20.4952 90.2699 20.2659 90.4489 19.9862C90.6278 19.7178 90.7173 19.3934 90.7173 19.0131C90.7173 18.7782 90.7006 18.5153 90.667 18.2245C90.6446 17.9337 90.5216 17.5813 90.2979 17.1674L92.0596 16.0265C92.1715 16.1495 92.3113 16.3453 92.4791 16.6137C92.6469 16.8822 92.7979 17.1842 92.9321 17.5198C93.0663 17.8442 93.1334 18.163 93.1334 18.4762C93.1334 19.5835 92.9041 20.5343 92.4455 21.3285C91.9869 22.1339 91.3325 22.7491 90.4824 23.1741C89.6435 23.6104 88.6312 23.8285 87.4455 23.8285ZM94.4589 19.5332C93.9444 19.5332 93.4634 19.4549 93.016 19.2983C92.5797 19.1417 92.1827 18.946 91.8247 18.7111C91.478 18.4762 91.1815 18.2301 90.9355 17.9728C90.6894 17.7043 90.5048 17.4694 90.3818 17.2681L89.4086 15.6909L91.5227 13.1406L92.6301 15.607C92.7867 15.9538 92.9209 16.2222 93.0328 16.4124C93.1446 16.5914 93.2956 16.72 93.4858 16.7983C93.6759 16.8654 93.9444 16.899 94.2912 16.899H94.6267V19.5332H94.4589ZM87.5798 13.8788L85.8012 12.1003L87.4959 10.305L89.2576 12.1003L87.5798 13.8788ZM94.6232 16.899H95.9655V19.5332H94.6232V16.899ZM94.6232 16.899H94.791V19.5332H94.6232C94.2876 19.5332 94.1198 19.097 94.1198 18.2245C94.1198 17.3408 94.2876 16.899 94.6232 16.899ZM95.9668 19.5332V16.899H98.3829C98.3493 16.9102 98.3046 16.9269 98.2487 16.9493C98.2039 16.9717 98.148 16.9941 98.0809 17.0164C98.0249 17.0276 97.969 17.0388 97.9131 17.05C97.667 16.7256 97.4992 16.3956 97.4097 16.0601C97.3202 15.7245 97.2755 15.3833 97.2755 15.0366C97.2755 14.578 97.3594 14.1361 97.5272 13.7111C97.695 13.286 97.9466 12.9001 98.2822 12.5533C98.6178 12.2066 99.0316 11.9325 99.5238 11.7312C100.027 11.5299 100.603 11.4292 101.252 11.4292C101.912 11.4292 102.488 11.5299 102.98 11.7312C103.484 11.9325 103.903 12.2066 104.239 12.5533C104.574 12.9001 104.826 13.286 104.994 13.7111C105.173 14.1361 105.262 14.578 105.262 15.0366C105.262 15.3945 105.212 15.7413 105.111 16.0768C105.022 16.4012 104.854 16.7256 104.608 17.05C104.507 17.0276 104.451 17.0052 104.44 16.9829C104.429 16.9605 104.373 16.9325 104.272 16.899H106.235V19.5332H105.816C105.022 19.5332 104.362 19.5276 103.836 19.5164C103.31 19.4941 102.857 19.4549 102.477 19.399C102.108 19.343 101.744 19.248 101.386 19.1137C101.218 19.1697 101.056 19.2256 100.9 19.2815C100.743 19.3263 100.553 19.371 100.329 19.4158C100.117 19.4493 99.8314 19.4773 99.4735 19.4996C99.1267 19.522 98.6681 19.5332 98.0976 19.5332H95.9668ZM101.252 17.0332C101.52 16.9102 101.744 16.7592 101.923 16.5802C102.102 16.4012 102.236 16.1999 102.326 15.9762C102.415 15.7524 102.46 15.5175 102.46 15.2715C102.46 15.0477 102.41 14.8464 102.309 14.6674C102.22 14.4885 102.085 14.3431 101.906 14.2312C101.727 14.1193 101.509 14.0634 101.252 14.0634C101.006 14.0634 100.793 14.1193 100.614 14.2312C100.435 14.3431 100.296 14.4941 100.195 14.6842C100.105 14.8632 100.061 15.0589 100.061 15.2715C100.061 15.5175 100.105 15.7524 100.195 15.9762C100.284 16.1887 100.419 16.3844 100.598 16.5634C100.777 16.7424 100.995 16.899 101.252 17.0332ZM95.9668 16.899H96.1346V19.5332H95.9668C95.6312 19.5332 95.4634 19.097 95.4634 18.2245C95.4634 17.3408 95.6312 16.899 95.9668 16.899ZM99.8258 10.0198L98.0641 8.24127L99.7252 6.44597L101.487 8.24127L99.8258 10.0198ZM102.779 10.0198L101.017 8.24127L102.695 6.44597L104.457 8.24127L102.779 10.0198ZM106.24 16.899H107.583V19.5332H106.24V16.899ZM106.24 16.899H106.408V19.5332H106.24C105.905 19.5332 105.737 19.097 105.737 18.2245C105.737 17.3408 105.905 16.899 106.24 16.899ZM107.584 16.899H108.926V19.5332H107.584V16.899ZM107.584 16.899H107.752V19.5332H107.584C107.248 19.5332 107.081 19.097 107.081 18.2245C107.081 17.3408 107.248 16.899 107.584 16.899ZM108.928 19.5332V16.899H112.216C112.127 16.5075 111.953 16.0712 111.696 15.5903C111.439 15.1093 111.114 14.6227 110.723 14.1305L113.139 11.6641C113.474 12.3017 113.765 13.0008 114.011 13.7614C114.257 14.522 114.381 15.3777 114.381 16.3285C114.381 17.2681 114.174 18.3363 113.76 19.5332H108.928ZM108.928 16.899H109.095V19.5332H108.928C108.592 19.5332 108.424 19.097 108.424 18.2245C108.424 17.3408 108.592 16.899 108.928 16.899ZM110.555 10.7413L108.793 8.96274L110.454 7.16744L112.216 8.96274L110.555 10.7413ZM113.508 10.7413L111.746 8.96274L113.424 7.16744L115.186 8.96274L113.508 10.7413ZM116.508 7.11711H119.21V19.5332H116.508V7.11711ZM130.202 19.2815C129.386 19.2815 128.664 19.1641 128.038 18.9292C127.411 18.6943 126.919 18.3531 126.561 17.9057C126.215 17.4583 126.041 16.9213 126.041 16.295C126.041 15.7133 126.192 15.1876 126.494 14.7178C126.807 14.248 127.238 13.8229 127.786 13.4426C128.345 13.0511 129 12.6876 129.749 12.352C130.51 12.0052 131.332 11.6697 132.216 11.3453L132.618 13.9963C131.869 14.1753 131.243 14.3654 130.739 14.5668C130.247 14.7569 129.856 14.9527 129.565 15.154C129.274 15.3442 129.061 15.5287 128.927 15.7077C128.804 15.8755 128.743 16.0209 128.743 16.1439C128.743 16.2894 128.838 16.4124 129.028 16.5131C129.218 16.6026 129.576 16.6473 130.102 16.6473C130.213 16.6473 130.376 16.6417 130.588 16.6305C130.801 16.6193 131.047 16.597 131.326 16.5634C131.606 16.5187 131.902 16.4571 132.216 16.3788L132.836 18.5936C132.389 18.8061 131.964 18.9739 131.561 19.097C131.17 19.22 130.717 19.2815 130.202 19.2815ZM134.296 19.5332C133.58 19.5332 133.004 19.4381 132.568 19.248C132.143 19.0466 131.819 18.7949 131.595 18.4929C131.382 18.1797 131.237 17.8442 131.159 17.4862C131.092 17.1283 131.058 16.7927 131.058 16.4795V10.5735H133.759V15.7245C133.759 16.1607 133.871 16.4683 134.095 16.6473C134.33 16.8151 134.704 16.899 135.219 16.899H135.773V19.5332H134.296ZM128.944 9.63388L127.182 7.85536L128.843 6.06006L130.605 7.85536L128.944 9.63388ZM131.897 9.63388L130.135 7.85536L131.813 6.06006L133.575 7.85536L131.897 9.63388ZM135.767 16.899H137.109V19.5332H135.767V16.899ZM135.767 16.899H135.934V19.5332H135.767C135.431 19.5332 135.263 19.097 135.263 18.2245C135.263 17.3408 135.431 16.899 135.767 16.899ZM137.11 16.899H138.452V19.5332H137.11V16.899ZM137.11 16.899H137.278V19.5332H137.11C136.775 19.5332 136.607 19.097 136.607 18.2245C136.607 17.3408 136.775 16.899 137.11 16.899ZM139.528 10.5231L144.226 6.61375L146.004 8.72784L141.407 12.5366L141.826 11.5466C143.101 11.9046 144.086 12.4583 144.779 13.2077C145.484 13.9571 145.931 14.8688 146.122 15.9426C146.323 17.0052 146.3 18.2021 146.054 19.5332H138.454V16.899H143.739C143.605 16.3844 143.359 15.8979 143.001 15.4392C142.643 14.9806 142.173 14.5891 141.591 14.2648C141.021 13.9292 140.333 13.6999 139.528 13.5768V10.5231ZM138.454 16.899H138.622V19.5332H138.454C138.118 19.5332 137.95 19.097 137.95 18.2245C137.95 17.3408 138.118 16.899 138.454 16.899ZM148.556 23.8285C148.053 23.8285 147.494 23.7166 146.879 23.4929C146.275 23.2692 145.726 22.9504 145.234 22.5366L146.073 20.8419C146.521 20.9762 146.895 21.0656 147.197 21.1104C147.499 21.1663 147.785 21.1943 148.053 21.1943C148.657 21.1943 149.188 21.0768 149.647 20.8419C150.117 20.6182 150.48 20.3106 150.738 19.9191C151.006 19.5276 151.14 19.1026 151.14 18.6439C151.14 18.2636 151.079 17.9448 150.956 17.6876C150.844 17.4191 150.693 17.1674 150.503 16.9325C150.324 16.6865 150.128 16.4068 149.915 16.0936L153.523 17.8386C153.523 17.9728 153.523 18.107 153.523 18.2413C153.523 18.3755 153.523 18.5097 153.523 18.6439C153.523 18.9795 153.467 19.371 153.355 19.8184C153.254 20.2659 153.087 20.7189 152.852 21.1775C152.617 21.6473 152.304 22.0835 151.912 22.4862C151.532 22.8889 151.062 23.2133 150.503 23.4594C149.955 23.7055 149.306 23.8285 148.556 23.8285ZM154.848 19.5332C154.446 19.5332 154.065 19.4996 153.707 19.4325C153.361 19.3542 153.031 19.2368 152.717 19.0802C152.415 18.9236 152.125 18.7222 151.845 18.4762C151.577 18.2301 151.308 17.9337 151.04 17.5869L148.858 14.7849L151.006 12.1507L153.12 15.8419C153.277 16.1104 153.422 16.3229 153.556 16.4795C153.691 16.6361 153.853 16.748 154.043 16.8151C154.244 16.871 154.513 16.899 154.848 16.899H155.016V19.5332H154.848ZM155.019 16.899H156.362V19.5332H155.019V16.899ZM155.019 16.899H155.187V19.5332H155.019C154.684 19.5332 154.516 19.097 154.516 18.2245C154.516 17.3408 154.684 16.899 155.019 16.899ZM156.363 16.899H157.705V19.5332H156.363V16.899ZM156.363 16.899H156.531V19.5332H156.363C156.027 19.5332 155.859 19.097 155.859 18.2245C155.859 17.3408 156.027 16.899 156.363 16.899ZM169.015 19.5332C168.243 19.5332 167.589 19.4605 167.052 19.3151C166.526 19.1585 166.084 18.9795 165.727 18.7782C165.369 18.5656 165.061 18.3699 164.804 18.1909L166.297 16.5802C166.498 16.6697 166.772 16.748 167.119 16.8151C167.477 16.871 167.869 16.899 168.294 16.899H170.357C170.223 16.3956 170.027 15.909 169.77 15.4392C169.524 14.9583 169.239 14.5108 168.914 14.097L171.331 11.6473C171.588 12.1171 171.823 12.6261 172.035 13.1741C172.248 13.7111 172.399 14.2983 172.488 14.9359C172.589 15.5623 172.6 16.2558 172.522 17.0164C172.444 17.7771 172.242 18.616 171.918 19.5332H169.015ZM157.706 19.5332V16.899H159.317C159.351 16.6641 159.373 16.4236 159.384 16.1775C159.407 15.9314 159.418 15.6686 159.418 15.3889C159.418 15.1093 159.401 14.8073 159.367 14.4829L162.539 13.3923C162.382 14.1753 162.231 14.8408 162.086 15.3889C161.94 15.937 161.778 16.4236 161.599 16.8486C161.431 17.2737 161.224 17.6932 160.978 18.107C160.743 18.5209 160.447 18.9963 160.089 19.5332H157.706ZM162.908 19.5332C162.069 19.5332 161.359 19.4605 160.777 19.3151C160.195 19.1585 159.731 18.9851 159.384 18.7949C159.049 18.5936 158.814 18.4314 158.68 18.3084L159.67 16.3453C159.949 16.5243 160.296 16.6641 160.71 16.7647C161.124 16.8542 161.577 16.899 162.069 16.899H164.099C164.133 16.7312 164.155 16.5243 164.166 16.2782C164.189 16.0209 164.2 15.7413 164.2 15.4392C164.2 15.126 164.183 14.8073 164.149 14.4829L167.354 13.3923C167.186 14.1753 167.03 14.8408 166.884 15.3889C166.739 15.937 166.577 16.4236 166.398 16.8486C166.219 17.2737 166.006 17.6932 165.76 18.107C165.525 18.5209 165.234 18.9963 164.888 19.5332H162.908ZM157.706 16.899H157.874V19.5332H157.706C157.371 19.5332 157.203 19.097 157.203 18.2245C157.203 17.3408 157.371 16.899 157.706 16.899ZM165.928 10.0533L164.133 8.27483L165.827 6.47953L167.589 8.27483L165.928 10.0533ZM164.485 12.8554L162.723 11.0601L164.384 9.28154L166.146 11.0601L164.485 12.8554ZM167.438 12.8554L165.676 11.0601L167.354 9.28154L169.116 11.0601L167.438 12.8554ZM11.786 40.2815C10.9694 40.2815 10.248 40.1641 9.62156 39.9292C8.99516 39.6943 8.50299 39.3531 8.14505 38.9057C7.79829 38.4583 7.62491 37.9213 7.62491 37.295C7.62491 36.7133 7.77592 36.1876 8.07793 35.7178C8.39113 35.248 8.82178 34.8229 9.36988 34.4426C9.92916 34.0511 10.5835 33.6876 11.333 33.352C12.0936 33.0052 12.9157 32.6697 13.7994 32.3453L14.2021 34.9963C13.4526 35.1753 12.8263 35.3654 12.3229 35.5668C11.8307 35.7569 11.4392 35.9527 11.1484 36.154C10.8576 36.3442 10.645 36.5287 10.5108 36.7077C10.3878 36.8755 10.3263 37.0209 10.3263 37.1439C10.3263 37.2894 10.4213 37.4124 10.6115 37.5131C10.8016 37.6026 11.1596 37.6473 11.6853 37.6473C11.7972 37.6473 11.9594 37.6417 12.1719 37.6305C12.3844 37.6193 12.6305 37.597 12.9101 37.5634C13.1898 37.5187 13.4862 37.4571 13.7994 37.3788L14.4202 39.5936C13.9728 39.8061 13.5477 39.9739 13.145 40.097C12.7535 40.22 12.3005 40.2815 11.786 40.2815ZM15.8799 40.5332C15.1641 40.5332 14.588 40.4381 14.1518 40.248C13.7267 40.0466 13.4023 39.7949 13.1786 39.4929C12.9661 39.1797 12.8207 38.8442 12.7424 38.4862C12.6752 38.1283 12.6417 37.7927 12.6417 37.4795V31.5735H15.343V36.7245C15.343 37.1607 15.4549 37.4683 15.6786 37.6473C15.9135 37.8151 16.2882 37.899 16.8028 37.899H17.3564V40.5332H15.8799ZM10.5276 30.6339L8.76585 28.8554L10.4269 27.0601L12.1887 28.8554L10.5276 30.6339ZM13.4806 30.6339L11.7189 28.8554L13.3967 27.0601L15.1585 28.8554L13.4806 30.6339ZM17.3503 40.5332V37.899H19.6825C19.7272 37.7088 19.7664 37.4516 19.7999 37.1272C19.8335 36.8028 19.8615 36.4784 19.8838 36.154C19.9062 35.8184 19.9118 35.5388 19.9006 35.3151L23.055 34.2077C22.8536 35.0243 22.6523 35.7905 22.451 36.5064C22.2608 37.2111 22.0315 37.8934 21.763 38.5533C21.5058 39.2021 21.1702 39.8621 20.7563 40.5332H17.3503ZM24.2295 40.5332C23.4577 40.5332 22.8033 40.4605 22.2664 40.3151C21.7407 40.1585 21.2988 39.9795 20.9409 39.7782C20.5829 39.5656 20.2753 39.3699 20.0181 39.1909L21.4442 37.5299C21.6008 37.6082 21.7854 37.6753 21.9979 37.7312C22.2105 37.7871 22.4454 37.8319 22.7026 37.8654C22.9599 37.8878 23.2284 37.899 23.508 37.899H24.2295V40.5332ZM17.3503 37.899H17.5181V40.5332H17.3503C17.0147 40.5332 16.8469 40.097 16.8469 39.2245C16.8469 38.3408 17.0147 37.899 17.3503 37.899ZM19.2798 45.0466L17.5181 43.2513L19.1791 41.4728L20.9409 43.2513L19.2798 45.0466ZM22.2328 45.0466L20.4711 43.2513L22.1489 41.4728L23.9107 43.2513L22.2328 45.0466ZM24.2321 40.5332V37.899H25.8596V28.1171H28.5609V40.5332H24.2321ZM24.2321 37.899H24.3999V40.5332H24.2321C23.8965 40.5332 23.7287 40.097 23.7287 39.2245C23.7287 38.3408 23.8965 37.899 24.2321 37.899ZM34.1003 40.5332C33.5411 40.5332 33.0601 40.4773 32.6574 40.3654C32.2547 40.2536 31.9191 40.0802 31.6507 39.8453C31.3934 39.5992 31.1977 39.286 31.0634 38.9057C30.9404 38.5254 30.8789 38.0668 30.8789 37.5299V28.1171H33.5802V36.5567C33.5802 36.8028 33.597 37.0153 33.6305 37.1943C33.6641 37.3621 33.7256 37.5019 33.8151 37.6137C33.9046 37.7144 34.0276 37.7871 34.1842 37.8319C34.352 37.8766 34.5701 37.899 34.8386 37.899H35.493V40.5332H34.1003ZM35.4888 40.5332V37.899H35.5391C35.6733 37.899 35.7964 37.871 35.9082 37.8151C36.0313 37.7592 36.1599 37.6641 36.2941 37.5299C36.4284 37.3956 36.5738 37.2111 36.7304 36.9762C36.8982 36.7301 37.0939 36.4225 37.3176 36.0533C37.642 35.5164 37.9552 35.0634 38.2572 34.6943C38.5592 34.314 38.8557 34.012 39.1465 33.7882C39.4485 33.5645 39.7505 33.4023 40.0525 33.3017C40.3545 33.201 40.6621 33.1507 40.9753 33.1507C41.4899 33.1507 41.9541 33.2625 42.368 33.4862C42.7818 33.7099 43.1677 34.0679 43.5257 34.5601C43.8836 35.041 44.236 35.6898 44.5827 36.5064C44.7729 36.9202 44.9518 37.2278 45.1196 37.4292C45.2986 37.6305 45.4944 37.7592 45.7069 37.8151C45.9194 37.871 46.1711 37.899 46.4619 37.899H46.6465V40.5332H45.8076C45.3266 40.5332 44.9015 40.4549 44.5324 40.2983C44.1744 40.1417 43.8612 39.9348 43.5928 39.6775C43.3243 39.409 43.0894 39.1238 42.8881 38.8218C42.6979 38.5198 42.5357 38.2234 42.4015 37.9325C42.189 37.4851 41.9988 37.0992 41.831 36.7748C41.6633 36.4504 41.5011 36.2043 41.3445 36.0366C41.1879 35.8576 41.0201 35.7681 40.8411 35.7681C40.7404 35.7681 40.6062 35.8296 40.4384 35.9527C40.2706 36.0645 40.0749 36.2547 39.8512 36.5231C39.6387 36.7916 39.387 37.1607 39.0961 37.6305C38.8053 38.1115 38.5481 38.5198 38.3243 38.8554C38.1006 39.1909 37.8881 39.4706 37.6868 39.6943C37.4854 39.9068 37.2841 40.0746 37.0827 40.1976C36.8814 40.3207 36.6633 40.4102 36.4284 40.4661C36.1935 40.5108 35.9194 40.5332 35.6062 40.5332H35.4888ZM44.3982 39.7782C44.0067 40.2256 43.5536 40.5332 43.0391 40.701C42.5357 40.8688 42.01 40.9359 41.4619 40.9023C40.925 40.8688 40.3993 40.7625 39.8847 40.5835C39.3814 40.4046 38.9228 40.1809 38.5089 39.9124C38.1062 39.6439 37.7874 39.3643 37.5525 39.0735L38.9116 37.4795C39.057 37.6026 39.2807 37.7424 39.5827 37.899C39.8959 38.0556 40.2595 38.201 40.6733 38.3352C41.0984 38.4583 41.5514 38.5422 42.0324 38.5869C42.5134 38.6205 42.9999 38.5813 43.4921 38.4694L44.3982 39.7782ZM35.4888 37.899H35.6566V40.5332H35.4888C35.1532 40.5332 34.9854 40.097 34.9854 39.2245C34.9854 38.3408 35.1532 37.899 35.4888 37.899ZM46.6471 40.5332V37.899H48.2746V28.1171H50.976V40.5332H46.6471ZM46.6471 37.899H46.8149V40.5332H46.6471C46.3116 40.5332 46.1438 40.097 46.1438 39.2245C46.1438 38.3408 46.3116 37.899 46.6471 37.899ZM53.2939 28.1171H55.9952V40.5332H53.2939V28.1171ZM66.9879 40.2815C66.1714 40.2815 65.4499 40.1641 64.8235 39.9292C64.1971 39.6943 63.7049 39.3531 63.347 38.9057C63.0002 38.4583 62.8269 37.9213 62.8269 37.295C62.8269 36.7133 62.9779 36.1876 63.2799 35.7178C63.5931 35.248 64.0237 34.8229 64.5718 34.4426C65.1311 34.0511 65.7855 33.6876 66.5349 33.352C67.2955 33.0052 68.1177 32.6697 69.0013 32.3453L69.404 34.9963C68.6546 35.1753 68.0282 35.3654 67.5248 35.5668C67.0327 35.7569 66.6412 35.9527 66.3503 36.154C66.0595 36.3442 65.847 36.5287 65.7128 36.7077C65.5897 36.8755 65.5282 37.0209 65.5282 37.1439C65.5282 37.2894 65.6233 37.4124 65.8134 37.5131C66.0036 37.6026 66.3615 37.6473 66.8873 37.6473C66.9991 37.6473 67.1613 37.6417 67.3738 37.6305C67.5864 37.6193 67.8324 37.597 68.1121 37.5634C68.3917 37.5187 68.6881 37.4571 69.0013 37.3788L69.6221 39.5936C69.1747 39.8061 68.7497 39.9739 68.347 40.097C67.9555 40.22 67.5025 40.2815 66.9879 40.2815ZM71.0819 40.5332C70.366 40.5332 69.7899 40.4381 69.3537 40.248C68.9286 40.0466 68.6043 39.7949 68.3805 39.4929C68.168 39.1797 68.0226 38.8442 67.9443 38.4862C67.8772 38.1283 67.8436 37.7927 67.8436 37.4795V31.5735H70.545V36.7245C70.545 37.1607 70.6568 37.4683 70.8805 37.6473C71.1154 37.8151 71.4902 37.899 72.0047 37.899H72.5584V40.5332H71.0819ZM65.7295 30.6339L63.9678 28.8554L65.6289 27.0601L67.3906 28.8554L65.7295 30.6339ZM68.6826 30.6339L66.9208 28.8554L68.5987 27.0601L70.3604 28.8554L68.6826 30.6339ZM72.5522 40.5332V37.899H74.8844C74.9292 37.7088 74.9683 37.4516 75.0019 37.1272C75.0354 36.8028 75.0634 36.4784 75.0858 36.154C75.1081 35.8184 75.1137 35.5388 75.1026 35.3151L78.2569 34.2077C78.0556 35.0243 77.8542 35.7905 77.6529 36.5064C77.4627 37.2111 77.2334 37.8934 76.965 38.5533C76.7077 39.2021 76.3721 39.8621 75.9583 40.5332H72.5522ZM79.4314 40.5332C78.6596 40.5332 78.0052 40.4605 77.4683 40.3151C76.9426 40.1585 76.5008 39.9795 76.1428 39.7782C75.7849 39.5656 75.4773 39.3699 75.22 39.1909L76.6462 37.5299C76.8028 37.6082 76.9873 37.6753 77.1999 37.7312C77.4124 37.7871 77.6473 37.8319 77.9046 37.8654C78.1618 37.8878 78.4303 37.899 78.7099 37.899H79.4314V40.5332ZM72.5522 37.899H72.72V40.5332H72.5522C72.2167 40.5332 72.0489 40.097 72.0489 39.2245C72.0489 38.3408 72.2167 37.899 72.5522 37.899ZM74.4818 45.0466L72.72 43.2513L74.3811 41.4728L76.1428 43.2513L74.4818 45.0466ZM77.4348 45.0466L75.673 43.2513L77.3509 41.4728L79.1126 43.2513L77.4348 45.0466ZM79.434 40.5332V37.899H81.7662C81.811 37.7088 81.8501 37.4516 81.8837 37.1272C81.9172 36.8028 81.9452 36.4784 81.9676 36.154C81.99 35.8184 81.9955 35.5388 81.9844 35.3151L85.1387 34.2077C84.9374 35.0243 84.736 35.7905 84.5347 36.5064C84.3445 37.2111 84.1152 37.8934 83.8468 38.5533C83.5895 39.2021 83.2539 39.8621 82.8401 40.5332H79.434ZM86.3132 40.5332C85.5414 40.5332 84.887 40.4605 84.3501 40.3151C83.8244 40.1585 83.3826 39.9795 83.0246 39.7782C82.6667 39.5656 82.3591 39.3699 82.1018 39.1909L83.528 37.5299C83.6846 37.6082 83.8691 37.6753 84.0817 37.7312C84.2942 37.7871 84.5291 37.8319 84.7864 37.8654C85.0436 37.8878 85.3121 37.899 85.5917 37.899H86.3132V40.5332ZM79.434 37.899H79.6018V40.5332H79.434C79.0985 40.5332 78.9307 40.097 78.9307 39.2245C78.9307 38.3408 79.0985 37.899 79.434 37.899ZM83.6287 33.2346L81.8501 31.456L83.5448 29.6607L85.3065 31.456L83.6287 33.2346ZM86.3158 40.5332V37.899H88.7319C88.6984 37.9102 88.6536 37.9269 88.5977 37.9493C88.553 37.9717 88.497 37.9941 88.4299 38.0164C88.374 38.0276 88.3181 38.0388 88.2621 38.05C88.0161 37.7256 87.8483 37.3956 87.7588 37.0601C87.6693 36.7245 87.6246 36.3833 87.6246 36.0366C87.6246 35.578 87.7085 35.1361 87.8762 34.7111C88.044 34.286 88.2957 33.9001 88.6313 33.5533C88.9668 33.2066 89.3807 32.9325 89.8729 32.7312C90.3762 32.5299 90.9523 32.4292 91.6011 32.4292C92.261 32.4292 92.8371 32.5299 93.3293 32.7312C93.8326 32.9325 94.2521 33.2066 94.5876 33.5533C94.9232 33.9001 95.1749 34.286 95.3427 34.7111C95.5216 35.1361 95.6111 35.578 95.6111 36.0366C95.6111 36.3945 95.5608 36.7413 95.4601 37.0768C95.3706 37.4012 95.2029 37.7256 94.9568 38.05C94.8561 38.0276 94.8002 38.0052 94.789 37.9829C94.7778 37.9605 94.7219 37.9325 94.6212 37.899H96.5843V40.5332H96.1648C95.3706 40.5332 94.7107 40.5276 94.185 40.5164C93.6592 40.4941 93.2062 40.4549 92.8259 40.399C92.4568 40.343 92.0932 40.248 91.7353 40.1137C91.5675 40.1697 91.4053 40.2256 91.2487 40.2815C91.0921 40.3263 90.902 40.371 90.6783 40.4158C90.4657 40.4493 90.1805 40.4773 89.8225 40.4996C89.4758 40.522 89.0172 40.5332 88.4467 40.5332H86.3158ZM91.6011 38.0332C91.8695 37.9102 92.0932 37.7592 92.2722 37.5802C92.4512 37.4012 92.5854 37.1999 92.6749 36.9762C92.7644 36.7524 92.8091 36.5175 92.8091 36.2715C92.8091 36.0477 92.7588 35.8464 92.6581 35.6674C92.5686 35.4885 92.4344 35.3431 92.2554 35.2312C92.0765 35.1193 91.8583 35.0634 91.6011 35.0634C91.355 35.0634 91.1425 35.1193 90.9635 35.2312C90.7845 35.3431 90.6447 35.4941 90.544 35.6842C90.4545 35.8632 90.4098 36.0589 90.4098 36.2715C90.4098 36.5175 90.4545 36.7524 90.544 36.9762C90.6335 37.1887 90.7677 37.3844 90.9467 37.5634C91.1257 37.7424 91.3438 37.899 91.6011 38.0332ZM86.3158 37.899H86.4836V40.5332H86.3158C85.9803 40.5332 85.8125 40.097 85.8125 39.2245C85.8125 38.3408 85.9803 37.899 86.3158 37.899ZM90.1749 31.0198L88.4132 29.2413L90.0742 27.446L91.836 29.2413L90.1749 31.0198ZM93.1279 31.0198L91.3662 29.2413L93.044 27.446L94.8058 29.2413L93.1279 31.0198ZM96.5894 40.5332V37.899H99.3075C99.3523 37.7088 99.3914 37.4516 99.425 37.1272C99.4585 36.8028 99.4865 36.4784 99.5089 36.154C99.5312 35.8184 99.5368 35.5388 99.5256 35.3151L102.68 34.2077C102.479 35.0243 102.277 35.7905 102.076 36.5064C101.886 37.2111 101.657 37.8934 101.388 38.5533C101.131 39.2021 100.795 39.8621 100.381 40.5332H96.5894ZM103.636 40.5332C102.865 40.5332 102.21 40.4605 101.673 40.3151C101.136 40.1585 100.689 39.9795 100.331 39.7782C99.9843 39.5656 99.6822 39.3699 99.425 39.1909L100.818 37.5299C100.985 37.6082 101.176 37.6753 101.388 37.7312C101.601 37.7871 101.835 37.8319 102.093 37.8654C102.35 37.8878 102.624 37.899 102.915 37.899H104.006V40.5332H103.636ZM96.5894 37.899H96.7572V40.5332H96.5894C96.2538 40.5332 96.086 40.097 96.086 39.2245C96.086 38.3408 96.2538 37.899 96.5894 37.899ZM99.6766 33.2346L97.9149 31.456L99.576 29.6607L101.338 31.456L99.6766 33.2346ZM102.63 33.2346L100.868 31.456L102.546 29.6607L104.308 31.456L102.63 33.2346ZM107.837 37.899H109.851V40.5332H107.837V37.899ZM104.012 40.5332V37.899H105.639V28.1171H108.341V40.5332H104.012ZM104.012 37.899H104.18V40.5332H104.012C103.676 40.5332 103.509 40.097 103.509 39.2245C103.509 38.3408 103.676 37.899 104.012 37.899ZM109.845 40.5332V37.899H111.473V28.1171H114.174V40.5332H109.845ZM109.845 37.899H110.013V40.5332H109.845C109.509 40.5332 109.342 40.097 109.342 39.2245C109.342 38.3408 109.509 37.899 109.845 37.899ZM125.172 40.2815C124.355 40.2815 123.634 40.1641 123.008 39.9292C122.381 39.6943 121.889 39.3531 121.531 38.9057C121.184 38.4583 121.011 37.9213 121.011 37.295C121.011 36.7133 121.162 36.1876 121.464 35.7178C121.777 35.248 122.208 34.8229 122.756 34.4426C123.315 34.0511 123.97 33.6876 124.719 33.352C125.48 33.0052 126.302 32.6697 127.185 32.3453L127.588 34.9963C126.839 35.1753 126.212 35.3654 125.709 35.5668C125.217 35.7569 124.825 35.9527 124.534 36.154C124.244 36.3442 124.031 36.5287 123.897 36.7077C123.774 36.8755 123.712 37.0209 123.712 37.1439C123.712 37.2894 123.807 37.4124 123.997 37.5131C124.188 37.6026 124.546 37.6473 125.071 37.6473C125.183 37.6473 125.345 37.6417 125.558 37.6305C125.77 37.6193 126.016 37.597 126.296 37.5634C126.576 37.5187 126.872 37.4571 127.185 37.3788L127.806 39.5936C127.359 39.8061 126.934 39.9739 126.531 40.097C126.14 40.22 125.687 40.2815 125.172 40.2815ZM129.266 40.5332C128.55 40.5332 127.974 40.4381 127.538 40.248C127.113 40.0466 126.788 39.7949 126.565 39.4929C126.352 39.1797 126.207 38.8442 126.128 38.4862C126.061 38.1283 126.028 37.7927 126.028 37.4795V31.5735H128.729V36.7245C128.729 37.1607 128.841 37.4683 129.065 37.6473C129.299 37.8151 129.674 37.899 130.189 37.899H130.742V40.5332H129.266ZM123.914 30.6339L122.152 28.8554L123.813 27.0601L125.575 28.8554L123.914 30.6339ZM126.867 30.6339L125.105 28.8554L126.783 27.0601L128.544 28.8554L126.867 30.6339ZM130.736 40.5332V37.899H133.454C133.499 37.7088 133.538 37.4516 133.572 37.1272C133.605 36.8028 133.633 36.4784 133.656 36.154C133.678 35.8184 133.684 35.5388 133.673 35.3151L136.827 34.2077C136.626 35.0243 136.424 35.7905 136.223 36.5064C136.033 37.2111 135.803 37.8934 135.535 38.5533C135.278 39.2021 134.942 39.8621 134.528 40.5332H130.736ZM137.783 40.5332C137.011 40.5332 136.357 40.4605 135.82 40.3151C135.283 40.1585 134.836 39.9795 134.478 39.7782C134.131 39.5656 133.829 39.3699 133.572 39.1909L134.964 37.5299C135.132 37.6082 135.322 37.6753 135.535 37.7312C135.747 37.7871 135.982 37.8319 136.24 37.8654C136.497 37.8878 136.771 37.899 137.062 37.899H138.152V40.5332H137.783ZM130.736 37.899H130.904V40.5332H130.736C130.401 40.5332 130.233 40.097 130.233 39.2245C130.233 38.3408 130.401 37.899 130.736 37.899ZM133.035 45.0466L131.273 43.2513L132.934 41.4728L134.696 43.2513L133.035 45.0466ZM135.988 45.0466L134.226 43.2513L135.904 41.4728L137.666 43.2513L135.988 45.0466ZM138.159 40.5332V37.899H141.112C141.022 37.5075 140.849 37.0712 140.592 36.5903C140.334 36.1093 140.01 35.6227 139.619 35.1305L142.035 32.6641C142.37 33.3017 142.661 34.0008 142.907 34.7614C143.153 35.522 143.276 36.3777 143.276 37.3285C143.287 38.2681 143.086 39.3363 142.672 40.5332H138.159ZM138.159 37.899H138.327V40.5332H138.159C137.823 40.5332 137.655 40.097 137.655 39.2245C137.655 38.3408 137.823 37.899 138.159 37.899ZM141.011 45.0466L139.233 43.2513L140.927 41.4728L142.689 43.2513L141.011 45.0466ZM146.066 44.8285C145.562 44.8285 145.003 44.7166 144.388 44.4929C143.784 44.2692 143.236 43.9504 142.744 43.5366L143.583 41.8419C144.03 41.9762 144.405 42.0656 144.707 42.1104C145.009 42.1663 145.294 42.1943 145.562 42.1943C146.166 42.1943 146.698 42.0768 147.156 41.8419C147.626 41.6182 147.99 41.3106 148.247 40.9191C148.515 40.5276 148.65 40.1026 148.65 39.6439C148.65 39.2636 148.588 38.9448 148.465 38.6876C148.353 38.4191 148.202 38.1674 148.012 37.9325C147.833 37.6865 147.637 37.4068 147.425 37.0936L151.032 38.8386C151.032 38.9728 151.032 39.107 151.032 39.2413C151.032 39.3755 151.032 39.5097 151.032 39.6439C151.032 39.9795 150.976 40.371 150.864 40.8184C150.764 41.2659 150.596 41.7189 150.361 42.1775C150.126 42.6473 149.813 43.0835 149.422 43.4862C149.041 43.8889 148.571 44.2133 148.012 44.4594C147.464 44.7055 146.815 44.8285 146.066 44.8285ZM152.358 40.5332C151.955 40.5332 151.575 40.4996 151.217 40.4325C150.87 40.3542 150.54 40.2368 150.227 40.0802C149.925 39.9236 149.634 39.7222 149.354 39.4762C149.086 39.2301 148.817 38.9337 148.549 38.5869L146.368 35.7849L148.515 33.1507L150.63 36.8419C150.786 37.1104 150.932 37.3229 151.066 37.4795C151.2 37.6361 151.362 37.748 151.552 37.8151C151.754 37.871 152.022 37.899 152.358 37.899H152.526V40.5332H152.358ZM162.646 40.5332C162.02 40.5332 161.455 40.5332 160.951 40.5332C160.448 40.522 159.978 40.4885 159.542 40.4325C159.117 40.3766 158.709 40.2871 158.317 40.1641C157.926 40.0298 157.529 39.8397 157.126 39.5936C156.734 39.3475 156.315 39.0231 155.868 38.6205L153.854 36.7916V33.5198C154.234 33.352 154.676 33.2066 155.18 33.0835C155.694 32.9493 156.214 32.8431 156.74 32.7648C157.266 32.6865 157.736 32.6473 158.149 32.6473C158.877 32.6473 159.536 32.7424 160.129 32.9325C160.722 33.1227 161.192 33.4135 161.539 33.805C161.897 34.1965 162.076 34.6999 162.076 35.3151C162.076 35.6395 162.031 35.9583 161.941 36.2715C161.852 36.5735 161.729 36.8699 161.572 37.1607C161.427 37.4404 161.259 37.7032 161.069 37.9493C161.136 37.9269 161.203 37.9158 161.27 37.9158C161.337 37.9046 161.399 37.899 161.455 37.899H163.066V40.5332H162.646ZM152.529 40.5332V37.899H154.676C155.012 37.899 155.286 37.8934 155.498 37.8822C155.722 37.8598 155.94 37.8319 156.153 37.7983C156.377 37.7536 156.656 37.7032 156.992 37.6473L158.233 39.9963C157.663 40.1641 157.009 40.2983 156.27 40.399C155.543 40.4885 154.799 40.5332 154.039 40.5332H152.529ZM158.149 37.7815C158.384 37.5802 158.591 37.3788 158.77 37.1775C158.96 36.9762 159.106 36.7748 159.207 36.5735C159.318 36.3721 159.374 36.182 159.374 36.003C159.374 35.9023 159.335 35.7961 159.257 35.6842C159.179 35.5612 159.05 35.4605 158.871 35.3822C158.692 35.3039 158.451 35.2648 158.149 35.2648C157.87 35.2648 157.523 35.2871 157.109 35.3319C156.695 35.3654 156.326 35.4269 156.002 35.5164L157.545 37.1439C157.668 37.2558 157.775 37.3677 157.864 37.4795C157.965 37.5914 158.06 37.692 158.149 37.7815ZM152.529 37.899H152.696V40.5332H152.529C152.193 40.5332 152.025 40.097 152.025 39.2245C152.025 38.3408 152.193 37.899 152.529 37.899ZM163.064 40.5332V37.899H164.692V28.1171H167.393V40.5332H163.064ZM163.064 37.899H163.232V40.5332H163.064C162.729 40.5332 162.561 40.097 162.561 39.2245C162.561 38.3408 162.729 37.899 163.064 37.899ZM169.711 28.1171H172.413V40.5332H169.711V28.1171Z" fill="#435363"/>
<path d="M8.03682 59.625L11.261 51.2968H12.5698L15.7702 59.625H14.402L12.4984 54.6043C12.4746 54.5487 12.427 54.4139 12.3556 54.1997C12.2922 53.9856 12.2168 53.7476 12.1296 53.4859C12.0423 53.2242 11.963 52.9862 11.8916 52.772C11.8202 52.55 11.7726 52.4072 11.7488 52.3437L12.0225 52.3318C11.9749 52.4667 11.9154 52.6372 11.844 52.8434C11.7806 53.0497 11.7092 53.2678 11.6299 53.4978C11.5585 53.7278 11.4871 53.9459 11.4157 54.1522C11.3443 54.3504 11.2848 54.517 11.2372 54.6519L9.34554 59.625H8.03682ZM9.46452 57.5548L9.94041 56.3175H13.7238L14.2711 57.5548H9.46452ZM17.6418 59.625V51.7846H18.8672V59.625H17.6418ZM16.345 54.5686V53.3788H20.3187V54.5686H16.345ZM25.9332 62.2424V58.1378H26.1712C26.1712 58.3282 26.1077 58.5185 25.9808 58.7089C25.8539 58.8913 25.6834 59.0619 25.4692 59.2205C25.2551 59.3791 25.0171 59.506 24.7554 59.6012C24.4936 59.6964 24.224 59.744 23.9464 59.744C23.3832 59.744 22.8796 59.6052 22.4354 59.3276C21.9912 59.042 21.6382 58.6573 21.3765 58.1735C21.1227 57.6817 20.9958 57.1226 20.9958 56.496C20.9958 55.8694 21.1227 55.3141 21.3765 54.8303C21.6303 54.3386 21.9753 53.9539 22.4116 53.6763C22.8558 53.3907 23.3554 53.2479 23.9107 53.2479C24.22 53.2479 24.5135 53.2995 24.7911 53.4026C25.0766 53.5057 25.3304 53.6406 25.5525 53.8071C25.7825 53.9737 25.961 54.1601 26.0879 54.3663C26.2227 54.5646 26.2902 54.7669 26.2902 54.9731L25.9332 54.9969V53.3669H27.1587V62.2424H25.9332ZM24.0772 58.6137C24.45 58.6137 24.7792 58.5225 25.0647 58.3401C25.3503 58.1576 25.5723 57.9078 25.731 57.5905C25.8975 57.2733 25.9808 56.9084 25.9808 56.496C25.9808 56.0835 25.8975 55.7187 25.731 55.4014C25.5723 55.0762 25.3503 54.8224 25.0647 54.64C24.7792 54.4575 24.45 54.3663 24.0772 54.3663C23.7044 54.3663 23.3753 54.4615 23.0897 54.6519C22.8042 54.8343 22.5781 55.0881 22.4116 55.4133C22.2529 55.7306 22.1736 56.0914 22.1736 56.496C22.1736 56.9005 22.2529 57.2653 22.4116 57.5905C22.5781 57.9078 22.8042 58.1576 23.0897 58.3401C23.3753 58.5225 23.7044 58.6137 24.0772 58.6137ZM32.5706 59.625V55.5561C32.5706 55.2071 32.4437 54.9255 32.1899 54.7113C31.944 54.4893 31.6307 54.3782 31.25 54.3782C30.901 54.3782 30.5838 54.4496 30.2982 54.5924C30.0206 54.7351 29.7668 54.9533 29.5368 55.2467L28.7397 54.4496C29.1124 54.0451 29.513 53.7437 29.9413 53.5454C30.3775 53.3471 30.8455 53.2479 31.3452 53.2479C31.8211 53.2479 32.2335 53.3273 32.5825 53.4859C32.9315 53.6445 33.2012 53.8785 33.3916 54.1878C33.5819 54.4893 33.6771 54.8581 33.6771 55.2943V59.625H32.5706ZM30.7027 59.744C30.2982 59.744 29.9373 59.6647 29.6201 59.506C29.3028 59.3474 29.049 59.1293 28.8586 58.8517C28.6762 58.5661 28.585 58.233 28.585 57.8523C28.585 57.5191 28.6445 57.2257 28.7634 56.9719C28.8824 56.718 29.0569 56.5079 29.2869 56.3413C29.5249 56.1747 29.8184 56.0478 30.1673 55.9606C30.5243 55.8733 30.9328 55.8297 31.3928 55.8297H33.1298L33.0227 56.8053H31.2381C31.0002 56.8053 30.786 56.8291 30.5957 56.8767C30.4132 56.9163 30.2546 56.9838 30.1198 57.0789C29.9929 57.1662 29.8977 57.2733 29.8342 57.4002C29.7708 57.5191 29.739 57.6619 29.739 57.8285C29.739 58.003 29.7827 58.1576 29.8699 58.2925C29.9572 58.4194 30.0761 58.5185 30.2268 58.5899C30.3775 58.6613 30.552 58.697 30.7503 58.697C31.0359 58.697 31.3055 58.6494 31.5594 58.5542C31.8211 58.4511 32.0511 58.3123 32.2494 58.1378C32.4556 57.9633 32.6143 57.769 32.7253 57.5548L33.0108 58.352C32.8443 58.6296 32.6381 58.8715 32.3922 59.0777C32.1463 59.2839 31.8806 59.4465 31.595 59.5655C31.3095 59.6845 31.0121 59.744 30.7027 59.744ZM35.2259 59.625V53.3788H36.4514V54.6637L36.2372 54.8065C36.3165 54.5289 36.4712 54.2751 36.7012 54.0451C36.9312 53.8071 37.2049 53.6168 37.5221 53.474C37.8394 53.3233 38.1646 53.2479 38.4977 53.2479C38.9736 53.2479 39.3702 53.3431 39.6875 53.5335C40.0047 53.7159 40.2427 53.9975 40.4013 54.3782C40.56 54.7589 40.6393 55.2388 40.6393 55.8178V59.625H39.4138V55.9011C39.4138 55.5442 39.3662 55.2507 39.2711 55.0207C39.1759 54.7827 39.0291 54.6122 38.8309 54.5091C38.6326 54.398 38.3867 54.3504 38.0932 54.3663C37.8553 54.3663 37.6371 54.406 37.4389 54.4853C37.2406 54.5567 37.0661 54.6598 36.9154 54.7946C36.7726 54.9295 36.6576 55.0881 36.5703 55.2705C36.491 55.445 36.4514 55.6354 36.4514 55.8416V59.625H35.8446C35.7415 59.625 35.6384 59.625 35.5353 59.625C35.4321 59.625 35.329 59.625 35.2259 59.625ZM49.6695 59.744C49.0667 59.744 48.5035 59.6369 47.98 59.4227C47.4565 59.2007 46.9965 58.8953 46.5999 58.5066C46.2033 58.118 45.894 57.6659 45.6719 57.1503C45.4578 56.6268 45.3507 56.0637 45.3507 55.4609C45.3507 54.866 45.4578 54.3108 45.6719 53.7952C45.894 53.2797 46.1994 52.8315 46.588 52.4508C46.9846 52.0622 47.4446 51.7608 47.9681 51.5466C48.4916 51.3325 49.0548 51.2254 49.6576 51.2254C50.0779 51.2254 50.4864 51.2849 50.883 51.4038C51.2875 51.5228 51.6524 51.6894 51.9776 51.9035C52.3028 52.1177 52.5685 52.3636 52.7747 52.6412L51.9419 53.5097C51.585 53.1686 51.2122 52.9109 50.8235 52.7364C50.4428 52.5619 50.0542 52.4746 49.6576 52.4746C49.2293 52.4746 48.8327 52.55 48.4678 52.7007C48.1109 52.8514 47.7936 53.0616 47.516 53.3312C47.2463 53.6009 47.0362 53.9182 46.8855 54.283C46.7348 54.64 46.6594 55.0326 46.6594 55.4609C46.6594 55.8733 46.7387 56.2659 46.8974 56.6387C47.056 57.0036 47.2741 57.3248 47.5517 57.6024C47.8373 57.88 48.1625 58.0982 48.5273 58.2568C48.9001 58.4154 49.2927 58.4947 49.7052 58.4947C50.0145 58.4947 50.308 58.4511 50.5856 58.3639C50.8632 58.2687 51.1091 58.1378 51.3232 57.9712C51.5374 57.8047 51.7039 57.6143 51.8229 57.4002C51.9419 57.1781 52.0014 56.9441 52.0014 56.6982V56.4603L52.1798 56.6268H49.6338V55.3538H53.322C53.3379 55.4411 53.3498 55.5283 53.3577 55.6155C53.3656 55.6949 53.3696 55.7742 53.3696 55.8535C53.3775 55.9249 53.3815 55.9963 53.3815 56.0677C53.3815 56.6149 53.2863 57.1146 53.0959 57.5667C52.9056 58.0109 52.6399 58.3956 52.2988 58.7208C51.9657 59.046 51.5731 59.2998 51.121 59.4822C50.6768 59.6567 50.193 59.744 49.6695 59.744ZM56.9344 59.744C56.4902 59.744 56.1015 59.6409 55.7684 59.4346C55.4432 59.2284 55.1894 58.9389 55.007 58.5661C54.8325 58.1933 54.7452 57.7492 54.7452 57.2336V53.3788H55.9707V56.9005C55.9707 57.4478 56.0976 57.88 56.3514 58.1973C56.6131 58.5146 56.974 58.6732 57.4341 58.6732C57.6641 58.6732 57.8743 58.6375 58.0646 58.5661C58.255 58.4868 58.4176 58.3797 58.5524 58.2449C58.6952 58.1101 58.8062 57.9475 58.8856 57.7571C58.9649 57.5667 59.0045 57.3605 59.0045 57.1384V53.3788H60.23V59.625H59.0045V58.3163L59.2187 58.1735C59.1235 58.467 58.9609 58.7327 58.7309 58.9706C58.5088 59.2086 58.2431 59.3989 57.9338 59.5417C57.6244 59.6766 57.2913 59.744 56.9344 59.744ZM61.9726 59.625V50.8209H63.198V59.625H61.9726ZM65.6129 59.625V52.6769C65.6129 52.3199 65.6923 52.0027 65.8509 51.7251C66.0095 51.4475 66.2276 51.2293 66.5052 51.0707C66.7829 50.9121 67.1041 50.8328 67.4689 50.8328C67.7228 50.8328 67.9607 50.8803 68.1828 50.9755C68.4049 51.0707 68.5833 51.1976 68.7182 51.3562L68.3018 52.2961C68.1987 52.201 68.0836 52.1256 67.9567 52.0701C67.8378 52.0066 67.7228 51.9749 67.6117 51.9749C67.4451 51.9749 67.3024 52.0027 67.1834 52.0582C67.0724 52.1058 66.9891 52.1851 66.9336 52.2961C66.878 52.3993 66.8503 52.5262 66.8503 52.6769V59.625H66.2316C66.1285 59.625 66.0254 59.625 65.9223 59.625C65.8192 59.625 65.716 59.625 65.6129 59.625ZM64.6135 54.6162V53.4859H68.3256V54.6162H64.6135ZM72.3808 59.625L75.6051 51.2968H76.9138L80.1142 59.625H78.746L76.8424 54.6043C76.8186 54.5487 76.771 54.4139 76.6996 54.1997C76.6362 53.9856 76.5608 53.7476 76.4736 53.4859C76.3863 53.2242 76.307 52.9862 76.2356 52.772C76.1642 52.55 76.1166 52.4072 76.0928 52.3437L76.3665 52.3318C76.3189 52.4667 76.2594 52.6372 76.188 52.8434C76.1246 53.0497 76.0532 53.2678 75.9739 53.4978C75.9025 53.7278 75.8311 53.9459 75.7597 54.1522C75.6883 54.3504 75.6288 54.517 75.5813 54.6519L73.6896 59.625H72.3808ZM73.8085 57.5548L74.2844 56.3175H78.0678L78.6151 57.5548H73.8085ZM81.2706 59.625V53.3788H82.5079V55.3419L82.3889 54.866C82.4762 54.5646 82.6229 54.291 82.8292 54.0451C83.0433 53.7992 83.2852 53.6049 83.5549 53.4621C83.8325 53.3193 84.118 53.2479 84.4115 53.2479C84.5464 53.2479 84.6733 53.2598 84.7922 53.2836C84.9191 53.3074 85.0183 53.3352 85.0897 53.3669L84.7684 54.6994C84.6733 54.6598 84.5662 54.6281 84.4472 54.6043C84.3362 54.5725 84.2251 54.5567 84.1141 54.5567C83.8999 54.5567 83.6937 54.6003 83.4954 54.6875C83.3051 54.7669 83.1345 54.8819 82.9838 55.0326C82.8411 55.1753 82.726 55.3459 82.6388 55.5442C82.5515 55.7345 82.5079 55.9447 82.5079 56.1747V59.625H81.2706ZM89.502 59.625V55.5561C89.502 55.2071 89.3751 54.9255 89.1212 54.7113C88.8754 54.4893 88.5621 54.3782 88.1813 54.3782C87.8324 54.3782 87.5151 54.4496 87.2295 54.5924C86.9519 54.7351 86.6981 54.9533 86.4681 55.2467L85.671 54.4496C86.0438 54.0451 86.4443 53.7437 86.8726 53.5454C87.3089 53.3471 87.7768 53.2479 88.2765 53.2479C88.7524 53.2479 89.1649 53.3273 89.5139 53.4859C89.8629 53.6445 90.1325 53.8785 90.3229 54.1878C90.5133 54.4893 90.6084 54.8581 90.6084 55.2943V59.625H89.502ZM87.6341 59.744C87.2295 59.744 86.8687 59.6647 86.5514 59.506C86.2341 59.3474 85.9803 59.1293 85.79 58.8517C85.6075 58.5661 85.5163 58.233 85.5163 57.8523C85.5163 57.5191 85.5758 57.2257 85.6948 56.9719C85.8137 56.718 85.9882 56.5079 86.2183 56.3413C86.4562 56.1747 86.7497 56.0478 87.0987 55.9606C87.4556 55.8733 87.8641 55.8297 88.3241 55.8297H90.0611L89.9541 56.8053H88.1694C87.9315 56.8053 87.7173 56.8291 87.527 56.8767C87.3446 56.9163 87.1859 56.9838 87.0511 57.0789C86.9242 57.1662 86.829 57.2733 86.7655 57.4002C86.7021 57.5191 86.6704 57.6619 86.6704 57.8285C86.6704 58.003 86.714 58.1576 86.8012 58.2925C86.8885 58.4194 87.0075 58.5185 87.1582 58.5899C87.3089 58.6613 87.4834 58.697 87.6817 58.697C87.9672 58.697 88.2369 58.6494 88.4907 58.5542C88.7524 58.4511 88.9824 58.3123 89.1807 58.1378C89.387 57.9633 89.5456 57.769 89.6566 57.5548L89.9422 58.352C89.7756 58.6296 89.5694 58.8715 89.3235 59.0777C89.0776 59.2839 88.8119 59.4465 88.5264 59.5655C88.2408 59.6845 87.9434 59.744 87.6341 59.744ZM95.441 59.744C95.1713 59.744 94.9016 59.7004 94.6319 59.6131C94.3702 59.5259 94.1283 59.4108 93.9062 59.2681C93.692 59.1174 93.5096 58.9548 93.3589 58.7803C93.2161 58.5979 93.1209 58.4154 93.0734 58.233L93.3827 58.0664V59.5893H92.1572V50.8209H93.3827V54.8065L93.1923 54.6994C93.232 54.517 93.3192 54.3425 93.4541 54.176C93.5889 54.0015 93.7594 53.8468 93.9657 53.7119C94.1798 53.5692 94.4098 53.4581 94.6557 53.3788C94.9016 53.2916 95.1514 53.2479 95.4053 53.2479C95.9684 53.2479 96.4681 53.3868 96.9043 53.6644C97.3406 53.942 97.6856 54.3267 97.9394 54.8184C98.1932 55.3022 98.3201 55.8575 98.3201 56.4841C98.3201 57.1107 98.1932 57.6698 97.9394 58.1616C97.6935 58.6534 97.3525 59.042 96.9162 59.3276C96.48 59.6052 95.9882 59.744 95.441 59.744ZM95.2387 58.6256C95.6036 58.6256 95.9288 58.5344 96.2143 58.352C96.4998 58.1616 96.7259 57.9078 96.8924 57.5905C97.059 57.2653 97.1423 56.8965 97.1423 56.4841C97.1423 56.0795 97.059 55.7187 96.8924 55.4014C96.7338 55.0762 96.5117 54.8224 96.2262 54.64C95.9406 54.4575 95.6115 54.3663 95.2387 54.3663C94.8659 54.3663 94.5367 54.4575 94.2512 54.64C93.9657 54.8224 93.7396 55.0762 93.573 55.4014C93.4065 55.7187 93.3232 56.0795 93.3232 56.4841C93.3232 56.8965 93.4065 57.2653 93.573 57.5905C93.7396 57.9078 93.9657 58.1616 94.2512 58.352C94.5367 58.5344 94.8659 58.6256 95.2387 58.6256ZM106.674 59.744C106.095 59.744 105.564 59.6409 105.08 59.4346C104.596 59.2284 104.176 58.9349 103.819 58.5542C103.462 58.1656 103.184 57.7095 102.986 57.186C102.795 56.6625 102.7 56.0875 102.7 55.4609C102.7 54.866 102.803 54.3148 103.01 53.8071C103.224 53.2916 103.517 52.8395 103.89 52.4508C104.263 52.0622 104.695 51.7608 105.187 51.5466C105.679 51.3325 106.21 51.2254 106.781 51.2254C107.186 51.2254 107.578 51.2888 107.959 51.4157C108.348 51.5347 108.697 51.7052 109.006 51.9273C109.323 52.1415 109.581 52.3874 109.779 52.665L108.923 53.5573C108.582 53.2083 108.233 52.9465 107.876 52.772C107.519 52.5976 107.154 52.5103 106.781 52.5103C106.392 52.5103 106.028 52.5857 105.687 52.7364C105.353 52.8791 105.06 53.0814 104.806 53.3431C104.56 53.6049 104.366 53.9182 104.223 54.283C104.08 54.64 104.009 55.0326 104.009 55.4609C104.009 55.913 104.076 56.3254 104.211 56.6982C104.354 57.0631 104.552 57.3764 104.806 57.6381C105.06 57.8999 105.361 58.1021 105.71 58.2449C106.067 58.3797 106.46 58.4471 106.888 58.4471C107.15 58.4471 107.408 58.4115 107.662 58.3401C107.915 58.2687 108.153 58.1656 108.375 58.0307C108.597 57.8959 108.8 57.7373 108.982 57.5548L109.625 58.6018C109.442 58.816 109.192 59.0103 108.875 59.1848C108.566 59.3593 108.217 59.4981 107.828 59.6012C107.447 59.6964 107.063 59.744 106.674 59.744ZM113.869 59.744C113.258 59.744 112.711 59.6052 112.227 59.3276C111.751 59.042 111.374 58.6573 111.096 58.1735C110.819 57.6817 110.68 57.1226 110.68 56.496C110.68 55.8694 110.819 55.3141 111.096 54.8303C111.374 54.3386 111.751 53.9539 112.227 53.6763C112.711 53.3907 113.258 53.2479 113.869 53.2479C114.471 53.2479 115.011 53.3907 115.487 53.6763C115.97 53.9539 116.351 54.3386 116.629 54.8303C116.906 55.3141 117.045 55.8694 117.045 56.496C117.045 57.1226 116.906 57.6817 116.629 58.1735C116.351 58.6573 115.97 59.042 115.487 59.3276C115.011 59.6052 114.471 59.744 113.869 59.744ZM113.869 58.6256C114.241 58.6256 114.574 58.5344 114.868 58.352C115.161 58.1616 115.391 57.9078 115.558 57.5905C115.725 57.2653 115.804 56.9005 115.796 56.496C115.804 56.0835 115.725 55.7187 115.558 55.4014C115.391 55.0762 115.161 54.8224 114.868 54.64C114.574 54.4575 114.241 54.3663 113.869 54.3663C113.496 54.3663 113.159 54.4615 112.857 54.6519C112.564 54.8343 112.334 55.0881 112.167 55.4133C112.001 55.7306 111.921 56.0914 111.929 56.496C111.921 56.9005 112.001 57.2653 112.167 57.5905C112.334 57.9078 112.564 58.1616 112.857 58.352C113.159 58.5344 113.496 58.6256 113.869 58.6256ZM118.88 59.7559C118.618 59.7559 118.416 59.6805 118.273 59.5298C118.131 59.3712 118.059 59.1491 118.059 58.8636C118.059 58.6018 118.135 58.3877 118.285 58.2211C118.436 58.0545 118.634 57.9712 118.88 57.9712C119.142 57.9712 119.344 58.0506 119.487 58.2092C119.63 58.3599 119.701 58.578 119.701 58.8636C119.701 59.1253 119.626 59.3395 119.475 59.506C119.324 59.6726 119.126 59.7559 118.88 59.7559ZM124.732 59.625V51.2968H126.016V59.625H124.732ZM125.303 56.0795V54.8422H129.598V56.0795H125.303ZM125.303 52.5341V51.2968H130.133V52.5341H125.303ZM131.782 59.625V53.3788H133.007V59.625H131.782ZM132.376 51.9987C132.115 51.9987 131.912 51.9313 131.77 51.7965C131.627 51.6616 131.555 51.4713 131.555 51.2254C131.555 50.9954 131.627 50.809 131.77 50.6662C131.92 50.5234 132.123 50.452 132.376 50.452C132.638 50.452 132.84 50.5195 132.983 50.6543C133.126 50.7891 133.197 50.9795 133.197 51.2254C133.197 51.4554 133.122 51.6418 132.971 51.7846C132.829 51.9273 132.63 51.9987 132.376 51.9987ZM134.891 59.625V53.3788H136.116V54.6637L135.902 54.8065C135.981 54.5289 136.136 54.2751 136.366 54.0451C136.596 53.8071 136.87 53.6168 137.187 53.474C137.504 53.3233 137.829 53.2479 138.162 53.2479C138.638 53.2479 139.035 53.3431 139.352 53.5335C139.669 53.7159 139.907 53.9975 140.066 54.3782C140.225 54.7589 140.304 55.2388 140.304 55.8178V59.625H139.079V55.9011C139.079 55.5442 139.031 55.2507 138.936 55.0207C138.841 54.7827 138.694 54.6122 138.496 54.5091C138.297 54.398 138.051 54.3504 137.758 54.3663C137.52 54.3663 137.302 54.406 137.104 54.4853C136.905 54.5567 136.731 54.6598 136.58 54.7946C136.437 54.9295 136.322 55.0881 136.235 55.2705C136.156 55.445 136.116 55.6354 136.116 55.8416V59.625H135.509C135.406 59.625 135.303 59.625 135.2 59.625C135.097 59.625 134.994 59.625 134.891 59.625ZM145.666 59.625V55.5561C145.666 55.2071 145.54 54.9255 145.286 54.7113C145.04 54.4893 144.727 54.3782 144.346 54.3782C143.997 54.3782 143.68 54.4496 143.394 54.5924C143.116 54.7351 142.863 54.9533 142.633 55.2467L141.835 54.4496C142.208 54.0451 142.609 53.7437 143.037 53.5454C143.473 53.3471 143.941 53.2479 144.441 53.2479C144.917 53.2479 145.329 53.3273 145.678 53.4859C146.027 53.6445 146.297 53.8785 146.487 54.1878C146.678 54.4893 146.773 54.8581 146.773 55.2943V59.625H145.666ZM143.799 59.744C143.394 59.744 143.033 59.6647 142.716 59.506C142.399 59.3474 142.145 59.1293 141.954 58.8517C141.772 58.5661 141.681 58.233 141.681 57.8523C141.681 57.5191 141.74 57.2257 141.859 56.9719C141.978 56.718 142.153 56.5079 142.383 56.3413C142.621 56.1747 142.914 56.0478 143.263 55.9606C143.62 55.8733 144.029 55.8297 144.489 55.8297H146.226L146.119 56.8053H144.334C144.096 56.8053 143.882 56.8291 143.691 56.8767C143.509 56.9163 143.35 56.9838 143.216 57.0789C143.089 57.1662 142.993 57.2733 142.93 57.4002C142.867 57.5191 142.835 57.6619 142.835 57.8285C142.835 58.003 142.878 58.1576 142.966 58.2925C143.053 58.4194 143.172 58.5185 143.323 58.5899C143.473 58.6613 143.648 58.697 143.846 58.697C144.132 58.697 144.401 58.6494 144.655 58.5542C144.917 58.4511 145.147 58.3123 145.345 58.1378C145.551 57.9633 145.71 57.769 145.821 57.5548L146.107 58.352C145.94 58.6296 145.734 58.8715 145.488 59.0777C145.242 59.2839 144.976 59.4465 144.691 59.5655C144.405 59.6845 144.108 59.744 143.799 59.744ZM148.322 59.625V53.3788H149.547V54.6637L149.333 54.8065C149.412 54.5289 149.567 54.2751 149.797 54.0451C150.027 53.8071 150.301 53.6168 150.618 53.474C150.935 53.3233 151.26 53.2479 151.594 53.2479C152.069 53.2479 152.466 53.3431 152.783 53.5335C153.101 53.7159 153.339 53.9975 153.497 54.3782C153.656 54.7589 153.735 55.2388 153.735 55.8178V59.625H152.51V55.9011C152.51 55.5442 152.462 55.2507 152.367 55.0207C152.272 54.7827 152.125 54.6122 151.927 54.5091C151.728 54.398 151.483 54.3504 151.189 54.3663C150.951 54.3663 150.733 54.406 150.535 54.4853C150.336 54.5567 150.162 54.6598 150.011 54.7946C149.868 54.9295 149.753 55.0881 149.666 55.2705C149.587 55.445 149.547 55.6354 149.547 55.8416V59.625H148.94C148.837 59.625 148.734 59.625 148.631 59.625C148.528 59.625 148.425 59.625 148.322 59.625ZM158.051 59.744C157.472 59.744 156.952 59.6012 156.492 59.3157C156.04 59.0301 155.679 58.6415 155.409 58.1497C155.148 57.6579 155.017 57.1067 155.017 56.496C155.017 55.8852 155.148 55.334 155.409 54.8422C155.679 54.3504 156.04 53.9618 156.492 53.6763C156.952 53.3907 157.472 53.2479 158.051 53.2479C158.606 53.2479 159.11 53.363 159.562 53.593C160.022 53.8151 160.371 54.1204 160.609 54.5091L159.93 55.3419C159.804 55.1595 159.641 54.9929 159.443 54.8422C159.244 54.6915 159.034 54.5725 158.812 54.4853C158.59 54.398 158.376 54.3544 158.17 54.3544C157.789 54.3544 157.448 54.4496 157.146 54.64C156.853 54.8224 156.619 55.0762 156.444 55.4014C156.27 55.7266 156.183 56.0914 156.183 56.496C156.183 56.9005 156.274 57.2653 156.456 57.5905C156.639 57.9078 156.881 58.1616 157.182 58.352C157.484 58.5423 157.817 58.6375 158.182 58.6375C158.396 58.6375 158.602 58.6018 158.8 58.5304C159.006 58.459 159.205 58.352 159.395 58.2092C159.585 58.0664 159.764 57.8919 159.93 57.6857L160.609 58.5185C160.355 58.8755 159.99 59.1689 159.514 59.3989C159.046 59.629 158.558 59.744 158.051 59.744ZM161.967 59.625V53.3788H163.192V59.625H161.967ZM162.562 51.9987C162.3 51.9987 162.098 51.9313 161.955 51.7965C161.812 51.6616 161.741 51.4713 161.741 51.2254C161.741 50.9954 161.812 50.809 161.955 50.6662C162.106 50.5234 162.308 50.452 162.562 50.452C162.823 50.452 163.026 50.5195 163.168 50.6543C163.311 50.7891 163.383 50.9795 163.383 51.2254C163.383 51.4554 163.307 51.6418 163.157 51.7846C163.014 51.9273 162.815 51.9987 162.562 51.9987ZM168.776 59.625V55.5561C168.776 55.2071 168.649 54.9255 168.395 54.7113C168.149 54.4893 167.836 54.3782 167.455 54.3782C167.106 54.3782 166.789 54.4496 166.504 54.5924C166.226 54.7351 165.972 54.9533 165.742 55.2467L164.945 54.4496C165.318 54.0451 165.718 53.7437 166.147 53.5454C166.583 53.3471 167.051 53.2479 167.551 53.2479C168.026 53.2479 168.439 53.3273 168.788 53.4859C169.137 53.6445 169.407 53.8785 169.597 54.1878C169.787 54.4893 169.882 54.8581 169.882 55.2943V59.625H168.776ZM166.908 59.744C166.504 59.744 166.143 59.6647 165.825 59.506C165.508 59.3474 165.254 59.1293 165.064 58.8517C164.882 58.5661 164.79 58.233 164.79 57.8523C164.79 57.5191 164.85 57.2257 164.969 56.9719C165.088 56.718 165.262 56.5079 165.492 56.3413C165.73 56.1747 166.024 56.0478 166.373 55.9606C166.73 55.8733 167.138 55.8297 167.598 55.8297H169.335L169.228 56.8053H167.443C167.205 56.8053 166.991 56.8291 166.801 56.8767C166.619 56.9163 166.46 56.9838 166.325 57.0789C166.198 57.1662 166.103 57.2733 166.04 57.4002C165.976 57.5191 165.944 57.6619 165.944 57.8285C165.944 58.003 165.988 58.1576 166.075 58.2925C166.162 58.4194 166.281 58.5185 166.432 58.5899C166.583 58.6613 166.757 58.697 166.956 58.697C167.241 58.697 167.511 58.6494 167.765 58.5542C168.026 58.4511 168.256 58.3123 168.455 58.1378C168.661 57.9633 168.82 57.769 168.931 57.5548L169.216 58.352C169.05 58.6296 168.843 58.8715 168.597 59.0777C168.352 59.2839 168.086 59.4465 167.8 59.5655C167.515 59.6845 167.217 59.744 166.908 59.744ZM171.455 59.625V50.8209H172.68V59.625H171.455ZM53.5231 74.625V67.5341H51.1912V66.2968H57.2114V67.5341H54.8081V74.625H53.5231ZM60.2162 74.744C59.5738 74.744 59.0027 74.6091 58.503 74.3395C58.0112 74.0619 57.6226 73.6851 57.337 73.2092C57.0594 72.7333 56.9206 72.186 56.9206 71.5673C56.9206 71.0756 56.9999 70.6274 57.1586 70.2229C57.3172 69.8184 57.5353 69.4694 57.8129 69.176C58.0985 68.8745 58.4356 68.6445 58.8242 68.4859C59.2208 68.3193 59.6491 68.2361 60.1091 68.2361C60.5137 68.2361 60.8904 68.3154 61.2394 68.474C61.5884 68.6247 61.8898 68.8349 62.1436 69.1046C62.4054 69.3742 62.6036 69.6955 62.7385 70.0683C62.8813 70.4331 62.9487 70.8337 62.9407 71.2699L62.9288 71.7934H57.8248L57.5512 70.8178H61.87L61.6915 71.0201V70.7345C61.6677 70.4728 61.5805 70.2388 61.4298 70.0326C61.2791 69.8263 61.0887 69.6637 60.8587 69.5448C60.6287 69.4258 60.3788 69.3663 60.1091 69.3663C59.6808 69.3663 59.3199 69.4496 59.0265 69.6162C58.733 69.7748 58.5109 70.0127 58.3602 70.33C58.2095 70.6393 58.1342 71.024 58.1342 71.4841C58.1342 71.9203 58.2254 72.301 58.4078 72.6262C58.5902 72.9435 58.848 73.1894 59.1811 73.3639C59.5143 73.5384 59.899 73.6256 60.3352 73.6256C60.6445 73.6256 60.9301 73.5741 61.1918 73.4709C61.4615 73.3678 61.751 73.1814 62.0603 72.9118L62.679 73.7803C62.4886 73.9706 62.2547 74.1372 61.977 74.28C61.7074 74.4227 61.4179 74.5378 61.1085 74.625C60.8071 74.7043 60.5097 74.744 60.2162 74.744ZM66.9257 74.744C66.3466 74.744 65.8271 74.6012 65.3671 74.3157C64.915 74.0301 64.5541 73.6415 64.2844 73.1497C64.0227 72.6579 63.8918 72.1067 63.8918 71.496C63.8918 70.8852 64.0227 70.334 64.2844 69.8422C64.5541 69.3504 64.915 68.9618 65.3671 68.6763C65.8271 68.3907 66.3466 68.2479 66.9257 68.2479C67.4809 68.2479 67.9845 68.363 68.4366 68.593C68.8967 68.8151 69.2457 69.1204 69.4836 69.5091L68.8055 70.3419C68.6786 70.1595 68.516 69.9929 68.3177 69.8422C68.1194 69.6915 67.9092 69.5725 67.6871 69.4853C67.465 69.398 67.2509 69.3544 67.0446 69.3544C66.6639 69.3544 66.3228 69.4496 66.0214 69.64C65.728 69.8224 65.494 70.0762 65.3195 70.4014C65.145 70.7266 65.0578 71.0914 65.0578 71.496C65.0578 71.9005 65.149 72.2653 65.3314 72.5905C65.5138 72.9078 65.7557 73.1616 66.0571 73.352C66.3585 73.5423 66.6917 73.6375 67.0565 73.6375C67.2707 73.6375 67.4769 73.6018 67.6752 73.5304C67.8814 73.459 68.0797 73.352 68.2701 73.2092C68.4604 73.0664 68.6389 72.8919 68.8055 72.6857L69.4836 73.5185C69.2298 73.8755 68.8649 74.1689 68.389 74.3989C67.9211 74.629 67.4333 74.744 66.9257 74.744ZM70.6395 74.625V65.8209H71.865V69.6637L71.6508 69.8065C71.7301 69.5289 71.8848 69.2751 72.1148 69.0451C72.3448 68.8071 72.6185 68.6168 72.9357 68.474C73.253 68.3233 73.5782 68.2479 73.9113 68.2479C74.3872 68.2479 74.7838 68.3431 75.1011 68.5335C75.4184 68.7159 75.6563 68.9975 75.8149 69.3782C75.9736 69.7589 76.0529 70.2388 76.0529 70.8178V74.625H74.8274V70.9011C74.8274 70.5442 74.7799 70.2507 74.6847 70.0207C74.5895 69.7827 74.4428 69.6122 74.2445 69.5091C74.0462 69.398 73.8003 69.3504 73.5068 69.3663C73.2689 69.3663 73.0508 69.406 72.8525 69.4853C72.6542 69.5567 72.4797 69.6598 72.329 69.7946C72.1862 69.9295 72.0712 70.0881 71.9839 70.2705C71.9046 70.445 71.865 70.6354 71.865 70.8416V74.625H71.2582C71.1551 74.625 71.052 74.625 70.9489 74.625C70.8458 74.625 70.7426 74.625 70.6395 74.625ZM77.7153 74.625V68.3788H78.9407V69.6637L78.7266 69.8065C78.8059 69.5289 78.9605 69.2751 79.1906 69.0451C79.4206 68.8071 79.6942 68.6168 80.0115 68.474C80.3288 68.3233 80.654 68.2479 80.9871 68.2479C81.463 68.2479 81.8596 68.3431 82.1768 68.5335C82.4941 68.7159 82.7321 68.9975 82.8907 69.3782C83.0493 69.7589 83.1286 70.2388 83.1286 70.8178V74.625H81.9032V70.9011C81.9032 70.5442 81.8556 70.2507 81.7604 70.0207C81.6652 69.7827 81.5185 69.6122 81.3202 69.5091C81.1219 69.398 80.876 69.3504 80.5826 69.3663C80.3446 69.3663 80.1265 69.406 79.9282 69.4853C79.7299 69.5567 79.5554 69.6598 79.4047 69.7946C79.262 69.9295 79.1469 70.0881 79.0597 70.2705C78.9804 70.445 78.9407 70.6354 78.9407 70.8416V74.625H78.3339C78.2308 74.625 78.1277 74.625 78.0246 74.625C77.9215 74.625 77.8184 74.625 77.7153 74.625ZM87.5988 74.744C86.9881 74.744 86.4408 74.6052 85.957 74.3276C85.4811 74.042 85.1043 73.6573 84.8267 73.1735C84.5491 72.6817 84.4103 72.1226 84.4103 71.496C84.4103 70.8694 84.5491 70.3141 84.8267 69.8303C85.1043 69.3386 85.4811 68.9539 85.957 68.6763C86.4408 68.3907 86.9881 68.2479 87.5988 68.2479C88.2016 68.2479 88.741 68.3907 89.2169 68.6763C89.7007 68.9539 90.0815 69.3386 90.3591 69.8303C90.6367 70.3141 90.7755 70.8694 90.7755 71.496C90.7755 72.1226 90.6367 72.6817 90.3591 73.1735C90.0815 73.6573 89.7007 74.042 89.2169 74.3276C88.741 74.6052 88.2016 74.744 87.5988 74.744ZM87.5988 73.6256C87.9716 73.6256 88.3048 73.5344 88.5982 73.352C88.8917 73.1616 89.1217 72.9078 89.2883 72.5905C89.4549 72.2653 89.5342 71.9005 89.5262 71.496C89.5342 71.0835 89.4549 70.7187 89.2883 70.4014C89.1217 70.0762 88.8917 69.8224 88.5982 69.64C88.3048 69.4575 87.9716 69.3663 87.5988 69.3663C87.2261 69.3663 86.889 69.4615 86.5876 69.6519C86.2941 69.8343 86.0641 70.0881 85.8975 70.4133C85.7309 70.7306 85.6516 71.0914 85.6596 71.496C85.6516 71.9005 85.7309 72.2653 85.8975 72.5905C86.0641 72.9078 86.2941 73.1616 86.5876 73.352C86.889 73.5344 87.2261 73.6256 87.5988 73.6256ZM92.1346 74.625V65.8209H93.36V74.625H92.1346ZM97.7884 74.744C97.1777 74.744 96.6304 74.6052 96.1465 74.3276C95.6706 74.042 95.2939 73.6573 95.0163 73.1735C94.7387 72.6817 94.5999 72.1226 94.5999 71.496C94.5999 70.8694 94.7387 70.3141 95.0163 69.8303C95.2939 69.3386 95.6706 68.9539 96.1465 68.6763C96.6304 68.3907 97.1777 68.2479 97.7884 68.2479C98.3912 68.2479 98.9305 68.3907 99.4064 68.6763C99.8903 68.9539 100.271 69.3386 100.549 69.8303C100.826 70.3141 100.965 70.8694 100.965 71.496C100.965 72.1226 100.826 72.6817 100.549 73.1735C100.271 73.6573 99.8903 74.042 99.4064 74.3276C98.9305 74.6052 98.3912 74.744 97.7884 74.744ZM97.7884 73.6256C98.1612 73.6256 98.4943 73.5344 98.7878 73.352C99.0812 73.1616 99.3113 72.9078 99.4778 72.5905C99.6444 72.2653 99.7237 71.9005 99.7158 71.496C99.7237 71.0835 99.6444 70.7187 99.4778 70.4014C99.3113 70.0762 99.0812 69.8224 98.7878 69.64C98.4943 69.4575 98.1612 69.3663 97.7884 69.3663C97.4156 69.3663 97.0785 69.4615 96.7771 69.6519C96.4836 69.8343 96.2536 70.0881 96.087 70.4133C95.9205 70.7306 95.8412 71.0914 95.8491 71.496C95.8412 71.9005 95.9205 72.2653 96.087 72.5905C96.2536 72.9078 96.4836 73.1616 96.7771 73.352C97.0785 73.5344 97.4156 73.6256 97.7884 73.6256ZM105.096 77.3614C104.652 77.3614 104.208 77.29 103.764 77.1473C103.327 77.0124 102.975 76.834 102.705 76.6119L103.157 75.6601C103.395 75.8425 103.688 75.9892 104.037 76.1003C104.394 76.2113 104.747 76.2669 105.096 76.2669C105.532 76.2669 105.897 76.1955 106.191 76.0527C106.484 75.9099 106.706 75.6997 106.857 75.4221C107.008 75.1445 107.083 74.7995 107.083 74.3871V73.1854L107.214 73.2687C107.174 73.5146 107.043 73.7525 106.821 73.9825C106.607 74.2046 106.338 74.3871 106.012 74.5298C105.687 74.6726 105.354 74.744 105.013 74.744C104.418 74.744 103.887 74.6052 103.419 74.3276C102.959 74.042 102.594 73.6573 102.324 73.1735C102.054 72.6817 101.92 72.1226 101.92 71.496C101.92 70.8694 102.05 70.3141 102.312 69.8303C102.582 69.3386 102.947 68.9539 103.407 68.6763C103.875 68.3907 104.398 68.2479 104.977 68.2479C105.215 68.2479 105.445 68.2797 105.667 68.3431C105.889 68.3986 106.096 68.4819 106.286 68.593C106.476 68.6961 106.647 68.8111 106.798 68.938C106.948 69.0649 107.071 69.1997 107.166 69.3425C107.262 69.4853 107.321 69.6201 107.345 69.747L107.083 69.8422V68.3788H108.309V74.2443C108.309 74.744 108.233 75.1842 108.082 75.5649C107.94 75.9536 107.73 76.2788 107.452 76.5405C107.174 76.8102 106.837 77.0124 106.441 77.1473C106.044 77.29 105.596 77.3614 105.096 77.3614ZM105.144 73.6137C105.532 73.6137 105.877 73.5225 106.179 73.3401C106.48 73.1576 106.714 72.9078 106.881 72.5905C107.047 72.2733 107.131 71.9084 107.131 71.496C107.131 71.0835 107.043 70.7187 106.869 70.4014C106.702 70.0762 106.468 69.8224 106.167 69.64C105.874 69.4575 105.532 69.3663 105.144 69.3663C104.763 69.3663 104.422 69.4615 104.121 69.6519C103.827 69.8343 103.593 70.0881 103.419 70.4133C103.252 70.7306 103.169 71.0914 103.169 71.496C103.169 71.9005 103.252 72.2653 103.419 72.5905C103.593 72.9078 103.827 73.1576 104.121 73.3401C104.422 73.5225 104.763 73.6137 105.144 73.6137ZM111.074 77.3614L112.335 74.4465L112.347 75.4221L109.23 68.3788H110.657L112.608 72.9712C112.648 73.0506 112.696 73.1735 112.751 73.3401C112.807 73.4987 112.854 73.6573 112.894 73.816L112.585 73.8874C112.648 73.7208 112.708 73.5542 112.763 73.3877C112.827 73.2211 112.886 73.0545 112.942 72.888L114.572 68.3788H116.023L113.453 74.625L112.394 77.3614H111.074ZM123.963 74.744C123.384 74.744 122.852 74.6409 122.368 74.4346C121.884 74.2284 121.464 73.9349 121.107 73.5542C120.75 73.1656 120.473 72.7095 120.274 72.186C120.084 71.6625 119.989 71.0875 119.989 70.4609C119.989 69.866 120.092 69.3148 120.298 68.8071C120.512 68.2916 120.806 67.8395 121.179 67.4508C121.551 67.0622 121.984 66.7608 122.475 66.5466C122.967 66.3325 123.499 66.2254 124.07 66.2254C124.474 66.2254 124.867 66.2888 125.248 66.4157C125.636 66.5347 125.985 66.7052 126.294 66.9273C126.612 67.1415 126.87 67.3874 127.068 67.665L126.211 68.5573C125.87 68.2083 125.521 67.9465 125.164 67.772C124.807 67.5976 124.442 67.5103 124.07 67.5103C123.681 67.5103 123.316 67.5857 122.975 67.7364C122.642 67.8791 122.348 68.0814 122.095 68.3431C121.849 68.6049 121.654 68.9182 121.512 69.283C121.369 69.64 121.298 70.0326 121.298 70.4609C121.298 70.913 121.365 71.3254 121.5 71.6982C121.643 72.0631 121.841 72.3764 122.095 72.6381C122.348 72.8999 122.65 73.1021 122.999 73.2449C123.356 73.3797 123.748 73.4471 124.177 73.4471C124.438 73.4471 124.696 73.4115 124.95 73.3401C125.204 73.2687 125.442 73.1656 125.664 73.0307C125.886 72.8959 126.088 72.7373 126.271 72.5548L126.913 73.6018C126.731 73.816 126.481 74.0103 126.164 74.1848C125.854 74.3593 125.505 74.4981 125.117 74.6012C124.736 74.6964 124.351 74.744 123.963 74.744ZM131.157 74.744C130.546 74.744 129.999 74.6052 129.515 74.3276C129.039 74.042 128.663 73.6573 128.385 73.1735C128.107 72.6817 127.969 72.1226 127.969 71.496C127.969 70.8694 128.107 70.3141 128.385 69.8303C128.663 69.3386 129.039 68.9539 129.515 68.6763C129.999 68.3907 130.546 68.2479 131.157 68.2479C131.76 68.2479 132.299 68.3907 132.775 68.6763C133.259 68.9539 133.64 69.3386 133.917 69.8303C134.195 70.3141 134.334 70.8694 134.334 71.496C134.334 72.1226 134.195 72.6817 133.917 73.1735C133.64 73.6573 133.259 74.042 132.775 74.3276C132.299 74.6052 131.76 74.744 131.157 74.744ZM131.157 73.6256C131.53 73.6256 131.863 73.5344 132.157 73.352C132.45 73.1616 132.68 72.9078 132.847 72.5905C133.013 72.2653 133.092 71.9005 133.085 71.496C133.092 71.0835 133.013 70.7187 132.847 70.4014C132.68 70.0762 132.45 69.8224 132.157 69.64C131.863 69.4575 131.53 69.3663 131.157 69.3663C130.784 69.3663 130.447 69.4615 130.146 69.6519C129.852 69.8343 129.622 70.0881 129.456 70.4133C129.289 70.7306 129.21 71.0914 129.218 71.496C129.21 71.9005 129.289 72.2653 129.456 72.5905C129.622 72.9078 129.852 73.1616 130.146 73.352C130.447 73.5344 130.784 73.6256 131.157 73.6256ZM135.645 74.625V68.3788H136.883V69.7113L136.657 69.8541C136.72 69.6479 136.819 69.4496 136.954 69.2592C137.097 69.0689 137.267 68.9023 137.466 68.7595C137.672 68.6088 137.89 68.4899 138.12 68.4026C138.358 68.3154 138.6 68.2717 138.846 68.2717C139.203 68.2717 139.516 68.3312 139.786 68.4502C140.055 68.5692 140.277 68.7476 140.452 68.9856C140.626 69.2235 140.753 69.521 140.833 69.8779L140.642 69.8303L140.725 69.6281C140.813 69.4456 140.932 69.2751 141.082 69.1165C141.241 68.9499 141.42 68.8032 141.618 68.6763C141.816 68.5494 142.026 68.4502 142.248 68.3788C142.47 68.3074 142.689 68.2717 142.903 68.2717C143.371 68.2717 143.755 68.3669 144.057 68.5573C144.366 68.7476 144.596 69.0371 144.747 69.4258C144.905 69.8144 144.985 70.2983 144.985 70.8773V74.625H143.747V70.9487C143.747 70.4173 143.644 70.0286 143.438 69.7827C143.24 69.5289 142.927 69.402 142.498 69.402C142.276 69.402 142.066 69.4417 141.868 69.521C141.677 69.5924 141.511 69.6955 141.368 69.8303C141.225 69.9652 141.114 70.1238 141.035 70.3062C140.956 70.4807 140.916 70.675 140.916 70.8892V74.625H139.679V70.9249C139.679 70.4331 139.571 70.0564 139.357 69.7946C139.151 69.5329 138.85 69.402 138.453 69.402C138.231 69.402 138.025 69.4417 137.834 69.521C137.644 69.5924 137.477 69.6955 137.335 69.8303C137.192 69.9572 137.081 70.1119 137.002 70.2943C136.922 70.4688 136.883 70.6592 136.883 70.8654V74.625H135.645ZM146.625 77.2424V68.3788H147.863V69.8065L147.672 69.6994C147.72 69.4615 147.855 69.2354 148.077 69.0213C148.299 68.7992 148.569 68.6207 148.886 68.4859C149.211 68.3431 149.544 68.2717 149.885 68.2717C150.448 68.2717 150.948 68.4105 151.384 68.6882C151.821 68.9658 152.166 69.3465 152.419 69.8303C152.673 70.3141 152.8 70.8694 152.8 71.496C152.8 72.1146 152.673 72.6698 152.419 73.1616C152.174 73.6454 151.833 74.0301 151.396 74.3157C150.96 74.5933 150.468 74.7321 149.921 74.7321C149.556 74.7321 149.203 74.6607 148.862 74.5179C148.521 74.3672 148.232 74.1769 147.994 73.9468C147.756 73.7168 147.609 73.4789 147.553 73.233L147.863 73.0664V77.2424H146.625ZM149.719 73.6018C150.084 73.6018 150.409 73.5106 150.694 73.3282C150.98 73.1457 151.206 72.8959 151.373 72.5786C151.539 72.2614 151.622 71.9005 151.622 71.496C151.622 71.0914 151.539 70.7345 151.373 70.4252C151.214 70.1079 150.992 69.8581 150.706 69.6756C150.421 69.4932 150.092 69.402 149.719 69.402C149.346 69.402 149.017 69.4932 148.731 69.6756C148.446 69.8501 148.22 70.096 148.053 70.4133C147.887 70.7306 147.803 71.0914 147.803 71.496C147.803 71.9005 147.887 72.2614 148.053 72.5786C148.22 72.8959 148.446 73.1457 148.731 73.3282C149.017 73.5106 149.346 73.6018 149.719 73.6018ZM157.831 74.625V70.5561C157.831 70.2071 157.704 69.9255 157.45 69.7113C157.205 69.4893 156.891 69.3782 156.511 69.3782C156.162 69.3782 155.844 69.4496 155.559 69.5924C155.281 69.7351 155.027 69.9533 154.797 70.2467L154 69.4496C154.373 69.0451 154.774 68.7437 155.202 68.5454C155.638 68.3471 156.106 68.2479 156.606 68.2479C157.082 68.2479 157.494 68.3273 157.843 68.4859C158.192 68.6445 158.462 68.8785 158.652 69.1878C158.842 69.4893 158.938 69.8581 158.938 70.2943V74.625H157.831ZM155.963 74.744C155.559 74.744 155.198 74.6647 154.881 74.506C154.563 74.3474 154.31 74.1293 154.119 73.8517C153.937 73.5661 153.846 73.233 153.846 72.8523C153.846 72.5191 153.905 72.2257 154.024 71.9719C154.143 71.718 154.317 71.5079 154.547 71.3413C154.785 71.1747 155.079 71.0478 155.428 70.9606C155.785 70.8733 156.193 70.8297 156.653 70.8297H158.39L158.283 71.8053H156.499C156.261 71.8053 156.047 71.8291 155.856 71.8767C155.674 71.9163 155.515 71.9838 155.38 72.0789C155.253 72.1662 155.158 72.2733 155.095 72.4002C155.031 72.5191 155 72.6619 155 72.8285C155 73.003 155.043 73.1576 155.13 73.2925C155.218 73.4194 155.337 73.5185 155.487 73.5899C155.638 73.6613 155.813 73.697 156.011 73.697C156.296 73.697 156.566 73.6494 156.82 73.5542C157.082 73.4511 157.312 73.3123 157.51 73.1378C157.716 72.9633 157.875 72.769 157.986 72.5548L158.271 73.352C158.105 73.6296 157.899 73.8715 157.653 74.0777C157.407 74.2839 157.141 74.4465 156.856 74.5655C156.57 74.6845 156.273 74.744 155.963 74.744ZM160.486 74.625V68.3788H161.712V69.6637L161.498 69.8065C161.577 69.5289 161.732 69.2751 161.962 69.0451C162.192 68.8071 162.465 68.6168 162.783 68.474C163.1 68.3233 163.425 68.2479 163.758 68.2479C164.234 68.2479 164.631 68.3431 164.948 68.5335C165.265 68.7159 165.503 68.9975 165.662 69.3782C165.821 69.7589 165.9 70.2388 165.9 70.8178V74.625H164.674V70.9011C164.674 70.5442 164.627 70.2507 164.532 70.0207C164.436 69.7827 164.29 69.6122 164.091 69.5091C163.893 69.398 163.647 69.3504 163.354 69.3663C163.116 69.3663 162.898 69.406 162.699 69.4853C162.501 69.5567 162.327 69.6598 162.176 69.7946C162.033 69.9295 161.918 70.0881 161.831 70.2705C161.752 70.445 161.712 70.6354 161.712 70.8416V74.625H161.105C161.002 74.625 160.899 74.625 160.796 74.625C160.693 74.625 160.59 74.625 160.486 74.625ZM168.551 77.3614L169.812 74.4465L169.824 75.4221L166.707 68.3788H168.135L170.086 72.9712C170.126 73.0506 170.173 73.1735 170.229 73.3401C170.284 73.4987 170.332 73.6573 170.371 73.816L170.062 73.8874C170.126 73.7208 170.185 73.5542 170.241 73.3877C170.304 73.2211 170.363 73.0545 170.419 72.888L172.049 68.3788H173.5L170.931 74.625L169.872 77.3614H168.551Z" fill="#707C87"/>
</svg>
