<svg width="183" height="184" viewBox="0 0 183 184" fill="none" xmlns="http://www.w3.org/2000/svg">
<path d="M100.485 61.6113C99.5369 60.1608 98.6096 58.7103 97.6335 57.2949C97.5219 57.14 97.0896 57.0837 96.8595 57.1541C91.8953 58.6469 87.0495 58.3371 82.4548 55.9289C76.5423 52.8237 73.0632 47.8595 72.2195 41.1702C70.9854 31.4179 77.128 22.5318 86.6242 20.1588C97.3197 17.4831 108.21 24.7991 109.856 35.7836C110.727 41.6209 109.235 46.8033 105.512 51.338C105.157 51.7675 105.129 52.0491 105.442 52.4998C106.349 53.8165 107.199 55.1755 108.134 56.5979C108.35 56.4077 108.531 56.2669 108.685 56.112C110.393 54.3798 111.801 52.4223 112.896 50.2465C113.767 48.5284 115.106 47.5919 117.023 47.5427C117.672 47.5215 118.097 47.254 118.285 46.6062C118.481 45.9443 118.139 45.5781 117.651 45.2401C114.478 42.9939 114.841 38.579 118.341 36.868C118.885 36.6004 119.261 36.2624 119.178 35.6076C119.094 34.9245 118.634 34.664 118.013 34.5373C115.489 34.0303 113.865 31.7278 114.227 29.1858C114.583 26.6862 116.786 24.9399 119.373 25.1159C121.758 25.2779 123.71 27.4466 123.661 29.9393C123.633 31.4954 122.978 32.7558 121.751 33.7064C120.67 34.5373 120.879 36.2906 122.127 36.8609C124.01 37.727 125.118 39.5718 124.965 41.5927C124.811 43.6065 123.445 45.2542 121.451 45.8316C120.049 46.233 119.54 47.944 120.468 49.0566C121.771 50.6338 122.029 52.4153 121.088 54.2179C116.075 63.8152 108.322 69.9624 97.7869 72.0888C86.6521 74.335 76.6888 71.4974 68.2593 63.7871C62.4026 58.4286 58.9722 51.6759 57.7869 43.7685C57.0827 39.0508 57.3825 34.3964 58.6306 29.8055C59.1953 27.7212 60.6107 26.5242 62.7372 26.2778C63.9295 26.1369 64.5222 24.7568 63.818 23.7499C61.8309 20.9052 63.0998 17.1381 66.3628 16.272C67.3668 16.0044 68.3987 16.0255 69.3679 16.4621C70.0442 16.7719 70.4974 16.4691 70.9645 16.0467C71.4247 15.6312 71.7594 15.251 71.592 14.5116C70.8948 11.4627 72.9656 8.66027 76.0613 8.58986C78.7665 8.52649 80.7118 10.5051 80.8442 13.033C80.9906 15.8425 79.0245 18.0464 76.4378 18.1168C75.4547 18.145 74.5483 17.9549 73.7116 17.4338C73.1747 17.0958 72.6867 17.1451 72.2195 17.5676C71.7663 17.976 71.7385 18.4337 71.9476 18.997C73.2305 22.4754 70.9645 25.6792 67.3041 25.5947C67.2553 25.5947 67.2065 25.5947 67.1646 25.5947C66.5999 25.5384 66.0491 25.5384 65.7632 26.1651C65.4773 26.7918 65.8539 27.1931 66.2513 27.6086C67.4575 28.8549 67.8549 30.3406 67.4644 32.0446C67.2483 32.9741 67.0113 33.9106 66.8718 34.8541C65.7702 42.0434 67.4366 48.5425 71.8918 54.232C76.0961 59.6116 81.66 62.6534 88.4091 63.4491C92.3485 63.9138 96.1832 63.435 99.8925 61.9845C100.046 61.9211 100.199 61.8648 100.353 61.7944C100.394 61.7732 100.415 61.724 100.52 61.6043L100.485 61.6113ZM81.1371 38.7973C81.1231 44.2896 85.6063 48.8453 91.0586 48.8735C96.49 48.8946 101.015 44.3529 101.029 38.8466C101.043 33.3402 96.5597 28.7915 91.1074 28.7845C85.6481 28.7774 81.158 33.2839 81.1371 38.8043V38.7973Z" fill="#3F5397"/>
<path d="M91.8085 87.0445C78.3311 86.7558 67.1127 82.4465 57.8535 73.3702C50.3723 66.0402 45.7287 57.1328 44.0902 46.7328C42.0543 33.833 44.7317 21.9683 52.0247 11.1598C52.9032 9.85715 53.9351 8.81503 55.5596 8.63196C56.1174 8.56859 56.7031 8.59675 57.2539 8.70237C58.8993 9.01923 59.8824 7.91374 59.3595 6.28718C58.3834 3.2594 60.5587 0.133036 63.7032 0.0485394C65.6346 -0.0077915 67.3846 1.11178 68.1934 2.92141C68.9464 4.61134 68.5908 6.70967 67.3218 8.08273C65.9971 9.51213 63.9682 10.0191 62.1554 9.27976C61.4651 8.99811 60.9422 9.00515 60.4332 9.58254C60.0428 10.0261 59.9312 10.4627 60.2032 11.019C61.0677 12.8004 60.8655 14.4692 59.7151 16.0888C55.8385 21.5388 53.461 27.6084 52.7637 34.2696C51.5296 46.1342 54.8415 56.5907 62.8596 65.3853C69.0928 72.2295 76.8878 76.1868 86.0145 77.426C105.879 80.1229 124.606 66.8851 128.748 47.1693C129.291 44.5851 129.452 41.9094 129.703 39.2619C129.982 36.389 131.864 34.6287 134.653 34.7624C137.065 34.8751 138.871 37.0016 138.788 39.7125C138.669 43.7261 138.153 47.6904 137.079 51.5702C132.206 69.244 118.192 82.4113 100.356 86.0869C99.3804 86.2911 98.3903 86.4601 97.4002 86.5587C95.3225 86.7699 93.2378 86.9248 91.7875 87.0445H91.8085Z" fill="#516FDB"/>
<mask id="mask0_2328_49633" style="mask-type:alpha" maskUnits="userSpaceOnUse" x="69" y="13" width="44" height="49">
<path d="M99.051 61.7913C105.192 61.2271 108.054 57.2689 108.718 55.3603L112.726 36.6657L110.916 13.4471H93.9812L77.0466 21.5417L69.4844 34.429V44.0147L74.5967 52.6417L83.5434 58.2866C86.154 59.69 92.9105 62.3556 99.051 61.7913Z" fill="#D9D9D9" stroke="black" stroke-width="0.159927"/>
</mask>
<g mask="url(#mask0_2328_49633)">
<path d="M100.493 61.607C99.5447 60.1565 98.6174 58.706 97.6413 57.2907C97.5297 57.1358 97.0974 57.0794 96.8673 57.1498C91.9031 58.6426 87.0574 58.3328 82.4626 55.9247C76.5501 52.8194 73.071 47.8552 72.2273 41.166C70.9933 31.4137 77.1358 22.5275 86.6321 20.1545C97.3275 17.4788 108.218 24.7948 109.864 35.7793C110.735 41.6166 109.243 46.799 105.52 51.3337C105.164 51.7632 105.136 52.0449 105.45 52.4955C106.357 53.8122 107.207 55.1712 108.142 56.5936C108.358 56.4035 108.539 56.2626 108.692 56.1077C110.401 54.3755 111.809 52.418 112.904 50.2423C113.775 48.5242 115.114 47.5877 117.031 47.5384C117.68 47.5173 118.105 47.2497 118.293 46.6019C118.488 45.94 118.147 45.5738 117.659 45.2359C114.486 42.9897 114.849 38.5747 118.349 36.8637C118.893 36.5961 119.269 36.2581 119.186 35.6033C119.102 34.9203 118.642 34.6597 118.021 34.533C115.497 34.026 113.873 31.7235 114.235 29.1816C114.591 26.6819 116.794 24.9356 119.381 25.1117C121.765 25.2736 123.718 27.4423 123.669 29.935C123.641 31.4911 122.985 32.7515 121.758 33.7021C120.678 34.533 120.887 36.2863 122.135 36.8566C124.017 37.7227 125.126 39.5676 124.973 41.5884C124.819 43.6023 123.453 45.2499 121.459 45.8273C120.057 46.2287 119.548 47.9397 120.475 49.0523C121.779 50.6295 122.037 52.411 121.096 54.2136C116.083 63.811 108.33 69.9581 97.7947 72.0846C86.66 74.3308 76.6966 71.4931 68.2671 63.7828C62.4104 58.4243 58.98 51.6717 57.7948 43.7642C57.0906 39.0465 57.3904 34.3922 58.6384 29.8012C59.2031 27.717 60.6185 26.5199 62.7451 26.2735C63.9373 26.1327 64.53 24.7525 63.8258 23.7456C61.8387 20.9009 63.1076 17.1338 66.3706 16.2677C67.3746 16.0001 68.4065 16.0213 69.3757 16.4578C70.052 16.7676 70.5052 16.4649 70.9723 16.0424C71.4325 15.6269 71.7672 15.2467 71.5998 14.5074C70.9026 11.4585 72.9734 8.656 76.0691 8.58559C78.7743 8.52221 80.7196 10.5008 80.852 13.0287C80.9985 15.8382 79.0323 18.0421 76.4456 18.1125C75.4625 18.1407 74.5561 17.9506 73.7194 17.4295C73.1826 17.0915 72.6945 17.1408 72.2273 17.5633C71.7741 17.9717 71.7463 18.4294 71.9554 18.9927C73.2383 22.4711 70.9723 25.675 67.3119 25.5905C67.2631 25.5905 67.2143 25.5905 67.1724 25.5905C66.6077 25.5341 66.0569 25.5341 65.771 26.1608C65.4852 26.7875 65.8617 27.1889 66.2591 27.6043C67.4653 28.8506 67.8627 30.3363 67.4722 32.0404C67.2561 32.9698 67.0191 33.9063 66.8796 34.8499C65.778 42.0391 67.4444 48.5383 71.8996 54.2277C76.1039 59.6073 81.6678 62.6491 88.417 63.4448C92.3563 63.9095 96.191 63.4307 99.9003 61.9802C100.054 61.9168 100.207 61.8605 100.36 61.7901C100.402 61.769 100.423 61.7197 100.528 61.6L100.493 61.607ZM81.1449 38.793C81.1309 44.2853 85.6141 48.841 91.0664 48.8692C96.4978 48.8903 101.023 44.3487 101.037 38.8423C101.051 33.336 96.5675 28.7872 91.1152 28.7802C85.6559 28.7732 81.1658 33.2796 81.1449 38.8001V38.793Z" fill="#F6B221"/>
</g>
<path d="M9.93991 115.161C9.08377 115.161 8.32732 115.038 7.67055 114.791C7.01378 114.545 6.49775 114.187 6.12246 113.718C5.75889 113.249 5.57711 112.686 5.57711 112.029C5.57711 111.419 5.73543 110.868 6.05209 110.376C6.38047 109.883 6.832 109.437 7.40667 109.039C7.99307 108.628 8.67916 108.247 9.46493 107.895C10.2624 107.532 11.1244 107.18 12.0509 106.84L12.4732 109.619C11.6874 109.807 11.0306 110.006 10.5029 110.217C9.98683 110.417 9.57635 110.622 9.27142 110.833C8.96649 111.032 8.74366 111.226 8.60292 111.414C8.47392 111.59 8.40941 111.742 8.40941 111.871C8.40941 112.023 8.5091 112.152 8.70848 112.258C8.90785 112.352 9.28315 112.399 9.83436 112.399C9.95164 112.399 10.1217 112.393 10.3445 112.381C10.5674 112.369 10.8254 112.346 11.1186 112.311C11.4118 112.264 11.7226 112.199 12.0509 112.117L12.7019 114.439C12.2327 114.662 11.7871 114.838 11.3649 114.967C10.9544 115.096 10.4794 115.161 9.93991 115.161ZM14.2324 115.425C13.4818 115.425 12.8778 115.325 12.4204 115.125C11.9747 114.914 11.6346 114.651 11.4 114.334C11.1772 114.005 11.0248 113.654 10.9427 113.278C10.8723 112.903 10.8371 112.551 10.8371 112.223V106.03H13.6694V111.431C13.6694 111.889 13.7867 112.211 14.0212 112.399C14.2675 112.575 14.6604 112.663 15.1999 112.663H15.7804V115.425H14.2324ZM8.62052 105.045L6.77336 103.181L8.51496 101.298L10.3621 103.181L8.62052 105.045ZM11.7167 105.045L9.86955 103.181L11.6287 101.298L13.4759 103.181L11.7167 105.045ZM15.774 115.425V112.663H18.2193C18.2662 112.463 18.3072 112.194 18.3424 111.853C18.3776 111.513 18.4069 111.173 18.4304 110.833C18.4538 110.481 18.4597 110.188 18.448 109.953L21.7553 108.792C21.5441 109.649 21.333 110.452 21.1219 111.202C20.9226 111.941 20.6821 112.657 20.4007 113.349C20.1309 114.029 19.7791 114.721 19.3452 115.425H15.774ZM22.9867 115.425C22.1775 115.425 21.4914 115.348 20.9284 115.196C20.3772 115.032 19.914 114.844 19.5387 114.633C19.1634 114.41 18.8409 114.205 18.5711 114.017L20.0664 112.276C20.2306 112.358 20.4241 112.428 20.647 112.487C20.8698 112.545 21.1161 112.592 21.3858 112.627C21.6556 112.651 21.937 112.663 22.2302 112.663H22.9867V115.425ZM15.774 112.663H15.9499V115.425H15.774C15.4221 115.425 15.2462 114.967 15.2462 114.052C15.2462 113.126 15.4221 112.663 15.774 112.663ZM17.7971 120.157L15.9499 118.274L17.6915 116.41L19.5387 118.274L17.7971 120.157ZM20.8932 120.157L19.0461 118.274L20.8053 116.41L22.6524 118.274L20.8932 120.157ZM35.726 115.425C34.9402 115.425 34.2952 115.354 33.7909 115.213C33.2983 115.073 32.882 114.844 32.5419 114.527C32.2135 114.199 31.9086 113.771 31.6271 113.243L33.5094 112.364C33.6384 112.434 33.7792 112.493 33.9316 112.539C34.0958 112.575 34.3069 112.604 34.565 112.627C34.8347 112.651 35.1748 112.663 35.5853 112.663H36.2538V115.425H35.726ZM22.9894 112.663H23.1654V115.425H22.9894C22.6376 115.425 22.4617 114.967 22.4617 114.052C22.4617 113.126 22.6376 112.663 22.9894 112.663ZM22.9894 115.425V112.663H23.3941C24.4613 112.663 25.3585 112.639 26.0856 112.592C26.8128 112.545 27.4285 112.475 27.9328 112.381C28.4371 112.276 28.8769 112.147 29.2522 111.994C29.6275 111.842 29.9969 111.66 30.3605 111.449C30.4426 111.402 30.5129 111.361 30.5716 111.326C30.6302 111.29 30.683 111.261 30.7299 111.238C30.7885 111.202 30.8355 111.179 30.8706 111.167C30.4367 110.944 30.0438 110.757 29.692 110.604C29.3401 110.44 29.0059 110.311 28.6892 110.217C28.3843 110.112 28.0911 110.036 27.8096 109.989C27.5399 109.942 27.2643 109.918 26.9828 109.918C26.6192 109.918 26.285 110.018 25.9801 110.217C25.6751 110.417 25.3526 110.763 25.0125 111.255L23.2005 110.323C23.5993 109.49 24.0274 108.845 24.4848 108.388C24.9421 107.93 25.4171 107.614 25.9097 107.438C26.4023 107.25 26.889 107.156 27.3698 107.156C28.0031 107.156 28.5837 107.25 29.1114 107.438C29.6509 107.625 30.1552 107.86 30.6244 108.141C31.0935 108.423 31.5509 108.704 31.9965 108.986C32.4422 109.256 32.8879 109.484 33.3335 109.672C33.7792 109.86 34.2542 109.948 34.7585 109.936L34.7057 112.328C34.4008 112.41 34.0255 112.534 33.5798 112.698C33.1341 112.85 32.6181 113.079 32.0317 113.384C31.5626 113.63 31.07 113.876 30.554 114.123C30.038 114.357 29.4457 114.574 28.7772 114.774C28.1087 114.973 27.3229 115.131 26.4199 115.249C25.5168 115.366 24.4496 115.425 23.2181 115.425H22.9894ZM22.9894 112.663H23.1654V115.425H22.9894C22.6376 115.425 22.4617 114.967 22.4617 114.052C22.4617 113.126 22.6376 112.663 22.9894 112.663ZM28.5133 120.157L26.6486 118.274L28.4254 116.41L30.2725 118.274L28.5133 120.157ZM36.2521 115.425V112.663H38.6974C38.7443 112.463 38.7854 112.194 38.8206 111.853C38.8557 111.513 38.8851 111.173 38.9085 110.833C38.932 110.481 38.9378 110.188 38.9261 109.953L42.2334 108.792C42.0223 109.649 41.8112 110.452 41.6001 111.202C41.4007 111.941 41.1603 112.657 40.8788 113.349C40.6091 114.029 40.2572 114.721 39.8233 115.425H36.2521ZM43.4648 115.425C42.6556 115.425 41.9695 115.348 41.4066 115.196C40.8554 115.032 40.3921 114.844 40.0168 114.633C39.6415 114.41 39.319 114.205 39.0493 114.017L40.5446 112.276C40.7088 112.358 40.9023 112.428 41.1251 112.487C41.3479 112.545 41.5942 112.592 41.864 112.627C42.1337 112.651 42.4152 112.663 42.7084 112.663H43.4648V115.425ZM36.2521 112.663H36.4281V115.425H36.2521C35.9003 115.425 35.7244 114.967 35.7244 114.052C35.7244 113.126 35.9003 112.663 36.2521 112.663ZM38.2752 120.157L36.4281 118.274L38.1697 116.41L40.0168 118.274L38.2752 120.157ZM41.3714 120.157L39.5242 118.274L41.2834 116.41L43.1306 118.274L41.3714 120.157ZM47.4786 112.663H49.5896V115.425H47.4786V112.663ZM43.4676 115.425V112.663H45.174V102.407H48.0063V115.425H43.4676ZM43.4676 112.663H43.6435V115.425H43.4676C43.1158 115.425 42.9398 114.967 42.9398 114.052C42.9398 113.126 43.1158 112.663 43.4676 112.663ZM49.5835 112.663H50.9909V115.425H49.5835V112.663ZM49.5835 112.663H49.7595V115.425H49.5835C49.2317 115.425 49.0558 114.967 49.0558 114.052C49.0558 113.126 49.2317 112.663 49.5835 112.663ZM63.7289 115.425C62.9431 115.425 62.298 115.354 61.7937 115.213C61.3012 115.073 60.8848 114.844 60.5447 114.527C60.2163 114.199 59.9114 113.771 59.6299 113.243L61.5123 112.364C61.6413 112.434 61.782 112.493 61.9345 112.539C62.0987 112.575 62.3098 112.604 62.5678 112.627C62.8375 112.651 63.1776 112.663 63.5881 112.663H64.2566V115.425H63.7289ZM50.9923 112.663H51.1682V115.425H50.9923C50.6404 115.425 50.4645 114.967 50.4645 114.052C50.4645 113.126 50.6404 112.663 50.9923 112.663ZM50.9923 115.425V112.663H51.3969C52.4641 112.663 53.3613 112.639 54.0885 112.592C54.8156 112.545 55.4313 112.475 55.9356 112.381C56.4399 112.276 56.8797 112.147 57.255 111.994C57.6303 111.842 57.9997 111.66 58.3633 111.449C58.4454 111.402 58.5158 111.361 58.5744 111.326C58.633 111.29 58.6858 111.261 58.7327 111.238C58.7914 111.202 58.8383 111.179 58.8735 111.167C58.4395 110.944 58.0466 110.757 57.6948 110.604C57.343 110.44 57.0087 110.311 56.6921 110.217C56.3871 110.112 56.0939 110.036 55.8125 109.989C55.5427 109.942 55.2671 109.918 54.9856 109.918C54.6221 109.918 54.2878 110.018 53.9829 110.217C53.678 110.417 53.3555 110.763 53.0153 111.255L51.2034 110.323C51.6021 109.49 52.0302 108.845 52.4876 108.388C52.945 107.93 53.42 107.614 53.9125 107.438C54.4051 107.25 54.8918 107.156 55.3727 107.156C56.006 107.156 56.5865 107.25 57.1143 107.438C57.6538 107.625 58.1581 107.86 58.6272 108.141C59.0963 108.423 59.5537 108.704 59.9994 108.986C60.445 109.256 60.8907 109.484 61.3363 109.672C61.782 109.86 62.257 109.948 62.7613 109.936L62.7085 112.328C62.4036 112.41 62.0283 112.534 61.5826 112.698C61.137 112.85 60.6209 113.079 60.0345 113.384C59.5654 113.63 59.0728 113.876 58.5568 114.123C58.0408 114.357 57.4485 114.574 56.78 114.774C56.1115 114.973 55.3258 115.131 54.4227 115.249C53.5197 115.366 52.4524 115.425 51.221 115.425H50.9923ZM50.9923 112.663H51.1682V115.425H50.9923C50.6404 115.425 50.4645 114.967 50.4645 114.052C50.4645 113.126 50.6404 112.663 50.9923 112.663ZM55.4254 105.679L53.5607 103.814L55.3375 101.932L57.1846 103.814L55.4254 105.679ZM64.255 115.425V112.663H65.9614V102.407H68.7937V115.425H64.255ZM64.255 112.663H64.4309V115.425H64.255C63.9031 115.425 63.7272 114.967 63.7272 114.052C63.7272 113.126 63.9031 112.663 64.255 112.663ZM71.224 102.407H74.0563V115.425H71.224V102.407ZM86.7078 119.928C85.6758 119.928 84.8079 119.787 84.1042 119.506C83.4005 119.236 82.8376 118.867 82.4154 118.398C81.9932 117.94 81.6882 117.424 81.5006 116.85C81.3129 116.287 81.2191 115.706 81.2191 115.108C81.2191 114.639 81.2895 114.099 81.4302 113.489C81.5827 112.868 81.7879 112.211 82.0459 111.519L84.3857 112.258C84.2332 112.739 84.1159 113.179 84.0338 113.577C83.9635 113.964 83.9283 114.31 83.9283 114.615C83.9283 115.038 83.9987 115.407 84.1394 115.724C84.2918 116.052 84.503 116.322 84.7727 116.533C85.0542 116.744 85.3943 116.902 85.793 117.008C86.1918 117.113 86.6374 117.166 87.13 117.166C87.4584 117.166 87.7985 117.119 88.1504 117.025C88.5022 116.943 88.8247 116.808 89.1179 116.621C89.4228 116.433 89.6691 116.193 89.8568 115.9C90.0444 115.618 90.1382 115.278 90.1382 114.879C90.1382 114.633 90.1207 114.357 90.0855 114.052C90.062 113.747 89.933 113.378 89.6984 112.944L91.5456 111.748C91.6629 111.877 91.8095 112.082 91.9854 112.364C92.1613 112.645 92.3197 112.962 92.4604 113.314C92.6011 113.654 92.6715 113.988 92.6715 114.316C92.6715 115.477 92.4311 116.474 91.9502 117.307C91.4694 118.151 90.7833 118.796 89.892 119.242C89.0124 119.699 87.951 119.928 86.7078 119.928ZM94.0613 115.425C93.5218 115.425 93.0175 115.342 92.5483 115.178C92.091 115.014 91.6746 114.809 91.2993 114.563C90.9357 114.316 90.625 114.058 90.3669 113.789C90.1089 113.507 89.9154 113.261 89.7864 113.05L88.7661 111.396L90.9827 108.722L92.1437 111.308C92.3079 111.672 92.4487 111.953 92.5659 112.152C92.6832 112.34 92.8415 112.475 93.0409 112.557C93.2403 112.627 93.5218 112.663 93.8853 112.663H94.2372V115.425H94.0613ZM86.8485 109.496L84.9838 107.631L86.7606 105.749L88.6077 107.631L86.8485 109.496ZM94.2335 112.663H95.6408V115.425H94.2335V112.663ZM94.2335 112.663H94.4094V115.425H94.2335C93.8816 115.425 93.7057 114.967 93.7057 114.052C93.7057 113.126 93.8816 112.663 94.2335 112.663ZM95.6422 115.425V112.663H98.1754C98.1403 112.674 98.0933 112.692 98.0347 112.715C97.9878 112.739 97.9292 112.762 97.8588 112.786C97.8001 112.797 97.7415 112.809 97.6829 112.821C97.4248 112.481 97.2489 112.135 97.1551 111.783C97.0613 111.431 97.0144 111.073 97.0144 110.71C97.0144 110.229 97.1023 109.766 97.2782 109.32C97.4542 108.874 97.718 108.47 98.0699 108.106C98.4217 107.743 98.8557 107.455 99.3717 107.244C99.8995 107.033 100.503 106.928 101.184 106.928C101.876 106.928 102.48 107.033 102.996 107.244C103.523 107.455 103.963 107.743 104.315 108.106C104.667 108.47 104.931 108.874 105.107 109.32C105.294 109.766 105.388 110.229 105.388 110.71C105.388 111.085 105.335 111.449 105.23 111.801C105.136 112.141 104.96 112.481 104.702 112.821C104.597 112.797 104.538 112.774 104.526 112.751C104.514 112.727 104.456 112.698 104.35 112.663H106.408V115.425H105.969C105.136 115.425 104.444 115.419 103.893 115.407C103.342 115.384 102.867 115.342 102.468 115.284C102.081 115.225 101.7 115.125 101.324 114.985C101.148 115.043 100.978 115.102 100.814 115.161C100.65 115.208 100.451 115.255 100.216 115.301C99.9933 115.337 99.6942 115.366 99.3189 115.389C98.9554 115.413 98.4745 115.425 97.8764 115.425H95.6422ZM101.184 112.803C101.465 112.674 101.7 112.516 101.887 112.328C102.075 112.141 102.216 111.93 102.31 111.695C102.403 111.461 102.45 111.214 102.45 110.956C102.45 110.722 102.398 110.511 102.292 110.323C102.198 110.135 102.057 109.983 101.87 109.865C101.682 109.748 101.453 109.69 101.184 109.69C100.926 109.69 100.703 109.748 100.515 109.865C100.328 109.983 100.181 110.141 100.075 110.34C99.9815 110.528 99.9346 110.733 99.9346 110.956C99.9346 111.214 99.9815 111.461 100.075 111.695C100.169 111.918 100.31 112.123 100.498 112.311C100.685 112.498 100.914 112.663 101.184 112.803ZM95.6422 112.663H95.8181V115.425H95.6422C95.2904 115.425 95.1144 114.967 95.1144 114.052C95.1144 113.126 95.2904 112.663 95.6422 112.663ZM99.6883 105.45L97.8412 103.585L99.5828 101.703L101.43 103.585L99.6883 105.45ZM102.785 105.45L100.937 103.585L102.697 101.703L104.544 103.585L102.785 105.45ZM106.414 112.663H107.821V115.425H106.414V112.663ZM106.414 112.663H106.59V115.425H106.414C106.062 115.425 105.886 114.967 105.886 114.052C105.886 113.126 106.062 112.663 106.414 112.663ZM107.823 112.663H109.23V115.425H107.823V112.663ZM107.823 112.663H107.998V115.425H107.823C107.471 115.425 107.295 114.967 107.295 114.052C107.295 113.126 107.471 112.663 107.823 112.663ZM109.231 115.425V112.663H112.679C112.586 112.252 112.404 111.795 112.134 111.29C111.864 110.786 111.524 110.276 111.114 109.76L113.647 107.174C113.999 107.842 114.304 108.575 114.562 109.373C114.82 110.17 114.949 111.068 114.949 112.064C114.949 113.05 114.732 114.17 114.298 115.425H109.231ZM109.231 112.663H109.407V115.425H109.231C108.879 115.425 108.704 114.967 108.704 114.052C108.704 113.126 108.879 112.663 109.231 112.663ZM110.938 106.206L109.091 104.342L110.832 102.459L112.679 104.342L110.938 106.206ZM114.034 106.206L112.187 104.342L113.946 102.459L115.793 104.342L114.034 106.206ZM117.18 102.407H120.012V115.425H117.18V102.407ZM131.538 115.161C130.681 115.161 129.925 115.038 129.268 114.791C128.611 114.545 128.095 114.187 127.72 113.718C127.356 113.249 127.175 112.686 127.175 112.029C127.175 111.419 127.333 110.868 127.65 110.376C127.978 109.883 128.43 109.437 129.004 109.039C129.591 108.628 130.277 108.247 131.063 107.895C131.86 107.532 132.722 107.18 133.649 106.84L134.071 109.619C133.285 109.807 132.628 110.006 132.1 110.217C131.584 110.417 131.174 110.622 130.869 110.833C130.564 111.032 130.341 111.226 130.201 111.414C130.072 111.59 130.007 111.742 130.007 111.871C130.007 112.023 130.107 112.152 130.306 112.258C130.505 112.352 130.881 112.399 131.432 112.399C131.549 112.399 131.719 112.393 131.942 112.381C132.165 112.369 132.423 112.346 132.716 112.311C133.009 112.264 133.32 112.199 133.649 112.117L134.299 114.439C133.83 114.662 133.385 114.838 132.962 114.967C132.552 115.096 132.077 115.161 131.538 115.161ZM135.83 115.425C135.079 115.425 134.475 115.325 134.018 115.125C133.572 114.914 133.232 114.651 132.998 114.334C132.775 114.005 132.622 113.654 132.54 113.278C132.47 112.903 132.435 112.551 132.435 112.223V106.03H135.267V111.431C135.267 111.889 135.384 112.211 135.619 112.399C135.865 112.575 136.258 112.663 136.797 112.663H137.378V115.425H135.83ZM130.218 105.045L128.371 103.181L130.113 101.298L131.96 103.181L130.218 105.045ZM133.314 105.045L131.467 103.181L133.226 101.298L135.073 103.181L133.314 105.045ZM137.372 112.663H138.779V115.425H137.372V112.663ZM137.372 112.663H137.547V115.425H137.372C137.02 115.425 136.844 114.967 136.844 114.052C136.844 113.126 137.02 112.663 137.372 112.663ZM138.78 112.663H140.188V115.425H138.78V112.663ZM138.78 112.663H138.956V115.425H138.78C138.428 115.425 138.253 114.967 138.253 114.052C138.253 113.126 138.428 112.663 138.78 112.663ZM141.315 105.978L146.241 101.879L148.105 104.095L143.285 108.089L143.725 107.051C145.062 107.426 146.094 108.007 146.821 108.792C147.56 109.578 148.029 110.534 148.229 111.66C148.44 112.774 148.416 114.029 148.158 115.425H140.189V112.663H145.73C145.59 112.123 145.332 111.613 144.956 111.132C144.581 110.651 144.089 110.241 143.479 109.901C142.881 109.549 142.159 109.308 141.315 109.179V105.978ZM140.189 112.663H140.365V115.425H140.189C139.837 115.425 139.661 114.967 139.661 114.052C139.661 113.126 139.837 112.663 140.189 112.663ZM150.781 119.928C150.254 119.928 149.667 119.811 149.022 119.576C148.389 119.342 147.814 119.007 147.298 118.574L148.178 116.797C148.647 116.937 149.04 117.031 149.356 117.078C149.673 117.137 149.972 117.166 150.254 117.166C150.887 117.166 151.444 117.043 151.925 116.797C152.418 116.562 152.799 116.24 153.068 115.829C153.35 115.419 153.491 114.973 153.491 114.492C153.491 114.093 153.426 113.759 153.297 113.489C153.18 113.208 153.021 112.944 152.822 112.698C152.634 112.44 152.429 112.147 152.206 111.818L155.989 113.648C155.989 113.789 155.989 113.929 155.989 114.07C155.989 114.211 155.989 114.351 155.989 114.492C155.989 114.844 155.93 115.255 155.813 115.724C155.707 116.193 155.531 116.668 155.285 117.149C155.039 117.641 154.71 118.099 154.3 118.521C153.901 118.943 153.409 119.283 152.822 119.541C152.247 119.799 151.567 119.928 150.781 119.928ZM157.378 115.425C156.956 115.425 156.557 115.389 156.182 115.319C155.819 115.237 155.473 115.114 155.144 114.95C154.828 114.785 154.523 114.574 154.229 114.316C153.948 114.058 153.667 113.747 153.385 113.384L151.098 110.446L153.35 107.684L155.566 111.554C155.731 111.836 155.883 112.059 156.024 112.223C156.165 112.387 156.335 112.504 156.534 112.575C156.745 112.633 157.027 112.663 157.378 112.663H157.554V115.425H157.378ZM157.558 112.663H158.965V115.425H157.558V112.663ZM157.558 112.663H157.734V115.425H157.558C157.206 115.425 157.03 114.967 157.03 114.052C157.03 113.126 157.206 112.663 157.558 112.663ZM158.966 112.663H160.374V115.425H158.966V112.663ZM158.966 112.663H159.142V115.425H158.966C158.615 115.425 158.439 114.967 158.439 114.052C158.439 113.126 158.615 112.663 158.966 112.663ZM172.232 115.425C171.423 115.425 170.737 115.348 170.174 115.196C169.623 115.032 169.159 114.844 168.784 114.633C168.409 114.41 168.086 114.205 167.817 114.017L169.382 112.328C169.593 112.422 169.881 112.504 170.244 112.575C170.62 112.633 171.03 112.663 171.476 112.663H173.639C173.499 112.135 173.293 111.625 173.024 111.132C172.766 110.628 172.467 110.159 172.127 109.725L174.66 107.156C174.93 107.649 175.176 108.183 175.399 108.757C175.621 109.32 175.78 109.936 175.874 110.604C175.979 111.261 175.991 111.988 175.909 112.786C175.827 113.583 175.616 114.463 175.276 115.425H172.232ZM160.375 115.425V112.663H162.064C162.099 112.416 162.123 112.164 162.134 111.906C162.158 111.648 162.17 111.373 162.17 111.079C162.17 110.786 162.152 110.469 162.117 110.129L165.442 108.986C165.277 109.807 165.119 110.505 164.967 111.079C164.814 111.654 164.644 112.164 164.456 112.61C164.281 113.056 164.064 113.495 163.806 113.929C163.559 114.363 163.248 114.862 162.873 115.425H160.375ZM165.829 115.425C164.949 115.425 164.204 115.348 163.594 115.196C162.985 115.032 162.498 114.85 162.134 114.651C161.782 114.439 161.536 114.269 161.395 114.14L162.433 112.082C162.727 112.27 163.09 112.416 163.524 112.522C163.958 112.616 164.433 112.663 164.949 112.663H167.078C167.113 112.487 167.136 112.27 167.148 112.012C167.171 111.742 167.183 111.449 167.183 111.132C167.183 110.804 167.166 110.469 167.13 110.129L170.491 108.986C170.315 109.807 170.15 110.505 169.998 111.079C169.845 111.654 169.675 112.164 169.488 112.61C169.3 113.056 169.077 113.495 168.819 113.929C168.573 114.363 168.268 114.862 167.904 115.425H165.829ZM160.375 112.663H160.551V115.425H160.375C160.023 115.425 159.847 114.967 159.847 114.052C159.847 113.126 160.023 112.663 160.375 112.663ZM168.995 105.485L167.113 103.62L168.89 101.738L170.737 103.62L168.995 105.485ZM167.482 108.423L165.635 106.541L167.377 104.676L169.224 106.541L167.482 108.423ZM170.578 108.423L168.731 106.541L170.491 104.676L172.338 106.541L170.578 108.423ZM8.66002 137.161C7.80388 137.161 7.04742 137.038 6.39066 136.791C5.73389 136.545 5.21786 136.187 4.84257 135.718C4.479 135.249 4.29721 134.686 4.29721 134.029C4.29721 133.419 4.45554 132.868 4.7722 132.376C5.10058 131.883 5.55211 131.437 6.12678 131.039C6.71318 130.628 7.39926 130.247 8.18504 129.895C8.98254 129.532 9.84455 129.18 10.7711 128.84L11.1933 131.619C10.4075 131.807 9.75072 132.006 9.22296 132.217C8.70693 132.417 8.29645 132.622 7.99153 132.833C7.6866 133.032 7.46377 133.226 7.32303 133.414C7.19402 133.59 7.12952 133.742 7.12952 133.871C7.12952 134.023 7.22921 134.152 7.42858 134.258C7.62796 134.352 8.00326 134.399 8.55447 134.399C8.67175 134.399 8.84181 134.393 9.06464 134.381C9.28747 134.369 9.54548 134.346 9.83868 134.311C10.1319 134.264 10.4427 134.199 10.7711 134.117L11.422 136.439C10.9528 136.662 10.5072 136.838 10.085 136.967C9.67449 137.096 9.19951 137.161 8.66002 137.161ZM12.9525 137.425C12.2019 137.425 11.5979 137.325 11.1405 137.125C10.6948 136.914 10.3547 136.651 10.1202 136.334C9.89732 136.005 9.74486 135.654 9.66276 135.278C9.5924 134.903 9.55721 134.551 9.55721 134.223V128.03H12.3895V133.431C12.3895 133.889 12.5068 134.211 12.7414 134.399C12.9876 134.575 13.3805 134.663 13.92 134.663H14.5006V137.425H12.9525ZM7.34062 127.045L5.49347 125.181L7.23507 123.298L9.08223 125.181L7.34062 127.045ZM10.4368 127.045L8.58965 125.181L10.3489 123.298L12.196 125.181L10.4368 127.045ZM14.4941 137.425V134.663H16.9394C16.9863 134.463 17.0273 134.194 17.0625 133.853C17.0977 133.513 17.127 133.173 17.1505 132.833C17.1739 132.481 17.1798 132.188 17.1681 131.953L20.4754 130.792C20.2643 131.649 20.0532 132.452 19.8421 133.202C19.6427 133.941 19.4023 134.657 19.1208 135.349C18.851 136.029 18.4992 136.721 18.0653 137.425H14.4941ZM21.7068 137.425C20.8976 137.425 20.2115 137.348 19.6485 137.196C19.0973 137.032 18.6341 136.844 18.2588 136.633C17.8835 136.41 17.561 136.205 17.2912 136.017L18.7865 134.276C18.9507 134.358 19.1442 134.428 19.3671 134.487C19.5899 134.545 19.8362 134.592 20.1059 134.627C20.3757 134.651 20.6571 134.663 20.9503 134.663H21.7068V137.425ZM14.4941 134.663H14.67V137.425H14.4941C14.1423 137.425 13.9663 136.967 13.9663 136.052C13.9663 135.126 14.1423 134.663 14.4941 134.663ZM16.5172 142.157L14.67 140.274L16.4116 138.41L18.2588 140.274L16.5172 142.157ZM19.6134 142.157L17.7662 140.274L19.5254 138.41L21.3726 140.274L19.6134 142.157ZM21.7095 137.425V134.663H23.416V124.407H26.2483V137.425H21.7095ZM21.7095 134.663H21.8855V137.425H21.7095C21.3577 137.425 21.1818 136.967 21.1818 136.052C21.1818 135.126 21.3577 134.663 21.7095 134.663ZM32.0562 137.425C31.4698 137.425 30.9655 137.366 30.5433 137.249C30.1211 137.131 29.7693 136.95 29.4878 136.703C29.2181 136.445 29.0128 136.117 28.8721 135.718C28.7431 135.319 28.6786 134.839 28.6786 134.276V124.407H31.5109V133.255C31.5109 133.513 31.5285 133.736 31.5637 133.924C31.5988 134.1 31.6633 134.246 31.7572 134.364C31.851 134.469 31.98 134.545 32.1442 134.592C32.3201 134.639 32.5488 134.663 32.8303 134.663H33.5164V137.425H32.0562ZM33.512 137.425V134.663H33.5647C33.7055 134.663 33.8345 134.633 33.9518 134.575C34.0808 134.516 34.2156 134.416 34.3564 134.276C34.4971 134.135 34.6496 133.941 34.8138 133.695C34.9897 133.437 35.1949 133.115 35.4295 132.728C35.7696 132.165 36.098 131.69 36.4146 131.303C36.7313 130.904 37.0421 130.587 37.347 130.353C37.6637 130.118 37.9803 129.948 38.297 129.842C38.6136 129.737 38.9362 129.684 39.2645 129.684C39.804 129.684 40.2907 129.801 40.7247 130.036C41.1586 130.27 41.5632 130.646 41.9385 131.162C42.3138 131.666 42.6832 132.346 43.0468 133.202C43.2462 133.636 43.4338 133.959 43.6098 134.17C43.7974 134.381 44.0026 134.516 44.2255 134.575C44.4483 134.633 44.7122 134.663 45.0171 134.663H45.2106V137.425H44.331C43.8267 137.425 43.3811 137.342 42.994 137.178C42.6187 137.014 42.2904 136.797 42.0089 136.527C41.7274 136.246 41.4811 135.947 41.27 135.63C41.0707 135.314 40.9006 135.003 40.7599 134.698C40.537 134.229 40.3377 133.824 40.1617 133.484C39.9858 133.144 39.8158 132.886 39.6516 132.71C39.4874 132.522 39.3115 132.428 39.1238 132.428C39.0183 132.428 38.8775 132.493 38.7016 132.622C38.5257 132.739 38.3204 132.939 38.0859 133.22C37.8631 133.502 37.5992 133.889 37.2942 134.381C36.9893 134.885 36.7196 135.314 36.485 135.665C36.2505 136.017 36.0276 136.31 35.8165 136.545C35.6054 136.768 35.3943 136.944 35.1832 137.073C34.9721 137.202 34.7434 137.296 34.4971 137.354C34.2508 137.401 33.9635 137.425 33.6351 137.425H33.512ZM42.8533 136.633C42.4428 137.102 41.9678 137.425 41.4284 137.6C40.9006 137.776 40.3494 137.847 39.7747 137.812C39.2118 137.776 38.6606 137.665 38.1211 137.477C37.5933 137.29 37.1125 137.055 36.6785 136.774C36.2563 136.492 35.9221 136.199 35.6758 135.894L37.1007 134.223C37.2532 134.352 37.4878 134.498 37.8044 134.663C38.1328 134.827 38.514 134.979 38.9479 135.12C39.3936 135.249 39.8685 135.337 40.3728 135.384C40.8771 135.419 41.3873 135.378 41.9033 135.261L42.8533 136.633ZM33.512 134.663H33.6879V137.425H33.512C33.1601 137.425 32.9842 136.967 32.9842 136.052C32.9842 135.126 33.1601 134.663 33.512 134.663ZM45.2113 137.425V134.663H46.9177V124.407H49.75V137.425H45.2113ZM45.2113 134.663H45.3872V137.425H45.2113C44.8595 137.425 44.6836 136.967 44.6836 136.052C44.6836 135.126 44.8595 134.663 45.2113 134.663ZM52.1803 124.407H55.0126V137.425H52.1803V124.407ZM66.5383 137.161C65.6821 137.161 64.9257 137.038 64.2689 136.791C63.6121 136.545 63.0961 136.187 62.7208 135.718C62.3572 135.249 62.1755 134.686 62.1755 134.029C62.1755 133.419 62.3338 132.868 62.6504 132.376C62.9788 131.883 63.4304 131.437 64.005 131.039C64.5914 130.628 65.2775 130.247 66.0633 129.895C66.8608 129.532 67.7228 129.18 68.6493 128.84L69.0715 131.619C68.2857 131.807 67.629 132.006 67.1012 132.217C66.5852 132.417 66.1747 132.622 65.8698 132.833C65.5648 133.032 65.342 133.226 65.2013 133.414C65.0723 133.59 65.0078 133.742 65.0078 133.871C65.0078 134.023 65.1075 134.152 65.3068 134.258C65.5062 134.352 65.8815 134.399 66.4327 134.399C66.55 134.399 66.7201 134.393 66.9429 134.381C67.1657 134.369 67.4237 134.346 67.7169 134.311C68.0101 134.264 68.3209 134.199 68.6493 134.117L69.3002 136.439C68.8311 136.662 68.3854 136.838 67.9632 136.967C67.5527 137.096 67.0778 137.161 66.5383 137.161ZM70.8307 137.425C70.0801 137.425 69.4761 137.325 69.0187 137.125C68.5731 136.914 68.233 136.651 67.9984 136.334C67.7756 136.005 67.6231 135.654 67.541 135.278C67.4706 134.903 67.4355 134.551 67.4355 134.223V128.03H70.2678V133.431C70.2678 133.889 70.385 134.211 70.6196 134.399C70.8659 134.575 71.2588 134.663 71.7983 134.663H72.3788V137.425H70.8307ZM65.2189 127.045L63.3717 125.181L65.1133 123.298L66.9605 125.181L65.2189 127.045ZM68.3151 127.045L66.4679 125.181L68.2271 123.298L70.0743 125.181L68.3151 127.045ZM72.3723 137.425V134.663H74.8176C74.8645 134.463 74.9056 134.194 74.9408 133.853C74.976 133.513 75.0053 133.173 75.0287 132.833C75.0522 132.481 75.0581 132.188 75.0463 131.953L78.3536 130.792C78.1425 131.649 77.9314 132.452 77.7203 133.202C77.5209 133.941 77.2805 134.657 76.999 135.349C76.7293 136.029 76.3774 136.721 75.9435 137.425H72.3723ZM79.5851 137.425C78.7758 137.425 78.0897 137.348 77.5268 137.196C76.9756 137.032 76.5123 136.844 76.137 136.633C75.7617 136.41 75.4392 136.205 75.1695 136.017L76.6648 134.276C76.829 134.358 77.0225 134.428 77.2453 134.487C77.4682 134.545 77.7144 134.592 77.9842 134.627C78.2539 134.651 78.5354 134.663 78.8286 134.663H79.5851V137.425ZM72.3723 134.663H72.5483V137.425H72.3723C72.0205 137.425 71.8446 136.967 71.8446 136.052C71.8446 135.126 72.0205 134.663 72.3723 134.663ZM74.3954 142.157L72.5483 140.274L74.2899 138.41L76.137 140.274L74.3954 142.157ZM77.4916 142.157L75.6445 140.274L77.4036 138.41L79.2508 140.274L77.4916 142.157ZM79.5878 137.425V134.663H82.0331C82.08 134.463 82.121 134.194 82.1562 133.853C82.1914 133.513 82.2207 133.173 82.2442 132.833C82.2676 132.481 82.2735 132.188 82.2618 131.953L85.5691 130.792C85.358 131.649 85.1469 132.452 84.9358 133.202C84.7364 133.941 84.496 134.657 84.2145 135.349C83.9447 136.029 83.5929 136.721 83.159 137.425H79.5878ZM86.8005 137.425C85.9913 137.425 85.3052 137.348 84.7422 137.196C84.191 137.032 83.7278 136.844 83.3525 136.633C82.9772 136.41 82.6547 136.205 82.3849 136.017L83.8802 134.276C84.0444 134.358 84.2379 134.428 84.4608 134.487C84.6836 134.545 84.9299 134.592 85.1996 134.627C85.4694 134.651 85.7509 134.663 86.0441 134.663H86.8005V137.425ZM79.5878 134.663H79.7637V137.425H79.5878C79.236 137.425 79.06 136.967 79.06 136.052C79.06 135.126 79.236 134.663 79.5878 134.663ZM83.9858 129.772L82.121 127.907L83.8978 126.025L85.745 127.907L83.9858 129.772ZM86.8033 137.425V134.663H89.3365C89.3013 134.674 89.2544 134.692 89.1958 134.715C89.1488 134.739 89.0902 134.762 89.0198 134.786C88.9612 134.797 88.9026 134.809 88.8439 134.821C88.5859 134.481 88.41 134.135 88.3162 133.783C88.2223 133.431 88.1754 133.073 88.1754 132.71C88.1754 132.229 88.2634 131.766 88.4393 131.32C88.6152 130.874 88.8791 130.47 89.2309 130.106C89.5828 129.743 90.0167 129.455 90.5327 129.244C91.0605 129.033 91.6645 128.928 92.3447 128.928C93.0367 128.928 93.6407 129.033 94.1567 129.244C94.6845 129.455 95.1243 129.743 95.4761 130.106C95.8279 130.47 96.0918 130.874 96.2677 131.32C96.4554 131.766 96.5492 132.229 96.5492 132.71C96.5492 133.085 96.4964 133.449 96.3909 133.801C96.2971 134.141 96.1211 134.481 95.8631 134.821C95.7576 134.797 95.6989 134.774 95.6872 134.751C95.6755 134.727 95.6168 134.698 95.5113 134.663H97.5695V137.425H97.1297C96.2971 137.425 95.6051 137.419 95.0539 137.407C94.5027 137.384 94.0277 137.342 93.6289 137.284C93.2419 137.225 92.8608 137.125 92.4855 136.985C92.3095 137.043 92.1395 137.102 91.9753 137.161C91.8111 137.208 91.6117 137.255 91.3772 137.301C91.1543 137.337 90.8553 137.366 90.48 137.389C90.1164 137.413 89.6356 137.425 89.0374 137.425H86.8033ZM92.3447 134.803C92.6262 134.674 92.8608 134.516 93.0484 134.328C93.236 134.141 93.3768 133.93 93.4706 133.695C93.5644 133.461 93.6113 133.214 93.6113 132.956C93.6113 132.722 93.5586 132.511 93.453 132.323C93.3592 132.135 93.2185 131.983 93.0308 131.865C92.8432 131.748 92.6145 131.69 92.3447 131.69C92.0867 131.69 91.8639 131.748 91.6762 131.865C91.4886 131.983 91.342 132.141 91.2364 132.34C91.1426 132.528 91.0957 132.733 91.0957 132.956C91.0957 133.214 91.1426 133.461 91.2364 133.695C91.3303 133.918 91.471 134.123 91.6586 134.311C91.8463 134.498 92.075 134.663 92.3447 134.803ZM86.8033 134.663H86.9792V137.425H86.8033C86.4514 137.425 86.2755 136.967 86.2755 136.052C86.2755 135.126 86.4514 134.663 86.8033 134.663ZM90.8494 127.45L89.0022 125.585L90.7439 123.703L92.591 125.585L90.8494 127.45ZM93.9456 127.45L92.0984 125.585L93.8576 123.703L95.7048 125.585L93.9456 127.45ZM97.5749 137.425V134.663H100.425C100.472 134.463 100.513 134.194 100.548 133.853C100.583 133.513 100.612 133.173 100.636 132.833C100.659 132.481 100.665 132.188 100.653 131.953L103.961 130.792C103.75 131.649 103.539 132.452 103.327 133.202C103.128 133.941 102.888 134.657 102.606 135.349C102.336 136.029 101.985 136.721 101.551 137.425H97.5749ZM104.964 137.425C104.154 137.425 103.468 137.348 102.905 137.196C102.342 137.032 101.873 136.844 101.498 136.633C101.134 136.41 100.818 136.205 100.548 136.017L102.008 134.276C102.184 134.358 102.383 134.428 102.606 134.487C102.829 134.545 103.075 134.592 103.345 134.627C103.615 134.651 103.902 134.663 104.207 134.663H105.351V137.425H104.964ZM97.5749 134.663H97.7508V137.425H97.5749C97.2231 137.425 97.0471 136.967 97.0471 136.052C97.0471 135.126 97.2231 134.663 97.5749 134.663ZM100.812 129.772L98.9647 127.907L100.706 126.025L102.553 127.907L100.812 129.772ZM103.908 129.772L102.061 127.907L103.82 126.025L105.667 127.907L103.908 129.772ZM109.368 134.663H111.479V137.425H109.368V134.663ZM105.357 137.425V134.663H107.064V124.407H109.896V137.425H105.357ZM105.357 134.663H105.533V137.425H105.357C105.005 137.425 104.83 136.967 104.83 136.052C104.83 135.126 105.005 134.663 105.357 134.663ZM111.473 137.425V134.663H113.18V124.407H116.012V137.425H111.473ZM111.473 134.663H111.649V137.425H111.473C111.121 137.425 110.945 136.967 110.945 136.052C110.945 135.126 111.121 134.663 111.473 134.663ZM127.543 137.161C126.687 137.161 125.931 137.038 125.274 136.791C124.617 136.545 124.101 136.187 123.726 135.718C123.362 135.249 123.18 134.686 123.18 134.029C123.18 133.419 123.339 132.868 123.655 132.376C123.984 131.883 124.435 131.437 125.01 131.039C125.596 130.628 126.282 130.247 127.068 129.895C127.866 129.532 128.728 129.18 129.654 128.84L130.076 131.619C129.291 131.807 128.634 132.006 128.106 132.217C127.59 132.417 127.18 132.622 126.875 132.833C126.57 133.032 126.347 133.226 126.206 133.414C126.077 133.59 126.013 133.742 126.013 133.871C126.013 134.023 126.112 134.152 126.312 134.258C126.511 134.352 126.886 134.399 127.438 134.399C127.555 134.399 127.725 134.393 127.948 134.381C128.171 134.369 128.429 134.346 128.722 134.311C129.015 134.264 129.326 134.199 129.654 134.117L130.305 136.439C129.836 136.662 129.39 136.838 128.968 136.967C128.558 137.096 128.083 137.161 127.543 137.161ZM131.836 137.425C131.085 137.425 130.481 137.325 130.024 137.125C129.578 136.914 129.238 136.651 129.003 136.334C128.781 136.005 128.628 135.654 128.546 135.278C128.476 134.903 128.44 134.551 128.44 134.223V128.03H131.273V133.431C131.273 133.889 131.39 134.211 131.625 134.399C131.871 134.575 132.264 134.663 132.803 134.663H133.384V137.425H131.836ZM126.224 127.045L124.377 125.181L126.118 123.298L127.965 125.181L126.224 127.045ZM129.32 127.045L127.473 125.181L129.232 123.298L131.079 125.181L129.32 127.045ZM133.377 137.425V134.663H136.227C136.274 134.463 136.315 134.194 136.35 133.853C136.386 133.513 136.415 133.173 136.438 132.833C136.462 132.481 136.468 132.188 136.456 131.953L139.763 130.792C139.552 131.649 139.341 132.452 139.13 133.202C138.93 133.941 138.69 134.657 138.409 135.349C138.139 136.029 137.787 136.721 137.353 137.425H133.377ZM140.766 137.425C139.957 137.425 139.271 137.348 138.708 137.196C138.145 137.032 137.676 136.844 137.3 136.633C136.937 136.41 136.62 136.205 136.35 136.017L137.81 134.276C137.986 134.358 138.186 134.428 138.409 134.487C138.631 134.545 138.878 134.592 139.147 134.627C139.417 134.651 139.705 134.663 140.009 134.663H141.153V137.425H140.766ZM133.377 134.663H133.553V137.425H133.377C133.025 137.425 132.85 136.967 132.85 136.052C132.85 135.126 133.025 134.663 133.377 134.663ZM135.787 142.157L133.94 140.274L135.682 138.41L137.529 140.274L135.787 142.157ZM138.884 142.157L137.036 140.274L138.796 138.41L140.643 140.274L138.884 142.157ZM141.16 137.425V134.663H144.256C144.162 134.252 143.98 133.795 143.711 133.29C143.441 132.786 143.101 132.276 142.69 131.76L145.223 129.174C145.575 129.842 145.88 130.575 146.138 131.373C146.396 132.17 146.525 133.068 146.525 134.064C146.537 135.05 146.326 136.17 145.892 137.425H141.16ZM141.16 134.663H141.336V137.425H141.16C140.808 137.425 140.632 136.967 140.632 136.052C140.632 135.126 140.808 134.663 141.16 134.663ZM144.15 142.157L142.286 140.274L144.062 138.41L145.909 140.274L144.15 142.157ZM149.45 141.928C148.922 141.928 148.336 141.811 147.691 141.576C147.058 141.342 146.483 141.007 145.967 140.574L146.846 138.797C147.316 138.937 147.708 139.031 148.025 139.078C148.342 139.137 148.641 139.166 148.922 139.166C149.556 139.166 150.113 139.043 150.594 138.797C151.086 138.562 151.467 138.24 151.737 137.829C152.018 137.419 152.159 136.973 152.159 136.492C152.159 136.093 152.095 135.759 151.966 135.489C151.848 135.208 151.69 134.944 151.491 134.698C151.303 134.44 151.098 134.147 150.875 133.818L154.657 135.648C154.657 135.789 154.657 135.929 154.657 136.07C154.657 136.211 154.657 136.351 154.657 136.492C154.657 136.844 154.599 137.255 154.481 137.724C154.376 138.193 154.2 138.668 153.954 139.149C153.707 139.641 153.379 140.099 152.968 140.521C152.57 140.943 152.077 141.283 151.491 141.541C150.916 141.799 150.236 141.928 149.45 141.928ZM156.047 137.425C155.625 137.425 155.226 137.389 154.851 137.319C154.487 137.237 154.141 137.114 153.813 136.95C153.496 136.785 153.191 136.574 152.898 136.316C152.617 136.058 152.335 135.747 152.054 135.384L149.767 132.446L152.018 129.684L154.235 133.554C154.399 133.836 154.552 134.059 154.692 134.223C154.833 134.387 155.003 134.504 155.203 134.575C155.414 134.633 155.695 134.663 156.047 134.663H156.223V137.425H156.047ZM166.834 137.425C166.177 137.425 165.585 137.425 165.057 137.425C164.53 137.413 164.037 137.378 163.58 137.319C163.134 137.26 162.706 137.167 162.295 137.038C161.885 136.897 161.469 136.697 161.046 136.439C160.636 136.181 160.196 135.841 159.727 135.419L157.616 133.502V130.071C158.015 129.895 158.478 129.743 159.006 129.614C159.545 129.473 160.091 129.362 160.642 129.279C161.193 129.197 161.686 129.156 162.12 129.156C162.882 129.156 163.574 129.256 164.195 129.455C164.817 129.655 165.31 129.96 165.673 130.37C166.048 130.781 166.236 131.308 166.236 131.953C166.236 132.294 166.189 132.628 166.095 132.956C166.001 133.273 165.872 133.584 165.708 133.889C165.556 134.182 165.38 134.457 165.181 134.715C165.251 134.692 165.321 134.68 165.392 134.68C165.462 134.668 165.527 134.663 165.585 134.663H167.274V137.425H166.834ZM156.226 137.425V134.663H158.478C158.83 134.663 159.117 134.657 159.34 134.645C159.575 134.622 159.803 134.592 160.026 134.557C160.261 134.51 160.554 134.457 160.906 134.399L162.207 136.862C161.609 137.038 160.923 137.178 160.149 137.284C159.387 137.378 158.607 137.425 157.81 137.425H156.226ZM162.12 134.539C162.366 134.328 162.583 134.117 162.77 133.906C162.97 133.695 163.122 133.484 163.228 133.273C163.345 133.062 163.404 132.862 163.404 132.675C163.404 132.569 163.363 132.458 163.281 132.34C163.199 132.211 163.064 132.106 162.876 132.024C162.688 131.942 162.436 131.901 162.12 131.901C161.826 131.901 161.463 131.924 161.029 131.971C160.595 132.006 160.208 132.071 159.868 132.165L161.486 133.871C161.615 133.988 161.727 134.106 161.82 134.223C161.926 134.34 162.026 134.446 162.12 134.539ZM156.226 134.663H156.402V137.425H156.226C155.874 137.425 155.698 136.967 155.698 136.052C155.698 135.126 155.874 134.663 156.226 134.663ZM167.273 137.425V134.663H168.979V124.407H171.811V137.425H167.273ZM167.273 134.663H167.449V137.425H167.273C166.921 137.425 166.745 136.967 166.745 136.052C166.745 135.126 166.921 134.663 167.273 134.663ZM174.242 124.407H177.074V137.425H174.242V124.407Z" fill="#435363"/>
<path d="M4.50901 164.277L7.88954 155.545H9.26172L12.6173 164.277H11.1828L9.18687 159.013C9.16192 158.955 9.11202 158.814 9.03718 158.589C8.97065 158.365 8.89165 158.115 8.80017 157.841C8.70869 157.566 8.62553 157.317 8.55068 157.092C8.47584 156.859 8.42594 156.71 8.40099 156.643L8.6879 156.631C8.638 156.772 8.57563 156.951 8.50078 157.167C8.43425 157.383 8.35941 157.612 8.27625 157.853C8.2014 158.094 8.12656 158.323 8.05171 158.539C7.97686 158.747 7.91449 158.922 7.86459 159.063L5.88118 164.277H4.50901ZM6.00592 162.107L6.5049 160.81H10.4717L11.0455 162.107H6.00592ZM14.5797 164.277V156.057H15.8645V164.277H14.5797ZM13.22 158.976V157.728H17.3864V158.976H13.22ZM23.2731 167.022V162.718H23.5226C23.5226 162.918 23.456 163.117 23.323 163.317C23.1899 163.508 23.0111 163.687 22.7866 163.853C22.562 164.02 22.3126 164.153 22.0381 164.253C21.7637 164.352 21.4809 164.402 21.1899 164.402C20.5994 164.402 20.0713 164.257 19.6056 163.966C19.1399 163.666 18.7699 163.263 18.4954 162.756C18.2293 162.24 18.0962 161.654 18.0962 160.997C18.0962 160.34 18.2293 159.758 18.4954 159.25C18.7615 158.735 19.1233 158.331 19.5807 158.04C20.0464 157.741 20.5703 157.591 21.1525 157.591C21.4768 157.591 21.7845 157.645 22.0756 157.753C22.3749 157.862 22.6411 158.003 22.8739 158.178C23.1151 158.352 23.3022 158.548 23.4352 158.764C23.5766 158.972 23.6473 159.184 23.6473 159.4L23.2731 159.425V157.716H24.5579V167.022H23.2731ZM21.3271 163.217C21.718 163.217 22.0631 163.122 22.3625 162.93C22.6618 162.739 22.8947 162.477 23.061 162.144C23.2357 161.812 23.323 161.429 23.323 160.997C23.323 160.564 23.2357 160.182 23.061 159.849C22.8947 159.508 22.6618 159.242 22.3625 159.051C22.0631 158.859 21.718 158.764 21.3271 158.764C20.9362 158.764 20.5911 158.864 20.2917 159.063C19.9923 159.254 19.7553 159.521 19.5807 159.862C19.4144 160.194 19.3312 160.573 19.3312 160.997C19.3312 161.421 19.4144 161.803 19.5807 162.144C19.7553 162.477 19.9923 162.739 20.2917 162.93C20.5911 163.122 20.9362 163.217 21.3271 163.217ZM30.2323 164.277V160.011C30.2323 159.645 30.0992 159.35 29.8331 159.126C29.5753 158.893 29.2468 158.776 28.8476 158.776C28.4817 158.776 28.1491 158.851 27.8497 159.001C27.5586 159.151 27.2925 159.379 27.0513 159.687L26.2156 158.851C26.6064 158.427 27.0264 158.111 27.4755 157.903C27.9328 157.695 28.4235 157.591 28.9474 157.591C29.4464 157.591 29.8788 157.674 30.2448 157.841C30.6107 158.007 30.8934 158.252 31.093 158.577C31.2926 158.893 31.3924 159.279 31.3924 159.737V164.277H30.2323ZM28.2738 164.402C27.8497 164.402 27.4713 164.319 27.1387 164.153C26.806 163.986 26.5399 163.758 26.3403 163.467C26.149 163.167 26.0534 162.818 26.0534 162.419C26.0534 162.07 26.1158 161.762 26.2405 161.496C26.3652 161.23 26.5482 161.009 26.7894 160.835C27.0389 160.66 27.3466 160.527 27.7125 160.435C28.0867 160.344 28.515 160.298 28.9973 160.298H30.8186L30.7063 161.321H28.8352C28.5857 161.321 28.3611 161.346 28.1615 161.396C27.9703 161.437 27.8039 161.508 27.6626 161.608C27.5295 161.699 27.4297 161.812 27.3632 161.945C27.2967 162.07 27.2634 162.219 27.2634 162.394C27.2634 162.577 27.3091 162.739 27.4006 162.88C27.4921 163.013 27.6168 163.117 27.7748 163.192C27.9328 163.267 28.1158 163.304 28.3237 163.304C28.6231 163.304 28.9058 163.255 29.172 163.155C29.4464 163.047 29.6876 162.901 29.8955 162.718C30.1117 162.535 30.278 162.331 30.3944 162.107L30.6938 162.943C30.5192 163.234 30.303 163.487 30.0452 163.704C29.7874 163.92 29.5088 164.09 29.2094 164.215C28.91 164.34 28.5981 164.402 28.2738 164.402ZM33.0163 164.277V157.728H34.3011V159.076L34.0766 159.225C34.1598 158.934 34.3219 158.668 34.5631 158.427C34.8043 158.178 35.0912 157.978 35.4238 157.828C35.7565 157.67 36.0974 157.591 36.4467 157.591C36.9457 157.591 37.3615 157.691 37.6942 157.891C38.0268 158.082 38.2763 158.377 38.4426 158.776C38.6089 159.175 38.6921 159.679 38.6921 160.286V164.277H37.4072V160.373C37.4072 159.999 37.3573 159.691 37.2576 159.45C37.1578 159.2 37.0039 159.022 36.796 158.914C36.5881 158.797 36.3303 158.747 36.0226 158.764C35.7731 158.764 35.5444 158.805 35.3365 158.889C35.1286 158.963 34.9456 159.072 34.7876 159.213C34.6379 159.354 34.5174 159.521 34.4259 159.712C34.3427 159.895 34.3011 160.094 34.3011 160.311V164.277H33.665C33.5568 164.277 33.4487 164.277 33.3406 164.277C33.2325 164.277 33.1244 164.277 33.0163 164.277ZM48.1601 164.402C47.5281 164.402 46.9376 164.29 46.3887 164.065C45.8399 163.833 45.3575 163.512 44.9417 163.105C44.5259 162.697 44.2016 162.223 43.9687 161.683C43.7442 161.134 43.6319 160.543 43.6319 159.911C43.6319 159.288 43.7442 158.706 43.9687 158.165C44.2016 157.625 44.5217 157.155 44.9292 156.755C45.3451 156.348 45.8274 156.032 46.3763 155.807C46.9251 155.583 47.5156 155.471 48.1476 155.471C48.5884 155.471 49.0167 155.533 49.4325 155.658C49.8566 155.782 50.2391 155.957 50.5801 156.182C50.9211 156.406 51.1997 156.664 51.4159 156.955L50.5427 157.866C50.1684 157.508 49.7776 157.238 49.3701 157.055C48.9709 156.872 48.5634 156.78 48.1476 156.78C47.6985 156.78 47.2827 156.859 46.9002 157.017C46.526 157.175 46.1933 157.396 45.9022 157.679C45.6195 157.961 45.3991 158.294 45.2411 158.677C45.0831 159.051 45.0041 159.462 45.0041 159.911C45.0041 160.344 45.0873 160.756 45.2536 161.146C45.4199 161.529 45.6486 161.866 45.9397 162.157C46.239 162.448 46.58 162.677 46.9626 162.843C47.3534 163.009 47.7651 163.092 48.1975 163.092C48.5218 163.092 48.8295 163.047 49.1206 162.955C49.4117 162.855 49.6695 162.718 49.894 162.544C50.1186 162.369 50.2932 162.169 50.4179 161.945C50.5427 161.712 50.605 161.467 50.605 161.209V160.959L50.7922 161.134H48.1227V159.799H51.9897C52.0063 159.891 52.0188 159.982 52.0271 160.074C52.0354 160.157 52.0396 160.24 52.0396 160.323C52.0479 160.398 52.0521 160.473 52.0521 160.548C52.0521 161.121 51.9523 161.645 51.7527 162.119C51.5531 162.585 51.2745 162.988 50.9169 163.329C50.5676 163.67 50.156 163.937 49.682 164.128C49.2162 164.311 48.709 164.402 48.1601 164.402ZM55.7772 164.402C55.3115 164.402 54.904 164.294 54.5547 164.078C54.2138 163.862 53.9476 163.558 53.7564 163.167C53.5734 162.776 53.4819 162.311 53.4819 161.77V157.728H54.7668V161.421C54.7668 161.995 54.8998 162.448 55.166 162.781C55.4404 163.113 55.8188 163.28 56.3011 163.28C56.5423 163.28 56.7627 163.242 56.9623 163.167C57.1619 163.084 57.3323 162.972 57.4737 162.83C57.6234 162.689 57.7398 162.519 57.823 162.319C57.9062 162.119 57.9477 161.903 57.9477 161.67V157.728H59.2326V164.277H57.9477V162.905L58.1723 162.756C58.0725 163.063 57.902 163.342 57.6608 163.591C57.428 163.841 57.1494 164.04 56.825 164.19C56.5007 164.332 56.1514 164.402 55.7772 164.402ZM61.0597 164.277V155.046H62.3445V164.277H61.0597ZM64.8765 164.277V156.992C64.8765 156.618 64.9597 156.286 65.126 155.995C65.2923 155.703 65.521 155.475 65.8121 155.308C66.1032 155.142 66.44 155.059 66.8225 155.059C67.0886 155.059 67.3381 155.109 67.571 155.209C67.8038 155.308 67.9909 155.442 68.1323 155.608L67.6957 156.593C67.5876 156.494 67.467 156.414 67.334 156.356C67.2092 156.29 67.0886 156.256 66.9722 156.256C66.7976 156.256 66.6479 156.286 66.5231 156.344C66.4067 156.394 66.3194 156.477 66.2612 156.593C66.203 156.701 66.1738 156.834 66.1738 156.992V164.277H65.5252C65.4171 164.277 65.309 164.277 65.2009 164.277C65.0927 164.277 64.9846 164.277 64.8765 164.277ZM63.8287 159.026V157.841H67.7207V159.026H63.8287ZM71.9725 164.277L75.3531 155.545H76.7253L80.0808 164.277H78.6463L76.6504 159.013C76.6255 158.955 76.5756 158.814 76.5007 158.589C76.4342 158.365 76.3552 158.115 76.2637 157.841C76.1722 157.566 76.0891 157.317 76.0142 157.092C75.9394 156.859 75.8895 156.71 75.8645 156.643L76.1514 156.631C76.1015 156.772 76.0392 156.951 75.9643 157.167C75.8978 157.383 75.8229 157.612 75.7398 157.853C75.6649 158.094 75.5901 158.323 75.5152 158.539C75.4404 158.747 75.378 158.922 75.3281 159.063L73.3447 164.277H71.9725ZM73.4695 162.107L73.9684 160.81H77.9353L78.5091 162.107H73.4695ZM81.2933 164.277V157.728H82.5906V159.787L82.4659 159.288C82.5573 158.972 82.7112 158.685 82.9274 158.427C83.152 158.169 83.4056 157.965 83.6883 157.816C83.9794 157.666 84.2788 157.591 84.5865 157.591C84.7279 157.591 84.8609 157.604 84.9857 157.629C85.1187 157.654 85.2227 157.683 85.2975 157.716L84.9607 159.113C84.8609 159.072 84.7487 159.038 84.6239 159.013C84.5075 158.98 84.3911 158.963 84.2746 158.963C84.0501 158.963 83.8339 159.009 83.626 159.101C83.4264 159.184 83.2476 159.304 83.0896 159.462C82.9399 159.612 82.8193 159.791 82.7278 159.999C82.6363 160.198 82.5906 160.419 82.5906 160.66V164.277H81.2933ZM89.9237 164.277V160.011C89.9237 159.645 89.7907 159.35 89.5246 159.126C89.2668 158.893 88.9383 158.776 88.5391 158.776C88.1732 158.776 87.8405 158.851 87.5412 159.001C87.2501 159.151 86.984 159.379 86.7428 159.687L85.907 158.851C86.2979 158.427 86.7178 158.111 87.1669 157.903C87.6243 157.695 88.115 157.591 88.6389 157.591C89.1379 157.591 89.5703 157.674 89.9362 157.841C90.3021 158.007 90.5849 158.252 90.7845 158.577C90.9841 158.893 91.0839 159.279 91.0839 159.737V164.277H89.9237ZM87.9653 164.402C87.5412 164.402 87.1628 164.319 86.8301 164.153C86.4975 163.986 86.2314 163.758 86.0318 163.467C85.8405 163.167 85.7449 162.818 85.7449 162.419C85.7449 162.07 85.8072 161.762 85.932 161.496C86.0567 161.23 86.2397 161.009 86.4808 160.835C86.7303 160.66 87.038 160.527 87.4039 160.435C87.7782 160.344 88.2064 160.298 88.6888 160.298H90.51L90.3978 161.321H88.5266C88.2771 161.321 88.0526 161.346 87.853 161.396C87.6617 161.437 87.4954 161.508 87.354 161.608C87.221 161.699 87.1212 161.812 87.0547 161.945C86.9881 162.07 86.9549 162.219 86.9549 162.394C86.9549 162.577 87.0006 162.739 87.0921 162.88C87.1836 163.013 87.3083 163.117 87.4663 163.192C87.6243 163.267 87.8073 163.304 88.0152 163.304C88.3146 163.304 88.5973 163.255 88.8634 163.155C89.1379 163.047 89.379 162.901 89.5869 162.718C89.8032 162.535 89.9695 162.331 90.0859 162.107L90.3853 162.943C90.2107 163.234 89.9944 163.487 89.7366 163.704C89.4788 163.92 89.2002 164.09 88.9009 164.215C88.6015 164.34 88.2896 164.402 87.9653 164.402ZM96.1507 164.402C95.8679 164.402 95.5852 164.356 95.3024 164.265C95.028 164.174 94.7743 164.053 94.5415 163.903C94.3169 163.745 94.1257 163.575 93.9677 163.392C93.818 163.201 93.7182 163.009 93.6683 162.818L93.9926 162.643V164.24H92.7078V155.046H93.9926V159.225L93.793 159.113C93.8346 158.922 93.9261 158.739 94.0675 158.564C94.2088 158.381 94.3876 158.219 94.6039 158.078C94.8284 157.928 95.0696 157.812 95.3274 157.728C95.5852 157.637 95.8471 157.591 96.1132 157.591C96.7037 157.591 97.2276 157.737 97.685 158.028C98.1424 158.319 98.5041 158.722 98.7703 159.238C99.0364 159.745 99.1694 160.327 99.1694 160.984C99.1694 161.641 99.0364 162.228 98.7703 162.743C98.5125 163.259 98.1549 163.666 97.6975 163.966C97.2401 164.257 96.7245 164.402 96.1507 164.402ZM95.9386 163.23C96.3211 163.23 96.6621 163.134 96.9615 162.943C97.2609 162.743 97.4979 162.477 97.6725 162.144C97.8472 161.803 97.9345 161.417 97.9345 160.984C97.9345 160.56 97.8472 160.182 97.6725 159.849C97.5062 159.508 97.2734 159.242 96.974 159.051C96.6746 158.859 96.3295 158.764 95.9386 158.764C95.5477 158.764 95.2026 158.859 94.9032 159.051C94.6039 159.242 94.3668 159.508 94.1922 159.849C94.0176 160.182 93.9302 160.56 93.9302 160.984C93.9302 161.417 94.0176 161.803 94.1922 162.144C94.3668 162.477 94.6039 162.743 94.9032 162.943C95.2026 163.134 95.5477 163.23 95.9386 163.23ZM107.928 164.402C107.321 164.402 106.764 164.294 106.257 164.078C105.75 163.862 105.309 163.554 104.935 163.155C104.56 162.747 104.269 162.269 104.061 161.72C103.862 161.171 103.762 160.568 103.762 159.911C103.762 159.288 103.87 158.71 104.086 158.178C104.311 157.637 104.619 157.163 105.009 156.755C105.4 156.348 105.853 156.032 106.369 155.807C106.885 155.583 107.442 155.471 108.041 155.471C108.465 155.471 108.876 155.537 109.276 155.67C109.683 155.795 110.049 155.974 110.373 156.207C110.706 156.431 110.976 156.689 111.184 156.98L110.286 157.916C109.928 157.55 109.562 157.275 109.188 157.092C108.814 156.909 108.431 156.818 108.041 156.818C107.633 156.818 107.251 156.897 106.893 157.055C106.544 157.205 106.236 157.417 105.97 157.691C105.712 157.965 105.508 158.294 105.359 158.677C105.209 159.051 105.134 159.462 105.134 159.911C105.134 160.385 105.205 160.818 105.346 161.209C105.496 161.591 105.704 161.92 105.97 162.194C106.236 162.469 106.552 162.681 106.918 162.83C107.292 162.972 107.704 163.043 108.153 163.043C108.427 163.043 108.698 163.005 108.964 162.93C109.23 162.855 109.479 162.747 109.712 162.606C109.945 162.465 110.157 162.298 110.348 162.107L111.022 163.205C110.831 163.429 110.569 163.633 110.236 163.816C109.912 163.999 109.546 164.144 109.138 164.253C108.739 164.352 108.336 164.402 107.928 164.402ZM115.472 164.402C114.831 164.402 114.258 164.257 113.75 163.966C113.251 163.666 112.856 163.263 112.565 162.756C112.274 162.24 112.129 161.654 112.129 160.997C112.129 160.34 112.274 159.758 112.565 159.25C112.856 158.735 113.251 158.331 113.75 158.04C114.258 157.741 114.831 157.591 115.472 157.591C116.104 157.591 116.669 157.741 117.168 158.04C117.675 158.331 118.075 158.735 118.366 159.25C118.657 159.758 118.802 160.34 118.802 160.997C118.802 161.654 118.657 162.24 118.366 162.756C118.075 163.263 117.675 163.666 117.168 163.966C116.669 164.257 116.104 164.402 115.472 164.402ZM115.472 163.23C115.863 163.23 116.212 163.134 116.52 162.943C116.827 162.743 117.068 162.477 117.243 162.144C117.418 161.803 117.501 161.421 117.493 160.997C117.501 160.564 117.418 160.182 117.243 159.849C117.068 159.508 116.827 159.242 116.52 159.051C116.212 158.859 115.863 158.764 115.472 158.764C115.081 158.764 114.727 158.864 114.411 159.063C114.104 159.254 113.863 159.521 113.688 159.862C113.513 160.194 113.43 160.573 113.438 160.997C113.43 161.421 113.513 161.803 113.688 162.144C113.863 162.477 114.104 162.743 114.411 162.943C114.727 163.134 115.081 163.23 115.472 163.23ZM120.726 164.415C120.452 164.415 120.24 164.336 120.09 164.178C119.94 164.011 119.866 163.778 119.866 163.479C119.866 163.205 119.945 162.98 120.103 162.805C120.261 162.631 120.468 162.544 120.726 162.544C121.001 162.544 121.213 162.627 121.362 162.793C121.512 162.951 121.587 163.18 121.587 163.479C121.587 163.754 121.508 163.978 121.35 164.153C121.192 164.327 120.984 164.415 120.726 164.415ZM126.861 164.277V155.545H128.209V164.277H126.861ZM127.46 160.56V159.263H131.963V160.56H127.46ZM127.46 156.843V155.545H132.525V156.843H127.46ZM134.253 164.277V157.728H135.538V164.277H134.253ZM134.877 156.281C134.602 156.281 134.39 156.211 134.241 156.069C134.091 155.928 134.016 155.728 134.016 155.471C134.016 155.229 134.091 155.034 134.241 154.884C134.399 154.735 134.611 154.66 134.877 154.66C135.151 154.66 135.363 154.73 135.513 154.872C135.663 155.013 135.738 155.213 135.738 155.471C135.738 155.712 135.659 155.907 135.501 156.057C135.351 156.207 135.143 156.281 134.877 156.281ZM137.513 164.277V157.728H138.798V159.076L138.573 159.225C138.656 158.934 138.819 158.668 139.06 158.427C139.301 158.178 139.588 157.978 139.92 157.828C140.253 157.67 140.594 157.591 140.943 157.591C141.442 157.591 141.858 157.691 142.191 157.891C142.523 158.082 142.773 158.377 142.939 158.776C143.106 159.175 143.189 159.679 143.189 160.286V164.277H141.904V160.373C141.904 159.999 141.854 159.691 141.754 159.45C141.654 159.2 141.501 159.022 141.293 158.914C141.085 158.797 140.827 158.747 140.519 158.764C140.27 158.764 140.041 158.805 139.833 158.889C139.625 158.963 139.442 159.072 139.284 159.213C139.135 159.354 139.014 159.521 138.922 159.712C138.839 159.895 138.798 160.094 138.798 160.311V164.277H138.162C138.053 164.277 137.945 164.277 137.837 164.277C137.729 164.277 137.621 164.277 137.513 164.277ZM148.811 164.277V160.011C148.811 159.645 148.678 159.35 148.412 159.126C148.154 158.893 147.826 158.776 147.427 158.776C147.061 158.776 146.728 158.851 146.429 159.001C146.138 159.151 145.871 159.379 145.63 159.687L144.794 158.851C145.185 158.427 145.605 158.111 146.054 157.903C146.512 157.695 147.002 157.591 147.526 157.591C148.025 157.591 148.458 157.674 148.824 157.841C149.19 158.007 149.472 158.252 149.672 158.577C149.872 158.893 149.971 159.279 149.971 159.737V164.277H148.811ZM146.853 164.402C146.429 164.402 146.05 164.319 145.718 164.153C145.385 163.986 145.119 163.758 144.919 163.467C144.728 163.167 144.632 162.818 144.632 162.419C144.632 162.07 144.695 161.762 144.819 161.496C144.944 161.23 145.127 161.009 145.368 160.835C145.618 160.66 145.925 160.527 146.291 160.435C146.666 160.344 147.094 160.298 147.576 160.298H149.397L149.285 161.321H147.414C147.165 161.321 146.94 161.346 146.74 161.396C146.549 161.437 146.383 161.508 146.241 161.608C146.108 161.699 146.009 161.812 145.942 161.945C145.876 162.07 145.842 162.219 145.842 162.394C145.842 162.577 145.888 162.739 145.98 162.88C146.071 163.013 146.196 163.117 146.354 163.192C146.512 163.267 146.695 163.304 146.903 163.304C147.202 163.304 147.485 163.255 147.751 163.155C148.025 163.047 148.266 162.901 148.474 162.718C148.691 162.535 148.857 162.331 148.973 162.107L149.273 162.943C149.098 163.234 148.882 163.487 148.624 163.704C148.366 163.92 148.088 164.09 147.788 164.215C147.489 164.34 147.177 164.402 146.853 164.402ZM151.595 164.277V157.728H152.88V159.076L152.656 159.225C152.739 158.934 152.901 158.668 153.142 158.427C153.383 158.178 153.67 157.978 154.003 157.828C154.335 157.67 154.676 157.591 155.026 157.591C155.525 157.591 155.94 157.691 156.273 157.891C156.606 158.082 156.855 158.377 157.022 158.776C157.188 159.175 157.271 159.679 157.271 160.286V164.277H155.986V160.373C155.986 159.999 155.936 159.691 155.836 159.45C155.737 159.2 155.583 159.022 155.375 158.914C155.167 158.797 154.909 158.747 154.602 158.764C154.352 158.764 154.123 158.805 153.915 158.889C153.708 158.963 153.525 159.072 153.367 159.213C153.217 159.354 153.096 159.521 153.005 159.712C152.922 159.895 152.88 160.094 152.88 160.311V164.277H152.244C152.136 164.277 152.028 164.277 151.92 164.277C151.811 164.277 151.703 164.277 151.595 164.277ZM161.796 164.402C161.189 164.402 160.644 164.253 160.162 163.953C159.688 163.654 159.309 163.246 159.026 162.731C158.752 162.215 158.615 161.637 158.615 160.997C158.615 160.356 158.752 159.778 159.026 159.263C159.309 158.747 159.688 158.34 160.162 158.04C160.644 157.741 161.189 157.591 161.796 157.591C162.378 157.591 162.906 157.712 163.38 157.953C163.862 158.186 164.228 158.506 164.478 158.914L163.767 159.787C163.634 159.595 163.463 159.421 163.255 159.263C163.047 159.105 162.827 158.98 162.594 158.889C162.361 158.797 162.137 158.751 161.921 158.751C161.521 158.751 161.164 158.851 160.848 159.051C160.54 159.242 160.295 159.508 160.112 159.849C159.929 160.19 159.837 160.573 159.837 160.997C159.837 161.421 159.933 161.803 160.124 162.144C160.316 162.477 160.569 162.743 160.885 162.943C161.201 163.142 161.55 163.242 161.933 163.242C162.158 163.242 162.374 163.205 162.582 163.13C162.798 163.055 163.006 162.943 163.205 162.793C163.405 162.643 163.592 162.46 163.767 162.244L164.478 163.117C164.212 163.492 163.829 163.799 163.33 164.04C162.839 164.282 162.328 164.402 161.796 164.402ZM165.902 164.277V157.728H167.187V164.277H165.902ZM166.525 156.281C166.251 156.281 166.039 156.211 165.889 156.069C165.74 155.928 165.665 155.728 165.665 155.471C165.665 155.229 165.74 155.034 165.889 154.884C166.047 154.735 166.259 154.66 166.525 154.66C166.8 154.66 167.012 154.73 167.162 154.872C167.311 155.013 167.386 155.213 167.386 155.471C167.386 155.712 167.307 155.907 167.149 156.057C167 156.207 166.792 156.281 166.525 156.281ZM173.041 164.277V160.011C173.041 159.645 172.908 159.35 172.642 159.126C172.384 158.893 172.056 158.776 171.656 158.776C171.291 158.776 170.958 158.851 170.658 159.001C170.367 159.151 170.101 159.379 169.86 159.687L169.024 158.851C169.415 158.427 169.835 158.111 170.284 157.903C170.742 157.695 171.232 157.591 171.756 157.591C172.255 157.591 172.688 157.674 173.054 157.841C173.419 158.007 173.702 158.252 173.902 158.577C174.101 158.893 174.201 159.279 174.201 159.737V164.277H173.041ZM171.083 164.402C170.658 164.402 170.28 164.319 169.947 164.153C169.615 163.986 169.349 163.758 169.149 163.467C168.958 163.167 168.862 162.818 168.862 162.419C168.862 162.07 168.925 161.762 169.049 161.496C169.174 161.23 169.357 161.009 169.598 160.835C169.848 160.66 170.155 160.527 170.521 160.435C170.896 160.344 171.324 160.298 171.806 160.298H173.627L173.515 161.321H171.644C171.394 161.321 171.17 161.346 170.97 161.396C170.779 161.437 170.613 161.508 170.471 161.608C170.338 161.699 170.239 161.812 170.172 161.945C170.105 162.07 170.072 162.219 170.072 162.394C170.072 162.577 170.118 162.739 170.209 162.88C170.301 163.013 170.426 163.117 170.584 163.192C170.742 163.267 170.925 163.304 171.133 163.304C171.432 163.304 171.715 163.255 171.981 163.155C172.255 163.047 172.496 162.901 172.704 162.718C172.92 162.535 173.087 162.331 173.203 162.107L173.503 162.943C173.328 163.234 173.112 163.487 172.854 163.704C172.596 163.92 172.318 164.09 172.018 164.215C171.719 164.34 171.407 164.402 171.083 164.402ZM175.85 164.277V155.046H177.135V164.277H175.85ZM29.6397 180.277V172.843H27.1947V171.545H33.5067V172.843H30.9869V180.277H29.6397ZM36.6572 180.402C35.9836 180.402 35.3848 180.261 34.8609 179.978C34.3453 179.687 33.9378 179.292 33.6384 178.793C33.3474 178.294 33.2018 177.72 33.2018 177.072C33.2018 176.556 33.285 176.086 33.4513 175.662C33.6177 175.238 33.8463 174.872 34.1374 174.564C34.4368 174.248 34.7902 174.007 35.1977 173.841C35.6135 173.666 36.0626 173.579 36.545 173.579C36.9691 173.579 37.3641 173.662 37.73 173.828C38.0959 173.986 38.4119 174.207 38.6781 174.489C38.9525 174.772 39.1604 175.109 39.3018 175.5C39.4515 175.882 39.5222 176.302 39.5138 176.76L39.5014 177.309H34.1499L33.863 176.286H38.3911L38.204 176.498V176.198C38.1791 175.924 38.0876 175.679 37.9296 175.462C37.7716 175.246 37.572 175.076 37.3308 174.951C37.0897 174.826 36.8277 174.764 36.545 174.764C36.0959 174.764 35.7175 174.851 35.4098 175.026C35.1021 175.192 34.8692 175.442 34.7112 175.774C34.5532 176.099 34.4742 176.502 34.4742 176.984C34.4742 177.442 34.5699 177.841 34.7611 178.182C34.9524 178.514 35.2227 178.772 35.572 178.955C35.9212 179.138 36.3246 179.23 36.782 179.23C37.1063 179.23 37.4057 179.176 37.6801 179.067C37.9629 178.959 38.2664 178.764 38.5907 178.481L39.2394 179.392C39.0398 179.591 38.7945 179.766 38.5034 179.916C38.2207 180.065 37.9171 180.186 37.5928 180.277C37.2768 180.361 36.9649 180.402 36.6572 180.402ZM43.6919 180.402C43.0849 180.402 42.5402 180.253 42.0578 179.953C41.5838 179.654 41.2054 179.246 40.9227 178.731C40.6482 178.215 40.511 177.637 40.511 176.997C40.511 176.356 40.6482 175.778 40.9227 175.263C41.2054 174.747 41.5838 174.34 42.0578 174.04C42.5402 173.741 43.0849 173.591 43.6919 173.591C44.2741 173.591 44.8022 173.712 45.2762 173.953C45.7585 174.186 46.1244 174.506 46.3739 174.914L45.6629 175.787C45.5298 175.595 45.3593 175.421 45.1514 175.263C44.9435 175.105 44.7232 174.98 44.4903 174.889C44.2575 174.797 44.0329 174.751 43.8167 174.751C43.4175 174.751 43.0599 174.851 42.7439 175.051C42.4362 175.242 42.1909 175.508 42.0079 175.849C41.825 176.19 41.7335 176.573 41.7335 176.997C41.7335 177.421 41.8291 177.803 42.0204 178.144C42.2117 178.477 42.4653 178.743 42.7813 178.943C43.0973 179.142 43.4466 179.242 43.8292 179.242C44.0537 179.242 44.2699 179.205 44.4778 179.13C44.6941 179.055 44.902 178.943 45.1015 178.793C45.3011 178.643 45.4882 178.46 45.6629 178.244L46.3739 179.117C46.1078 179.492 45.7253 179.799 45.2263 180.04C44.7356 180.282 44.2242 180.402 43.6919 180.402ZM47.5859 180.277V171.046H48.8707V175.076L48.6462 175.225C48.7294 174.934 48.8915 174.668 49.1327 174.427C49.3739 174.178 49.6608 173.978 49.9934 173.828C50.3261 173.67 50.667 173.591 51.0163 173.591C51.5153 173.591 51.9311 173.691 52.2637 173.891C52.5964 174.082 52.8459 174.377 53.0122 174.776C53.1785 175.175 53.2617 175.679 53.2617 176.286V180.277H51.9768V176.373C51.9768 175.999 51.9269 175.691 51.8271 175.45C51.7273 175.2 51.5735 175.022 51.3656 174.914C51.1577 174.797 50.8999 174.747 50.5922 174.764C50.3427 174.764 50.114 174.805 49.9061 174.889C49.6982 174.963 49.5152 175.072 49.3572 175.213C49.2075 175.354 49.087 175.521 48.9955 175.712C48.9123 175.895 48.8707 176.094 48.8707 176.311V180.277H48.2345C48.1264 180.277 48.0183 180.277 47.9102 180.277C47.8021 180.277 47.694 180.277 47.5859 180.277ZM55.0047 180.277V173.728H56.2895V175.076L56.065 175.225C56.1482 174.934 56.3103 174.668 56.5515 174.427C56.7927 174.178 57.0796 173.978 57.4122 173.828C57.7449 173.67 58.0858 173.591 58.4351 173.591C58.9341 173.591 59.3499 173.691 59.6825 173.891C60.0152 174.082 60.2647 174.377 60.431 174.776C60.5973 175.175 60.6805 175.679 60.6805 176.286V180.277H59.3956V176.373C59.3956 175.999 59.3457 175.691 59.2459 175.45C59.1461 175.2 58.9923 175.022 58.7844 174.914C58.5765 174.797 58.3187 174.747 58.011 174.764C57.7615 174.764 57.5328 174.805 57.3249 174.889C57.117 174.963 56.934 175.072 56.776 175.213C56.6263 175.354 56.5057 175.521 56.4143 175.712C56.3311 175.895 56.2895 176.094 56.2895 176.311V180.277H55.6533C55.5452 180.277 55.4371 180.277 55.329 180.277C55.2209 180.277 55.1128 180.277 55.0047 180.277ZM65.3674 180.402C64.7271 180.402 64.1532 180.257 63.646 179.966C63.147 179.666 62.752 179.263 62.4609 178.756C62.1698 178.24 62.0243 177.654 62.0243 176.997C62.0243 176.34 62.1698 175.758 62.4609 175.25C62.752 174.735 63.147 174.331 63.646 174.04C64.1532 173.741 64.7271 173.591 65.3674 173.591C65.9994 173.591 66.5649 173.741 67.0639 174.04C67.5712 174.331 67.9704 174.735 68.2614 175.25C68.5525 175.758 68.698 176.34 68.698 176.997C68.698 177.654 68.5525 178.24 68.2614 178.756C67.9704 179.263 67.5712 179.666 67.0639 179.966C66.5649 180.257 65.9994 180.402 65.3674 180.402ZM65.3674 179.23C65.7583 179.23 66.1075 179.134 66.4152 178.943C66.7229 178.743 66.9641 178.477 67.1388 178.144C67.3134 177.803 67.3966 177.421 67.3882 176.997C67.3966 176.564 67.3134 176.182 67.1388 175.849C66.9641 175.508 66.7229 175.242 66.4152 175.051C66.1075 174.859 65.7583 174.764 65.3674 174.764C64.9765 174.764 64.6231 174.864 64.3071 175.063C63.9994 175.254 63.7582 175.521 63.5836 175.862C63.4089 176.194 63.3258 176.573 63.3341 176.997C63.3258 177.421 63.4089 177.803 63.5836 178.144C63.7582 178.477 63.9994 178.743 64.3071 178.943C64.6231 179.134 64.9765 179.23 65.3674 179.23ZM70.123 180.277V171.046H71.4079V180.277H70.123ZM76.051 180.402C75.4106 180.402 74.8368 180.257 74.3295 179.966C73.8305 179.666 73.4355 179.263 73.1444 178.756C72.8534 178.24 72.7078 177.654 72.7078 176.997C72.7078 176.34 72.8534 175.758 73.1444 175.25C73.4355 174.735 73.8305 174.331 74.3295 174.04C74.8368 173.741 75.4106 173.591 76.051 173.591C76.683 173.591 77.2485 173.741 77.7475 174.04C78.2548 174.331 78.6539 174.735 78.945 175.25C79.2361 175.758 79.3816 176.34 79.3816 176.997C79.3816 177.654 79.2361 178.24 78.945 178.756C78.6539 179.263 78.2548 179.666 77.7475 179.966C77.2485 180.257 76.683 180.402 76.051 180.402ZM76.051 179.23C76.4418 179.23 76.7911 179.134 77.0988 178.943C77.4065 178.743 77.6477 178.477 77.8223 178.144C77.997 177.803 78.0801 177.421 78.0718 176.997C78.0801 176.564 77.997 176.182 77.8223 175.849C77.6477 175.508 77.4065 175.242 77.0988 175.051C76.7911 174.859 76.4418 174.764 76.051 174.764C75.6601 174.764 75.3067 174.864 74.9906 175.063C74.6829 175.254 74.4418 175.521 74.2671 175.862C74.0925 176.194 74.0093 176.573 74.0177 176.997C74.0093 177.421 74.0925 177.803 74.2671 178.144C74.4418 178.477 74.6829 178.743 74.9906 178.943C75.3067 179.134 75.6601 179.23 76.051 179.23ZM83.7131 183.147C83.2474 183.147 82.7817 183.072 82.316 182.922C81.8586 182.781 81.4885 182.594 81.2058 182.361L81.6798 181.363C81.9293 181.554 82.237 181.708 82.6029 181.824C82.9771 181.941 83.3472 181.999 83.7131 181.999C84.1705 181.999 84.553 181.924 84.8607 181.774C85.1684 181.625 85.4013 181.404 85.5593 181.113C85.7173 180.822 85.7963 180.46 85.7963 180.028V178.768L85.9335 178.855C85.8919 179.113 85.7547 179.363 85.5219 179.604C85.2973 179.837 85.0146 180.028 84.6736 180.178C84.3327 180.327 83.9834 180.402 83.6258 180.402C83.0021 180.402 82.4449 180.257 81.9542 179.966C81.4719 179.666 81.0893 179.263 80.8066 178.756C80.5238 178.24 80.3825 177.654 80.3825 176.997C80.3825 176.34 80.5197 175.758 80.7941 175.25C81.0769 174.735 81.4594 174.331 81.9418 174.04C82.4324 173.741 82.9813 173.591 83.5884 173.591C83.8378 173.591 84.079 173.625 84.3119 173.691C84.5447 173.749 84.7609 173.837 84.9605 173.953C85.1601 174.061 85.3389 174.182 85.4969 174.315C85.6549 174.448 85.7838 174.589 85.8836 174.739C85.9834 174.889 86.0458 175.03 86.0707 175.163L85.7963 175.263V173.728H87.0812V179.878C87.0812 180.402 87.0022 180.864 86.8442 181.263C86.6945 181.67 86.4741 182.011 86.183 182.286C85.8919 182.569 85.5385 182.781 85.1227 182.922C84.7069 183.072 84.237 183.147 83.7131 183.147ZM83.763 179.217C84.1705 179.217 84.5322 179.122 84.8483 178.93C85.1643 178.739 85.4096 178.477 85.5842 178.144C85.7589 177.812 85.8462 177.429 85.8462 176.997C85.8462 176.564 85.7547 176.182 85.5718 175.849C85.3971 175.508 85.1518 175.242 84.8358 175.051C84.5281 174.859 84.1705 174.764 83.763 174.764C83.3638 174.764 83.0062 174.864 82.6902 175.063C82.3825 175.254 82.1372 175.521 81.9542 175.862C81.7796 176.194 81.6923 176.573 81.6923 176.997C81.6923 177.421 81.7796 177.803 81.9542 178.144C82.1372 178.477 82.3825 178.739 82.6902 178.93C83.0062 179.122 83.3638 179.217 83.763 179.217ZM89.9804 183.147L91.3026 180.09L91.3151 181.113L88.0469 173.728H89.5438L91.5896 178.544C91.6311 178.627 91.681 178.756 91.7392 178.93C91.7975 179.097 91.8474 179.263 91.8889 179.429L91.5646 179.504C91.6311 179.329 91.6935 179.155 91.7517 178.98C91.8182 178.805 91.8806 178.631 91.9388 178.456L93.6478 173.728H95.1697L92.4752 180.277L91.365 183.147H89.9804ZM103.494 180.402C102.887 180.402 102.33 180.294 101.823 180.078C101.315 179.862 100.875 179.554 100.5 179.155C100.126 178.747 99.835 178.269 99.6271 177.72C99.4275 177.171 99.3277 176.568 99.3277 175.911C99.3277 175.288 99.4358 174.71 99.652 174.178C99.8766 173.637 100.184 173.163 100.575 172.755C100.966 172.348 101.419 172.032 101.935 171.807C102.45 171.583 103.008 171.471 103.606 171.471C104.031 171.471 104.442 171.537 104.841 171.67C105.249 171.795 105.615 171.974 105.939 172.207C106.272 172.431 106.542 172.689 106.75 172.98L105.852 173.916C105.494 173.55 105.128 173.275 104.754 173.092C104.38 172.909 103.997 172.818 103.606 172.818C103.199 172.818 102.816 172.897 102.459 173.055C102.109 173.205 101.802 173.417 101.536 173.691C101.278 173.965 101.074 174.294 100.924 174.677C100.775 175.051 100.7 175.462 100.7 175.911C100.7 176.385 100.771 176.818 100.912 177.209C101.062 177.591 101.27 177.92 101.536 178.194C101.802 178.469 102.118 178.681 102.484 178.83C102.858 178.972 103.27 179.043 103.719 179.043C103.993 179.043 104.263 179.005 104.529 178.93C104.796 178.855 105.045 178.747 105.278 178.606C105.511 178.465 105.723 178.298 105.914 178.107L106.588 179.205C106.396 179.429 106.135 179.633 105.802 179.816C105.478 179.999 105.112 180.144 104.704 180.253C104.305 180.352 103.902 180.402 103.494 180.402ZM111.037 180.402C110.397 180.402 109.823 180.257 109.316 179.966C108.817 179.666 108.422 179.263 108.131 178.756C107.84 178.24 107.694 177.654 107.694 176.997C107.694 176.34 107.84 175.758 108.131 175.25C108.422 174.735 108.817 174.331 109.316 174.04C109.823 173.741 110.397 173.591 111.037 173.591C111.669 173.591 112.235 173.741 112.734 174.04C113.241 174.331 113.64 174.735 113.932 175.25C114.223 175.758 114.368 176.34 114.368 176.997C114.368 177.654 114.223 178.24 113.932 178.756C113.64 179.263 113.241 179.666 112.734 179.966C112.235 180.257 111.669 180.402 111.037 180.402ZM111.037 179.23C111.428 179.23 111.778 179.134 112.085 178.943C112.393 178.743 112.634 178.477 112.809 178.144C112.983 177.803 113.067 177.421 113.058 176.997C113.067 176.564 112.983 176.182 112.809 175.849C112.634 175.508 112.393 175.242 112.085 175.051C111.778 174.859 111.428 174.764 111.037 174.764C110.647 174.764 110.293 174.864 109.977 175.063C109.669 175.254 109.428 175.521 109.254 175.862C109.079 176.194 108.996 176.573 109.004 176.997C108.996 177.421 109.079 177.803 109.254 178.144C109.428 178.477 109.669 178.743 109.977 178.943C110.293 179.134 110.647 179.23 111.037 179.23ZM115.743 180.277V173.728H117.041V175.126L116.804 175.275C116.87 175.059 116.974 174.851 117.115 174.652C117.265 174.452 117.444 174.277 117.652 174.128C117.868 173.97 118.097 173.845 118.338 173.753C118.587 173.662 118.841 173.616 119.099 173.616C119.473 173.616 119.802 173.679 120.084 173.803C120.367 173.928 120.6 174.115 120.783 174.365C120.966 174.614 121.099 174.926 121.182 175.3L120.982 175.25L121.07 175.038C121.161 174.847 121.286 174.668 121.444 174.502C121.61 174.327 121.797 174.173 122.005 174.04C122.213 173.907 122.434 173.803 122.666 173.728C122.899 173.654 123.128 173.616 123.353 173.616C123.843 173.616 124.247 173.716 124.563 173.916C124.887 174.115 125.128 174.419 125.286 174.826C125.452 175.234 125.536 175.741 125.536 176.348V180.277H124.238V176.423C124.238 175.866 124.13 175.458 123.914 175.2C123.706 174.934 123.377 174.801 122.928 174.801C122.696 174.801 122.475 174.843 122.267 174.926C122.068 175.001 121.893 175.109 121.743 175.25C121.594 175.392 121.477 175.558 121.394 175.749C121.311 175.932 121.269 176.136 121.269 176.361V180.277H119.972V176.398C119.972 175.882 119.86 175.487 119.635 175.213C119.419 174.938 119.103 174.801 118.687 174.801C118.454 174.801 118.238 174.843 118.038 174.926C117.839 175.001 117.664 175.109 117.515 175.25C117.365 175.383 117.248 175.546 117.165 175.737C117.082 175.92 117.041 176.119 117.041 176.336V180.277H115.743ZM127.256 183.022V173.728H128.553V175.225L128.353 175.113C128.403 174.864 128.545 174.627 128.778 174.402C129.01 174.169 129.293 173.982 129.626 173.841C129.967 173.691 130.316 173.616 130.674 173.616C131.264 173.616 131.788 173.762 132.245 174.053C132.703 174.344 133.065 174.743 133.331 175.25C133.597 175.758 133.73 176.34 133.73 176.997C133.73 177.645 133.597 178.228 133.331 178.743C133.073 179.25 132.715 179.654 132.258 179.953C131.801 180.244 131.285 180.39 130.711 180.39C130.329 180.39 129.958 180.315 129.601 180.165C129.243 180.007 128.94 179.808 128.69 179.566C128.441 179.325 128.287 179.076 128.229 178.818L128.553 178.643V183.022H127.256ZM130.499 179.205C130.882 179.205 131.223 179.109 131.522 178.918C131.821 178.726 132.058 178.465 132.233 178.132C132.408 177.799 132.495 177.421 132.495 176.997C132.495 176.573 132.408 176.198 132.233 175.874C132.067 175.541 131.834 175.279 131.534 175.088C131.235 174.897 130.89 174.801 130.499 174.801C130.108 174.801 129.763 174.897 129.464 175.088C129.164 175.271 128.927 175.529 128.753 175.862C128.578 176.194 128.491 176.573 128.491 176.997C128.491 177.421 128.578 177.799 128.753 178.132C128.927 178.465 129.164 178.726 129.464 178.918C129.763 179.109 130.108 179.205 130.499 179.205ZM139.005 180.277V176.011C139.005 175.645 138.872 175.35 138.606 175.126C138.348 174.893 138.019 174.776 137.62 174.776C137.254 174.776 136.922 174.851 136.622 175.001C136.331 175.151 136.065 175.379 135.824 175.687L134.988 174.851C135.379 174.427 135.799 174.111 136.248 173.903C136.705 173.695 137.196 173.591 137.72 173.591C138.219 173.591 138.651 173.674 139.017 173.841C139.383 174.007 139.666 174.252 139.865 174.577C140.065 174.893 140.165 175.279 140.165 175.737V180.277H139.005ZM137.046 180.402C136.622 180.402 136.244 180.319 135.911 180.153C135.578 179.986 135.312 179.758 135.113 179.467C134.921 179.167 134.826 178.818 134.826 178.419C134.826 178.07 134.888 177.762 135.013 177.496C135.138 177.23 135.321 177.009 135.562 176.835C135.811 176.66 136.119 176.527 136.485 176.435C136.859 176.344 137.287 176.298 137.77 176.298H139.591L139.479 177.321H137.608C137.358 177.321 137.134 177.346 136.934 177.396C136.743 177.437 136.576 177.508 136.435 177.608C136.302 177.699 136.202 177.812 136.136 177.945C136.069 178.07 136.036 178.219 136.036 178.394C136.036 178.577 136.082 178.739 136.173 178.88C136.265 179.013 136.389 179.117 136.547 179.192C136.705 179.267 136.888 179.304 137.096 179.304C137.396 179.304 137.678 179.255 137.944 179.155C138.219 179.047 138.46 178.901 138.668 178.718C138.884 178.535 139.05 178.331 139.167 178.107L139.466 178.943C139.292 179.234 139.075 179.487 138.818 179.704C138.56 179.92 138.281 180.09 137.982 180.215C137.682 180.34 137.371 180.402 137.046 180.402ZM141.789 180.277V173.728H143.074V175.076L142.849 175.225C142.932 174.934 143.094 174.668 143.336 174.427C143.577 174.178 143.864 173.978 144.196 173.828C144.529 173.67 144.87 173.591 145.219 173.591C145.718 173.591 146.134 173.691 146.467 173.891C146.799 174.082 147.049 174.377 147.215 174.776C147.381 175.175 147.465 175.679 147.465 176.286V180.277H146.18V176.373C146.18 175.999 146.13 175.691 146.03 175.45C145.93 175.2 145.776 175.022 145.568 174.914C145.361 174.797 145.103 174.747 144.795 174.764C144.546 174.764 144.317 174.805 144.109 174.889C143.901 174.963 143.718 175.072 143.56 175.213C143.41 175.354 143.29 175.521 143.198 175.712C143.115 175.895 143.074 176.094 143.074 176.311V180.277H142.437C142.329 180.277 142.221 180.277 142.113 180.277C142.005 180.277 141.897 180.277 141.789 180.277ZM150.244 183.147L151.567 180.09L151.579 181.113L148.311 173.728H149.808L151.854 178.544C151.895 178.627 151.945 178.756 152.003 178.93C152.061 179.097 152.111 179.263 152.153 179.429L151.829 179.504C151.895 179.329 151.958 179.155 152.016 178.98C152.082 178.805 152.145 178.631 152.203 178.456L153.912 173.728H155.434L152.739 180.277L151.629 183.147H150.244Z" fill="#707C87"/>
</svg>
