<svg width="145" height="145" viewBox="0 0 145 145" fill="none" xmlns="http://www.w3.org/2000/svg">
<path d="M79.8536 48.9814C79.0992 47.8273 78.3614 46.6733 77.5848 45.5472C77.4961 45.424 77.1521 45.3792 76.9691 45.4352C73.0195 46.6229 69.1642 46.3764 65.5086 44.4604C60.8045 41.9899 58.0365 38.0403 57.3653 32.7183C56.3834 24.9593 61.2705 17.8894 68.8258 16.0014C77.3352 13.8726 85.9999 19.6933 87.3091 28.4326C88.0025 33.0768 86.8153 37.2 83.8531 40.8078C83.5702 41.1495 83.548 41.3736 83.7977 41.7322C84.5188 42.7798 85.1956 43.861 85.9389 44.9926C86.1109 44.8414 86.2551 44.7293 86.3771 44.6061C87.7362 43.2279 88.8567 41.6705 89.7276 39.9395C90.421 38.5725 91.4861 37.8275 93.0116 37.7882C93.5275 37.7714 93.8658 37.5586 94.0156 37.0432C94.1709 36.5166 93.8991 36.2252 93.5108 35.9563C90.9868 34.1692 91.2753 30.6567 94.06 29.2954C94.4927 29.0825 94.7922 28.8136 94.7257 28.2926C94.6591 27.7492 94.293 27.5419 93.7993 27.441C91.7912 27.0377 90.4987 25.2058 90.7871 23.1834C91.07 21.1946 92.823 19.8053 94.881 19.9454C96.7781 20.0742 98.3313 21.7997 98.2925 23.7828C98.2703 25.0209 97.7489 26.0237 96.7726 26.78C95.9128 27.441 96.0792 28.836 97.0721 29.2898C98.5699 29.9788 99.4519 31.4466 99.3298 33.0544C99.2078 34.6566 98.1205 35.9675 96.534 36.4269C95.4191 36.7462 95.0141 38.1076 95.7519 38.9927C96.7892 40.2476 96.9944 41.6649 96.2456 43.0991C92.2571 50.7348 86.0887 55.6255 77.7069 57.3174C68.848 59.1045 60.921 56.8468 54.2145 50.7124C49.5548 46.4492 46.8256 41.0767 45.8826 34.7855C45.3223 31.032 45.5609 27.329 46.5538 23.6764C47.0031 22.0182 48.1292 21.0658 49.8211 20.8697C50.7697 20.7577 51.2412 19.6596 50.6809 18.8585C49.1 16.5953 50.1096 13.5981 52.7056 12.909C53.5044 12.6962 54.3254 12.713 55.0965 13.0603C55.6346 13.3068 55.9951 13.0659 56.3668 12.7298C56.7329 12.3992 56.9992 12.0967 56.866 11.5085C56.3113 9.08276 57.9588 6.8531 60.4218 6.79708C62.5741 6.74666 64.1218 8.32086 64.2272 10.332C64.3437 12.5673 62.7794 14.3208 60.7214 14.3768C59.9392 14.3992 59.2181 14.248 58.5524 13.8334C58.1253 13.5645 57.737 13.6037 57.3653 13.9398C57.0047 14.2648 56.9825 14.6289 57.149 15.0771C58.1696 17.8445 56.3668 20.3935 53.4545 20.3263C53.4157 20.3263 53.3769 20.3263 53.3436 20.3263C52.8942 20.2815 52.456 20.2815 52.2286 20.7801C52.0011 21.2787 52.3007 21.598 52.6169 21.9285C53.5766 22.9201 53.8927 24.1022 53.5821 25.4579C53.4101 26.1974 53.2215 26.9425 53.1106 27.6931C52.2341 33.413 53.5599 38.5838 57.1046 43.1103C60.4495 47.3904 64.8762 49.8105 70.2459 50.4435C73.38 50.8133 76.431 50.4323 79.3821 49.2783C79.5041 49.2279 79.6262 49.183 79.7482 49.127C79.7815 49.1102 79.7981 49.071 79.8814 48.9758L79.8536 48.9814ZM64.4602 30.8304C64.4491 35.2 68.0159 38.8246 72.3538 38.847C76.6751 38.8639 80.2752 35.2505 80.2863 30.8696C80.2974 26.4887 76.7305 22.8697 72.3926 22.8641C68.0492 22.8585 64.4768 26.4439 64.4602 30.836V30.8304Z" fill="#3F5397"/>
<path d="M72.9476 69.2163C62.2248 68.9866 53.2994 65.5581 45.9327 58.3369C39.9806 52.5051 36.2862 45.4184 34.9826 37.144C33.3628 26.8808 35.4929 17.4411 41.2953 8.84183C41.9942 7.80543 42.8152 6.97631 44.1077 6.83065C44.5515 6.78023 45.0174 6.80264 45.4557 6.88667C46.7648 7.13877 47.547 6.25923 47.1309 4.96513C46.3543 2.5562 48.085 0.0688415 50.5868 0.00161555C52.1234 -0.0432017 53.5158 0.847542 54.1592 2.2873C54.7583 3.63182 54.4754 5.30126 53.4658 6.39368C52.4119 7.53092 50.7976 7.93428 49.3554 7.34605C48.8062 7.12196 48.3901 7.12757 47.9852 7.58694C47.6746 7.93988 47.5858 8.28721 47.8021 8.72978C48.49 10.1471 48.3291 11.4748 47.4138 12.7633C44.3296 17.0994 42.438 21.9285 41.8833 27.2281C40.9014 36.6678 43.5364 44.987 49.9156 51.9841C54.8748 57.4294 61.0766 60.5778 68.3379 61.5638C84.1418 63.7094 99.0416 53.1773 102.337 37.4913C102.769 35.4353 102.897 33.3065 103.097 31.2001C103.318 28.9144 104.816 27.5138 107.035 27.6203C108.954 27.7099 110.391 29.4018 110.325 31.5586C110.23 34.7518 109.82 37.9058 108.966 40.9926C105.088 55.0541 93.9382 65.5301 79.7484 68.4544C78.9718 68.6169 78.1841 68.7514 77.3964 68.8298C75.7434 68.9979 74.0848 69.1211 72.9309 69.2163H72.9476Z" fill="#516FDB"/>
<mask id="mask0_1563_19904" style="mask-type:alpha" maskUnits="userSpaceOnUse" x="55" y="10" width="35" height="40">
<path d="M78.711 49.1247C83.5965 48.6757 85.8742 45.5265 86.4023 44.0081L89.5912 29.1345L88.1507 10.6616H74.6773L61.204 17.1017L55.1875 27.355V34.9814L59.2549 41.8451L66.373 46.3363C68.45 47.4528 73.8255 49.5736 78.711 49.1247Z" fill="#D9D9D9" stroke="black" stroke-width="0.127239"/>
</mask>
<g mask="url(#mask0_1563_19904)">
<path d="M79.8536 48.978C79.0992 47.8239 78.3614 46.6699 77.5848 45.5438C77.4961 45.4206 77.1521 45.3758 76.9691 45.4318C73.0195 46.6194 69.1642 46.3729 65.5086 44.457C60.8045 41.9865 58.0365 38.0369 57.3653 32.7149C56.3834 24.9559 61.2705 17.8859 68.8258 15.998C77.3352 13.8692 85.9999 19.6898 87.3091 28.4292C88.0025 33.0734 86.8153 37.1966 83.8531 40.8044C83.5702 41.1461 83.548 41.3702 83.7977 41.7287C84.5188 42.7764 85.1956 43.8576 85.9389 44.9892C86.1109 44.8379 86.2551 44.7259 86.3771 44.6027C87.7362 43.2245 88.8567 41.6671 89.7276 39.9361C90.421 38.5691 91.4861 37.824 93.0116 37.7848C93.5275 37.768 93.8658 37.5551 94.0156 37.0397C94.1709 36.5131 93.8991 36.2218 93.5108 35.9529C90.9868 34.1658 91.2753 30.6533 94.06 29.2919C94.4927 29.0791 94.7922 28.8102 94.7257 28.2892C94.6591 27.7457 94.293 27.5385 93.7993 27.4376C91.7912 27.0343 90.4987 25.2024 90.7871 23.18C91.07 21.1912 92.823 19.8019 94.881 19.9419C96.7781 20.0708 98.3313 21.7963 98.2925 23.7794C98.2703 25.0175 97.7489 26.0203 96.7726 26.7766C95.9128 27.4376 96.0792 28.8326 97.0721 29.2863C98.5699 29.9754 99.4519 31.4432 99.3298 33.051C99.2078 34.6532 98.1205 35.9641 96.534 36.4235C95.4191 36.7428 95.0141 38.1041 95.7519 38.9893C96.7892 40.2442 96.9944 41.6615 96.2456 43.0957C92.2571 50.7314 86.0887 55.6221 77.7069 57.314C68.848 59.1011 60.921 56.8434 54.2145 50.709C49.5548 46.4458 46.8256 41.0733 45.8826 34.7821C45.3223 31.0286 45.5609 27.3256 46.5538 23.673C47.0031 22.0147 48.1292 21.0624 49.8211 20.8663C50.7697 20.7542 51.2412 19.6562 50.6809 18.8551C49.1 16.5918 50.1096 13.5947 52.7056 12.9056C53.5044 12.6927 54.3254 12.7095 55.0965 13.0569C55.6346 13.3034 55.9951 13.0625 56.3668 12.7263C56.7329 12.3958 56.9992 12.0933 56.866 11.5051C56.3113 9.07934 57.9588 6.84968 60.4218 6.79366C62.5741 6.74324 64.1218 8.31745 64.2272 10.3286C64.3437 12.5639 62.7794 14.3174 60.7214 14.3734C59.9392 14.3958 59.2181 14.2445 58.5524 13.83C58.1253 13.5611 57.737 13.6003 57.3653 13.9364C57.0047 14.2613 56.9825 14.6255 57.149 15.0737C58.1696 17.8411 56.3668 20.3901 53.4545 20.3229C53.4157 20.3229 53.3769 20.3229 53.3436 20.3229C52.8942 20.2781 52.456 20.2781 52.2286 20.7767C52.0011 21.2752 52.3007 21.5946 52.6169 21.9251C53.5766 22.9167 53.8927 24.0987 53.5821 25.4545C53.4101 26.1939 53.2215 26.939 53.1106 27.6897C52.2341 33.4095 53.5599 38.5803 57.1046 43.1069C60.4495 47.3869 64.8762 49.8071 70.2459 50.4401C73.38 50.8099 76.431 50.4289 79.3821 49.2749C79.5041 49.2244 79.6262 49.1796 79.7482 49.1236C79.7815 49.1068 79.7981 49.0676 79.8814 48.9723L79.8536 48.978ZM64.4602 30.8269C64.4491 35.1966 68.0159 38.8212 72.3538 38.8436C76.6751 38.8604 80.2752 35.247 80.2863 30.8662C80.2974 26.4853 76.7305 22.8663 72.3926 22.8607C68.0492 22.8551 64.4768 26.4404 64.4602 30.8325V30.8269Z" fill="#F6B221"/>
</g>
<path d="M7.80262 92.0386C7.12147 92.0386 6.51962 91.9406 5.9971 91.7447C5.47457 91.5487 5.06401 91.2641 4.76542 90.8909C4.47616 90.5177 4.33154 90.0698 4.33154 89.5472C4.33154 89.062 4.4575 88.6235 4.70944 88.2316C4.9707 87.8397 5.32994 87.4851 5.78715 87.1679C6.2537 86.8413 6.79955 86.538 7.42472 86.2581C8.05922 85.9689 8.74504 85.6889 9.48218 85.4183L9.81809 87.6298C9.19292 87.779 8.67039 87.9377 8.2505 88.1056C7.83994 88.2643 7.51336 88.4275 7.27076 88.5955C7.02816 88.7541 6.85087 88.9081 6.7389 89.0574C6.63626 89.1973 6.58494 89.3186 6.58494 89.4213C6.58494 89.5426 6.66425 89.6452 6.82288 89.7292C6.9815 89.8038 7.28009 89.8412 7.71864 89.8412C7.81195 89.8412 7.94725 89.8365 8.12454 89.8272C8.30182 89.8178 8.5071 89.7992 8.74037 89.7712C8.97364 89.7339 9.22091 89.6825 9.48218 89.6172L10 91.4647C9.62681 91.642 9.27223 91.782 8.93632 91.8846C8.60974 91.9873 8.23184 92.0386 7.80262 92.0386ZM11.2177 92.2485C10.6205 92.2485 10.14 92.1692 9.7761 92.0106C9.42153 91.8426 9.15093 91.6327 8.96431 91.3808C8.78703 91.1195 8.66573 90.8396 8.60041 90.541C8.54442 90.2424 8.51643 89.9625 8.51643 89.7012V84.7745H10.7698V89.0714C10.7698 89.4353 10.8631 89.6919 11.0498 89.8412C11.2457 89.9811 11.5583 90.0511 11.9875 90.0511H12.4494V92.2485H11.2177ZM6.7529 83.9907L5.28328 82.5071L6.66892 81.0095L8.13853 82.5071L6.7529 83.9907ZM9.21625 83.9907L7.74663 82.5071L9.14627 81.0095L10.6159 82.5071L9.21625 83.9907ZM12.4443 92.2485V90.0511H14.3897C14.4271 89.8925 14.4597 89.6779 14.4877 89.4073C14.5157 89.1367 14.539 88.8661 14.5577 88.5955C14.5764 88.3156 14.581 88.0823 14.5717 87.8957L17.203 86.9719C17.035 87.6531 16.8671 88.2922 16.6991 88.8894C16.5405 89.4773 16.3492 90.0464 16.1253 90.597C15.9107 91.1382 15.6307 91.6887 15.2855 92.2485H12.4443ZM18.1827 92.2485C17.5389 92.2485 16.9931 92.1879 16.5452 92.0666C16.1066 91.936 15.7381 91.7867 15.4395 91.6187C15.1409 91.4414 14.8843 91.2781 14.6697 91.1288L15.8594 89.7432C15.99 89.8085 16.1439 89.8645 16.3212 89.9112C16.4985 89.9578 16.6945 89.9951 16.9091 90.0231C17.1237 90.0418 17.3476 90.0511 17.5809 90.0511H18.1827V92.2485ZM12.4443 90.0511H12.5842V92.2485H12.4443C12.1643 92.2485 12.0244 91.8846 12.0244 91.1568C12.0244 90.4197 12.1643 90.0511 12.4443 90.0511ZM14.0538 96.0135L12.5842 94.5159L13.9699 93.0323L15.4395 94.5159L14.0538 96.0135ZM16.5172 96.0135L15.0476 94.5159L16.4472 93.0323L17.9168 94.5159L16.5172 96.0135ZM28.3183 92.2485C27.6931 92.2485 27.1799 92.1925 26.7787 92.0806C26.3868 91.9686 26.0555 91.7867 25.7849 91.5347C25.5237 91.2735 25.2811 90.9329 25.0571 90.513L26.5547 89.8132C26.6574 89.8692 26.7693 89.9158 26.8906 89.9531C27.0213 89.9811 27.1892 90.0045 27.3945 90.0231C27.6091 90.0418 27.8797 90.0511 28.2063 90.0511H28.7381V92.2485H28.3183ZM18.1849 90.0511H18.3249V92.2485H18.1849C17.905 92.2485 17.765 91.8846 17.765 91.1568C17.765 90.4197 17.905 90.0511 18.1849 90.0511ZM18.1849 92.2485V90.0511H18.5068C19.356 90.0511 20.0698 90.0325 20.6483 89.9951C21.2268 89.9578 21.7167 89.9018 22.1179 89.8272C22.5191 89.7432 22.869 89.6406 23.1676 89.5193C23.4662 89.398 23.7601 89.2533 24.0494 89.0854C24.1147 89.048 24.1707 89.0154 24.2173 88.9874C24.264 88.9594 24.306 88.9361 24.3433 88.9174C24.39 88.8894 24.4273 88.8708 24.4553 88.8614C24.11 88.6841 23.7974 88.5348 23.5175 88.4135C23.2376 88.2829 22.9717 88.1803 22.7197 88.1056C22.4771 88.0217 22.2439 87.961 22.0199 87.9237C21.8053 87.8864 21.586 87.8677 21.3621 87.8677C21.0728 87.8677 20.8069 87.947 20.5643 88.1056C20.3217 88.2643 20.0651 88.5395 19.7945 88.9314L18.3529 88.1896C18.6701 87.5271 19.0107 87.0139 19.3746 86.65C19.7385 86.2861 20.1164 86.0342 20.5083 85.8942C20.9002 85.7449 21.2874 85.6703 21.67 85.6703C22.1739 85.6703 22.6358 85.7449 23.0556 85.8942C23.4849 86.0435 23.8861 86.2301 24.2593 86.4541C24.6326 86.678 24.9965 86.9019 25.351 87.1259C25.7056 87.3405 26.0602 87.5224 26.4148 87.6717C26.7693 87.821 27.1472 87.891 27.5485 87.8817L27.5065 89.7852C27.2639 89.8505 26.9653 89.9485 26.6107 90.0791C26.2561 90.2004 25.8456 90.3824 25.379 90.625C25.0058 90.8209 24.6139 91.0169 24.2033 91.2128C23.7928 91.3994 23.3216 91.572 22.7897 91.7307C22.2579 91.8893 21.6327 92.0153 20.9142 92.1086C20.1957 92.2019 19.3466 92.2485 18.3669 92.2485H18.1849ZM18.1849 90.0511H18.3249V92.2485H18.1849C17.905 92.2485 17.765 91.8846 17.765 91.1568C17.765 90.4197 17.905 90.0511 18.1849 90.0511ZM22.5798 96.0135L21.0962 94.5159L22.5098 93.0323L23.9794 94.5159L22.5798 96.0135ZM28.7368 92.2485V90.0511H30.6823C30.7196 89.8925 30.7523 89.6779 30.7803 89.4073C30.8083 89.1367 30.8316 88.8661 30.8503 88.5955C30.8689 88.3156 30.8736 88.0823 30.8643 87.8957L33.4956 86.9719C33.3276 87.6531 33.1597 88.2922 32.9917 88.8894C32.8331 89.4773 32.6418 90.0464 32.4179 90.597C32.2032 91.1382 31.9233 91.6887 31.5781 92.2485H28.7368ZM34.4753 92.2485C33.8315 92.2485 33.2856 92.1879 32.8377 92.0666C32.3992 91.936 32.0306 91.7867 31.732 91.6187C31.4334 91.4414 31.1769 91.2781 30.9622 91.1288L32.1519 89.7432C32.2826 89.8085 32.4365 89.8645 32.6138 89.9112C32.7911 89.9578 32.987 89.9951 33.2016 90.0231C33.4163 90.0418 33.6402 90.0511 33.8735 90.0511H34.4753V92.2485ZM28.7368 90.0511H28.8768V92.2485H28.7368C28.4569 92.2485 28.3169 91.8846 28.3169 91.1568C28.3169 90.4197 28.4569 90.0511 28.7368 90.0511ZM30.3464 96.0135L28.8768 94.5159L30.2624 93.0323L31.732 94.5159L30.3464 96.0135ZM32.8098 96.0135L31.3401 94.5159L32.7398 93.0323L34.2094 94.5159L32.8098 96.0135ZM37.6687 90.0511H39.3482V92.2485H37.6687V90.0511ZM34.4775 92.2485V90.0511H35.8351V81.8913H38.0886V92.2485H34.4775ZM34.4775 90.0511H34.6175V92.2485H34.4775C34.1976 92.2485 34.0576 91.8846 34.0576 91.1568C34.0576 90.4197 34.1976 90.0511 34.4775 90.0511ZM39.3434 90.0511H40.4631V92.2485H39.3434V90.0511ZM39.3434 90.0511H39.4834V92.2485H39.3434C39.0635 92.2485 38.9235 91.8846 38.9235 91.1568C38.9235 90.4197 39.0635 90.0511 39.3434 90.0511ZM50.5975 92.2485C49.9724 92.2485 49.4592 92.1925 49.0579 92.0806C48.666 91.9686 48.3348 91.7867 48.0642 91.5347C47.8029 91.2735 47.5603 90.9329 47.3364 90.513L48.834 89.8132C48.9366 89.8692 49.0486 89.9158 49.1699 89.9531C49.3005 89.9811 49.4685 90.0045 49.6738 90.0231C49.8884 90.0418 50.159 90.0511 50.4856 90.0511H51.0174V92.2485H50.5975ZM40.4642 90.0511H40.6042V92.2485H40.4642C40.1843 92.2485 40.0443 91.8846 40.0443 91.1568C40.0443 90.4197 40.1843 90.0511 40.4642 90.0511ZM40.4642 92.2485V90.0511H40.7861C41.6352 90.0511 42.349 90.0325 42.9276 89.9951C43.5061 89.9578 43.9959 89.9018 44.3972 89.8272C44.7984 89.7432 45.1483 89.6406 45.4469 89.5193C45.7455 89.398 46.0394 89.2533 46.3287 89.0854C46.394 89.048 46.45 89.0154 46.4966 88.9874C46.5433 88.9594 46.5853 88.9361 46.6226 88.9174C46.6692 88.8894 46.7066 88.8708 46.7346 88.8614C46.3893 88.6841 46.0767 88.5348 45.7968 88.4135C45.5169 88.2829 45.2509 88.1803 44.999 88.1056C44.7564 88.0217 44.5231 87.961 44.2992 87.9237C44.0846 87.8864 43.8653 87.8677 43.6414 87.8677C43.3521 87.8677 43.0862 87.947 42.8436 88.1056C42.601 88.2643 42.3444 88.5395 42.0738 88.9314L40.6322 88.1896C40.9494 87.5271 41.29 87.0139 41.6539 86.65C42.0178 86.2861 42.3957 86.0342 42.7876 85.8942C43.1795 85.7449 43.5667 85.6703 43.9493 85.6703C44.4532 85.6703 44.915 85.7449 45.3349 85.8942C45.7641 86.0435 46.1654 86.2301 46.5386 86.4541C46.9118 86.678 47.2757 86.9019 47.6303 87.1259C47.9849 87.3405 48.3395 87.5224 48.694 87.6717C49.0486 87.821 49.4265 87.891 49.8277 87.8817L49.7857 89.7852C49.5431 89.8505 49.2446 89.9485 48.89 90.0791C48.5354 90.2004 48.1249 90.3824 47.6583 90.625C47.2851 90.8209 46.8932 91.0169 46.4826 91.2128C46.0721 91.3994 45.6009 91.572 45.069 91.7307C44.5371 91.8893 43.912 92.0153 43.1935 92.1086C42.475 92.2019 41.6259 92.2485 40.6462 92.2485H40.4642ZM40.4642 90.0511H40.6042V92.2485H40.4642C40.1843 92.2485 40.0443 91.8846 40.0443 91.1568C40.0443 90.4197 40.1843 90.0511 40.4642 90.0511ZM43.9913 84.4946L42.5077 83.011L43.9213 81.5134L45.3909 83.011L43.9913 84.4946ZM51.0161 92.2485V90.0511H52.3738V81.8913H54.6272V92.2485H51.0161ZM51.0161 90.0511H51.1561V92.2485H51.0161C50.7362 92.2485 50.5962 91.8846 50.5962 91.1568C50.5962 90.4197 50.7362 90.0511 51.0161 90.0511ZM56.5607 81.8913H58.8141V92.2485H56.5607V81.8913ZM68.8798 95.8316C68.0587 95.8316 67.3682 95.7196 66.8083 95.4957C66.2485 95.2811 65.8006 94.9871 65.4647 94.6139C65.1288 94.25 64.8862 93.8394 64.7369 93.3822C64.5876 92.9344 64.5129 92.4725 64.5129 91.9966C64.5129 91.6234 64.5689 91.1941 64.6809 90.7089C64.8022 90.2144 64.9655 89.6919 65.1708 89.1414L67.0323 89.7292C66.911 90.1118 66.8176 90.4617 66.7523 90.7789C66.6963 91.0868 66.6684 91.3621 66.6684 91.6047C66.6684 91.9406 66.7243 92.2345 66.8363 92.4865C66.9576 92.7477 67.1256 92.9623 67.3402 93.1303C67.5641 93.2983 67.8347 93.4242 68.152 93.5082C68.4692 93.5922 68.8238 93.6342 69.2157 93.6342C69.4769 93.6342 69.7475 93.5968 70.0275 93.5222C70.3074 93.4569 70.564 93.3496 70.7973 93.2003C71.0399 93.051 71.2358 92.8597 71.3851 92.6264C71.5344 92.4025 71.6091 92.1319 71.6091 91.8146C71.6091 91.6187 71.5951 91.3994 71.5671 91.1568C71.5484 90.9142 71.4458 90.6203 71.2591 90.2751L72.7288 89.3233C72.8221 89.4259 72.9387 89.5892 73.0787 89.8132C73.2186 90.0371 73.3446 90.2891 73.4566 90.569C73.5685 90.8396 73.6245 91.1055 73.6245 91.3668C73.6245 92.2905 73.4332 93.0836 73.0507 93.7461C72.6681 94.418 72.1222 94.9312 71.4131 95.2857C70.7133 95.6496 69.8688 95.8316 68.8798 95.8316ZM74.7302 92.2485C74.301 92.2485 73.8998 92.1832 73.5265 92.0526C73.1626 91.922 72.8314 91.7587 72.5328 91.5627C72.2436 91.3668 71.9963 91.1615 71.791 90.9469C71.5857 90.7229 71.4318 90.527 71.3291 90.359L70.5173 89.0434L72.2809 86.9159L73.2046 88.9734C73.3353 89.2627 73.4472 89.4866 73.5405 89.6452C73.6339 89.7945 73.7598 89.9018 73.9184 89.9671C74.0771 90.0231 74.301 90.0511 74.5903 90.0511H74.8702V92.2485H74.7302ZM68.9917 87.5318L67.5081 86.0482L68.9218 84.5506L70.3914 86.0482L68.9917 87.5318ZM74.8672 90.0511H75.9869V92.2485H74.8672V90.0511ZM74.8672 90.0511H75.0072V92.2485H74.8672C74.5873 92.2485 74.4474 91.8846 74.4474 91.1568C74.4474 90.4197 74.5873 90.0511 74.8672 90.0511ZM75.988 92.2485V90.0511H78.0035C77.9755 90.0604 77.9382 90.0744 77.8915 90.0931C77.8542 90.1118 77.8076 90.1304 77.7516 90.1491C77.7049 90.1584 77.6583 90.1678 77.6116 90.1771C77.4063 89.9065 77.2664 89.6312 77.1917 89.3513C77.1171 89.0714 77.0797 88.7868 77.0797 88.4975C77.0797 88.115 77.1497 87.7464 77.2897 87.3918C77.4297 87.0372 77.6396 86.7153 77.9195 86.4261C78.1995 86.1368 78.5447 85.9082 78.9553 85.7403C79.3751 85.5723 79.8557 85.4883 80.3969 85.4883C80.9474 85.4883 81.4279 85.5723 81.8385 85.7403C82.2584 85.9082 82.6083 86.1368 82.8882 86.4261C83.1681 86.7153 83.3781 87.0372 83.5181 87.3918C83.6673 87.7464 83.742 88.115 83.742 88.4975C83.742 88.7961 83.7 89.0854 83.616 89.3653C83.5414 89.6359 83.4014 89.9065 83.1961 90.1771C83.1122 90.1584 83.0655 90.1398 83.0562 90.1211C83.0468 90.1024 83.0002 90.0791 82.9162 90.0511H84.5538V92.2485H84.2039C83.5414 92.2485 82.9909 92.2439 82.5523 92.2345C82.1138 92.2159 81.7359 92.1832 81.4186 92.1366C81.1107 92.0899 80.8074 92.0106 80.5088 91.8986C80.3689 91.9453 80.2336 91.9919 80.103 92.0386C79.9723 92.0759 79.8137 92.1132 79.6271 92.1506C79.4498 92.1786 79.2119 92.2019 78.9133 92.2205C78.624 92.2392 78.2414 92.2485 77.7656 92.2485H75.988ZM80.3969 90.1631C80.6208 90.0604 80.8074 89.9345 80.9567 89.7852C81.106 89.6359 81.218 89.4679 81.2926 89.2813C81.3673 89.0947 81.4046 88.8988 81.4046 88.6935C81.4046 88.5069 81.3626 88.3389 81.2786 88.1896C81.204 88.0403 81.092 87.919 80.9427 87.8257C80.7934 87.7324 80.6115 87.6857 80.3969 87.6857C80.1916 87.6857 80.0143 87.7324 79.865 87.8257C79.7157 87.919 79.5991 88.045 79.5151 88.2036C79.4405 88.3529 79.4031 88.5162 79.4031 88.6935C79.4031 88.8988 79.4405 89.0947 79.5151 89.2813C79.5898 89.4586 79.7017 89.6219 79.851 89.7712C80.0003 89.9205 80.1823 90.0511 80.3969 90.1631ZM75.988 90.0511H76.128V92.2485H75.988C75.7081 92.2485 75.5681 91.8846 75.5681 91.1568C75.5681 90.4197 75.7081 90.0511 75.988 90.0511ZM79.2072 84.3126L77.7376 82.829L79.1232 81.3314L80.5928 82.829L79.2072 84.3126ZM81.6705 84.3126L80.2009 82.829L81.6006 81.3314L83.0702 82.829L81.6705 84.3126ZM84.558 90.0511H85.6777V92.2485H84.558V90.0511ZM84.558 90.0511H84.698V92.2485H84.558C84.2781 92.2485 84.1382 91.8846 84.1382 91.1568C84.1382 90.4197 84.2781 90.0511 84.558 90.0511ZM85.6788 90.0511H86.7985V92.2485H85.6788V90.0511ZM85.6788 90.0511H85.8188V92.2485H85.6788C85.3989 92.2485 85.259 91.8846 85.259 91.1568C85.259 90.4197 85.3989 90.0511 85.6788 90.0511ZM86.7996 92.2485V90.0511H89.5429C89.4683 89.7245 89.3236 89.3606 89.109 88.9594C88.8944 88.5582 88.6238 88.1523 88.2972 87.7417L90.3127 85.6843C90.5926 86.2161 90.8352 86.7993 91.0405 87.4338C91.2458 88.0683 91.3484 88.7821 91.3484 89.5752C91.3484 90.359 91.1758 91.2501 90.8306 92.2485H86.7996ZM86.7996 90.0511H86.9396V92.2485H86.7996C86.5197 92.2485 86.3798 91.8846 86.3798 91.1568C86.3798 90.4197 86.5197 90.0511 86.7996 90.0511ZM88.1573 84.9145L86.6877 83.4309L88.0733 81.9333L89.5429 83.4309L88.1573 84.9145ZM90.6206 84.9145L89.151 83.4309L90.5507 81.9333L92.0203 83.4309L90.6206 84.9145ZM93.1233 81.8913H95.3768V92.2485H93.1233V81.8913ZM104.547 92.0386C103.865 92.0386 103.264 91.9406 102.741 91.7447C102.219 91.5487 101.808 91.2641 101.509 90.8909C101.22 90.5177 101.076 90.0698 101.076 89.5472C101.076 89.062 101.202 88.6235 101.453 88.2316C101.715 87.8397 102.074 87.4851 102.531 87.1679C102.998 86.8413 103.544 86.538 104.169 86.2581C104.803 85.9689 105.489 85.6889 106.226 85.4183L106.562 87.6298C105.937 87.779 105.414 87.9377 104.995 88.1056C104.584 88.2643 104.257 88.4275 104.015 88.5955C103.772 88.7541 103.595 88.9081 103.483 89.0574C103.38 89.1973 103.329 89.3186 103.329 89.4213C103.329 89.5426 103.408 89.6452 103.567 89.7292C103.726 89.8038 104.024 89.8412 104.463 89.8412C104.556 89.8412 104.691 89.8365 104.869 89.8272C105.046 89.8178 105.251 89.7992 105.484 89.7712C105.718 89.7339 105.965 89.6825 106.226 89.6172L106.744 91.4647C106.371 91.642 106.016 91.782 105.68 91.8846C105.354 91.9873 104.976 92.0386 104.547 92.0386ZM107.962 92.2485C107.365 92.2485 106.884 92.1692 106.52 92.0106C106.166 91.8426 105.895 91.6327 105.708 91.3808C105.531 91.1195 105.41 90.8396 105.344 90.541C105.288 90.2424 105.26 89.9625 105.26 89.7012V84.7745H107.514V89.0714C107.514 89.4353 107.607 89.6919 107.794 89.8412C107.99 89.9811 108.302 90.0511 108.732 90.0511H109.193V92.2485H107.962ZM103.497 83.9907L102.027 82.5071L103.413 81.0095L104.883 82.5071L103.497 83.9907ZM105.96 83.9907L104.491 82.5071L105.89 81.0095L107.36 82.5071L105.96 83.9907ZM109.188 90.0511H110.308V92.2485H109.188V90.0511ZM109.188 90.0511H109.328V92.2485H109.188C108.908 92.2485 108.768 91.8846 108.768 91.1568C108.768 90.4197 108.908 90.0511 109.188 90.0511ZM110.309 90.0511H111.429V92.2485H110.309V90.0511ZM110.309 90.0511H110.449V92.2485H110.309C110.029 92.2485 109.889 91.8846 109.889 91.1568C109.889 90.4197 110.029 90.0511 110.309 90.0511ZM112.326 84.7325L116.245 81.4714L117.728 83.2349L113.893 86.4121L114.243 85.5863C115.307 85.8849 116.128 86.3468 116.706 86.9719C117.294 87.5971 117.668 88.3576 117.826 89.2533C117.994 90.1398 117.975 91.1382 117.77 92.2485H111.43V90.0511H115.839C115.727 89.6219 115.521 89.216 115.223 88.8334C114.924 88.4509 114.532 88.1243 114.047 87.8537C113.571 87.5738 112.997 87.3825 112.326 87.2798V84.7325ZM111.43 90.0511H111.57V92.2485H111.43C111.15 92.2485 111.01 91.8846 111.01 91.1568C111.01 90.4197 111.15 90.0511 111.43 90.0511ZM119.857 95.8316C119.437 95.8316 118.971 95.7383 118.458 95.5517C117.954 95.365 117.497 95.0991 117.086 94.7539L117.786 93.3402C118.159 93.4522 118.472 93.5269 118.724 93.5642C118.976 93.6108 119.213 93.6342 119.437 93.6342C119.941 93.6342 120.384 93.5362 120.767 93.3402C121.159 93.1536 121.462 92.897 121.677 92.5705C121.901 92.2439 122.013 91.8893 122.013 91.5067C122.013 91.1895 121.961 90.9236 121.859 90.7089C121.765 90.485 121.639 90.2751 121.481 90.0791C121.332 89.8738 121.168 89.6406 120.991 89.3793L124 90.8349C124 90.9469 124 91.0588 124 91.1708C124 91.2828 124 91.3948 124 91.5067C124 91.7867 123.954 92.1132 123.86 92.4865C123.776 92.8597 123.636 93.2376 123.44 93.6202C123.244 94.0121 122.983 94.376 122.657 94.7119C122.339 95.0478 121.947 95.3184 121.481 95.5237C121.024 95.729 120.482 95.8316 119.857 95.8316ZM125.106 92.2485C124.77 92.2485 124.453 92.2205 124.154 92.1646C123.865 92.0992 123.59 92.0013 123.328 91.8706C123.076 91.74 122.834 91.572 122.601 91.3668C122.377 91.1615 122.153 90.9142 121.929 90.625L120.109 88.2876L121.901 86.0902L123.664 89.1693C123.795 89.3933 123.916 89.5706 124.028 89.7012C124.14 89.8318 124.275 89.9251 124.434 89.9811C124.602 90.0278 124.826 90.0511 125.106 90.0511H125.246V92.2485H125.106ZM125.248 90.0511H126.368V92.2485H125.248V90.0511ZM125.248 90.0511H125.388V92.2485H125.248C124.969 92.2485 124.829 91.8846 124.829 91.1568C124.829 90.4197 124.969 90.0511 125.248 90.0511ZM126.369 90.0511H127.489V92.2485H126.369V90.0511ZM126.369 90.0511H126.509V92.2485H126.369C126.089 92.2485 125.949 91.8846 125.949 91.1568C125.949 90.4197 126.089 90.0511 126.369 90.0511ZM136.924 92.2485C136.28 92.2485 135.734 92.1879 135.286 92.0666C134.847 91.936 134.479 91.7867 134.18 91.6187C133.882 91.4414 133.625 91.2781 133.411 91.1288L134.656 89.7852C134.824 89.8598 135.053 89.9251 135.342 89.9811C135.641 90.0278 135.967 90.0511 136.322 90.0511H138.043C137.931 89.6312 137.768 89.2253 137.553 88.8334C137.348 88.4322 137.11 88.059 136.84 87.7137L138.855 85.6703C139.07 86.0622 139.266 86.4867 139.443 86.9439C139.62 87.3918 139.746 87.8817 139.821 88.4135C139.905 88.9361 139.914 89.5146 139.849 90.1491C139.783 90.7836 139.616 91.4834 139.345 92.2485H136.924ZM127.49 92.2485V90.0511H128.834C128.862 89.8552 128.88 89.6546 128.89 89.4493C128.908 89.244 128.918 89.0247 128.918 88.7914C128.918 88.5582 128.904 88.3062 128.876 88.0356L131.521 87.1259C131.39 87.779 131.264 88.3342 131.143 88.7914C131.022 89.2487 130.887 89.6546 130.737 90.0091C130.597 90.3637 130.425 90.7136 130.219 91.0588C130.023 91.4041 129.776 91.8007 129.478 92.2485H127.49ZM131.829 92.2485C131.129 92.2485 130.537 92.1879 130.051 92.0666C129.566 91.936 129.179 91.7913 128.89 91.6327C128.61 91.4647 128.414 91.3294 128.302 91.2268L129.128 89.5892C129.361 89.7385 129.65 89.8552 129.995 89.9391C130.341 90.0138 130.719 90.0511 131.129 90.0511H132.823C132.851 89.9112 132.869 89.7385 132.879 89.5333C132.897 89.3186 132.907 89.0854 132.907 88.8334C132.907 88.5722 132.893 88.3062 132.865 88.0356L135.538 87.1259C135.398 87.779 135.267 88.3342 135.146 88.7914C135.025 89.2487 134.889 89.6546 134.74 90.0091C134.591 90.3637 134.414 90.7136 134.208 91.0588C134.012 91.4041 133.77 91.8007 133.48 92.2485H131.829ZM127.49 90.0511H127.63V92.2485H127.49C127.21 92.2485 127.07 91.8846 127.07 91.1568C127.07 90.4197 127.21 90.0511 127.49 90.0511ZM134.348 84.3406L132.851 82.857L134.264 81.3594L135.734 82.857L134.348 84.3406ZM133.145 86.678L131.675 85.1804L133.061 83.6968L134.53 85.1804L133.145 86.678ZM135.608 86.678L134.138 85.1804L135.538 83.6968L137.008 85.1804L135.608 86.678ZM6.78433 109.039C6.10318 109.039 5.50134 108.941 4.97881 108.745C4.45628 108.549 4.04572 108.264 3.74713 107.891C3.45788 107.518 3.31325 107.07 3.31325 106.547C3.31325 106.062 3.43921 105.623 3.69115 105.232C3.95241 104.84 4.31165 104.485 4.76886 104.168C5.23541 103.841 5.78126 103.538 6.40643 103.258C7.04093 102.969 7.72675 102.689 8.46389 102.418L8.7998 104.63C8.17463 104.779 7.6521 104.938 7.23221 105.106C6.82166 105.264 6.49507 105.428 6.25247 105.595C6.00987 105.754 5.83258 105.908 5.72061 106.057C5.61797 106.197 5.56665 106.319 5.56665 106.421C5.56665 106.543 5.64597 106.645 5.80459 106.729C5.96322 106.804 6.2618 106.841 6.70035 106.841C6.79366 106.841 6.92896 106.837 7.10625 106.827C7.28353 106.818 7.48881 106.799 7.72208 106.771C7.95536 106.734 8.20262 106.683 8.46389 106.617L8.98175 108.465C8.60852 108.642 8.25394 108.782 7.91803 108.885C7.59145 108.987 7.21355 109.039 6.78433 109.039ZM10.1994 109.249C9.60226 109.249 9.12172 109.169 8.75781 109.011C8.40324 108.843 8.13264 108.633 7.94603 108.381C7.76874 108.119 7.64744 107.84 7.58212 107.541C7.52614 107.242 7.49814 106.962 7.49814 106.701V101.775H9.75155V106.071C9.75155 106.435 9.84486 106.692 10.0315 106.841C10.2274 106.981 10.54 107.051 10.9692 107.051H11.4311V109.249H10.1994ZM5.73461 100.991L4.265 99.5071L5.65063 98.0095L7.12024 99.5071L5.73461 100.991ZM8.19796 100.991L6.72835 99.5071L8.12798 98.0095L9.59759 99.5071L8.19796 100.991ZM11.426 109.249V107.051H13.3715C13.4088 106.892 13.4414 106.678 13.4694 106.407C13.4974 106.137 13.5207 105.866 13.5394 105.595C13.5581 105.316 13.5627 105.082 13.5534 104.896L16.1847 103.972C16.0168 104.653 15.8488 105.292 15.6808 105.889C15.5222 106.477 15.3309 107.046 15.107 107.597C14.8924 108.138 14.6125 108.689 14.2672 109.249H11.426ZM17.1645 109.249C16.5206 109.249 15.9748 109.188 15.5269 109.067C15.0883 108.936 14.7198 108.787 14.4212 108.619C14.1226 108.441 13.866 108.278 13.6514 108.129L14.8411 106.743C14.9717 106.809 15.1257 106.864 15.3029 106.911C15.4802 106.958 15.6762 106.995 15.8908 107.023C16.1054 107.042 16.3293 107.051 16.5626 107.051H17.1645V109.249ZM11.426 107.051H11.5659V109.249H11.426C11.146 109.249 11.0061 108.885 11.0061 108.157C11.0061 107.42 11.146 107.051 11.426 107.051ZM13.0355 113.014L11.5659 111.516L12.9516 110.032L14.4212 111.516L13.0355 113.014ZM15.4989 113.014L14.0293 111.516L15.4289 110.032L16.8985 111.516L15.4989 113.014ZM17.1666 109.249V107.051H18.5243V98.8913H20.7777V109.249H17.1666ZM17.1666 107.051H17.3066V109.249H17.1666C16.8867 109.249 16.7468 108.885 16.7468 108.157C16.7468 107.42 16.8867 107.051 17.1666 107.051ZM25.3985 109.249C24.932 109.249 24.5308 109.202 24.1949 109.109C23.859 109.015 23.579 108.871 23.3551 108.675C23.1405 108.469 22.9772 108.208 22.8652 107.891C22.7626 107.574 22.7113 107.191 22.7113 106.743V98.8913H24.9647V105.931C24.9647 106.137 24.9787 106.314 25.0066 106.463C25.0346 106.603 25.086 106.72 25.1606 106.813C25.2353 106.897 25.3379 106.958 25.4685 106.995C25.6085 107.032 25.7904 107.051 26.0144 107.051H26.5602V109.249H25.3985ZM26.5567 109.249V107.051H26.5987C26.7107 107.051 26.8133 107.028 26.9066 106.981C27.0093 106.934 27.1166 106.855 27.2286 106.743C27.3405 106.631 27.4618 106.477 27.5925 106.281C27.7324 106.076 27.8957 105.819 28.0823 105.512C28.3529 105.064 28.6142 104.686 28.8661 104.378C29.1181 104.061 29.3653 103.809 29.6079 103.622C29.8599 103.435 30.1118 103.3 30.3637 103.216C30.6157 103.132 30.8723 103.09 31.1335 103.09C31.5628 103.09 31.95 103.183 32.2952 103.37C32.6405 103.557 32.9624 103.855 33.261 104.266C33.5596 104.667 33.8535 105.208 34.1427 105.889C34.3014 106.235 34.4507 106.491 34.5906 106.659C34.7399 106.827 34.9032 106.934 35.0805 106.981C35.2578 107.028 35.4677 107.051 35.7103 107.051H35.8643V109.249H35.1645C34.7632 109.249 34.4087 109.183 34.1007 109.053C33.8022 108.922 33.5409 108.749 33.317 108.535C33.093 108.311 32.8971 108.073 32.7291 107.821C32.5705 107.569 32.4352 107.322 32.3232 107.079C32.1459 106.706 31.9873 106.384 31.8473 106.113C31.7074 105.843 31.5721 105.637 31.4415 105.498C31.3108 105.348 31.1709 105.274 31.0216 105.274C30.9376 105.274 30.8256 105.325 30.6857 105.428C30.5457 105.521 30.3824 105.679 30.1958 105.903C30.0185 106.127 29.8085 106.435 29.5659 106.827C29.3233 107.228 29.1087 107.569 28.9221 107.849C28.7355 108.129 28.5582 108.362 28.3903 108.549C28.2223 108.726 28.0543 108.866 27.8864 108.969C27.7184 109.071 27.5365 109.146 27.3405 109.193C27.1446 109.23 26.916 109.249 26.6547 109.249H26.5567ZM33.9888 108.619C33.6622 108.992 33.2843 109.249 32.8551 109.388C32.4352 109.528 31.9966 109.584 31.5394 109.556C31.0915 109.528 30.653 109.44 30.2238 109.291C29.8039 109.141 29.4213 108.955 29.0761 108.731C28.7402 108.507 28.4742 108.273 28.2783 108.031L29.412 106.701C29.5333 106.804 29.7199 106.92 29.9718 107.051C30.2331 107.182 30.5364 107.303 30.8816 107.415C31.2362 107.518 31.6141 107.588 32.0153 107.625C32.4165 107.653 32.8224 107.62 33.233 107.527L33.9888 108.619ZM26.5567 107.051H26.6967V109.249H26.5567C26.2768 109.249 26.1369 108.885 26.1369 108.157C26.1369 107.42 26.2768 107.051 26.5567 107.051ZM35.8648 109.249V107.051H37.2225V98.8913H39.4759V109.249H35.8648ZM35.8648 107.051H36.0048V109.249H35.8648C35.5849 109.249 35.4449 108.885 35.4449 108.157C35.4449 107.42 35.5849 107.051 35.8648 107.051ZM41.4094 98.8913H43.6629V109.249H41.4094V98.8913ZM52.8327 109.039C52.1516 109.039 51.5497 108.941 51.0272 108.745C50.5047 108.549 50.0941 108.264 49.7955 107.891C49.5063 107.518 49.3616 107.07 49.3616 106.547C49.3616 106.062 49.4876 105.623 49.7395 105.232C50.0008 104.84 50.36 104.485 50.8173 104.168C51.2838 103.841 51.8297 103.538 52.4548 103.258C53.0893 102.969 53.7751 102.689 54.5123 102.418L54.8482 104.63C54.223 104.779 53.7005 104.938 53.2806 105.106C52.8701 105.264 52.5435 105.428 52.3009 105.595C52.0583 105.754 51.881 105.908 51.769 106.057C51.6664 106.197 51.615 106.319 51.615 106.421C51.615 106.543 51.6944 106.645 51.853 106.729C52.0116 106.804 52.3102 106.841 52.7488 106.841C52.8421 106.841 52.9774 106.837 53.1546 106.827C53.3319 106.818 53.5372 106.799 53.7705 106.771C54.0038 106.734 54.251 106.683 54.5123 106.617L55.0301 108.465C54.6569 108.642 54.3023 108.782 53.9664 108.885C53.6398 108.987 53.2619 109.039 52.8327 109.039ZM56.2478 109.249C55.6507 109.249 55.1701 109.169 54.8062 109.011C54.4516 108.843 54.181 108.633 53.9944 108.381C53.8171 108.119 53.6958 107.84 53.6305 107.541C53.5745 107.242 53.5465 106.962 53.5465 106.701V101.775H55.7999V106.071C55.7999 106.435 55.8933 106.692 56.0799 106.841C56.2758 106.981 56.5884 107.051 57.0176 107.051H57.4795V109.249H56.2478ZM51.783 100.991L50.3134 99.5071L51.699 98.0095L53.1686 99.5071L51.783 100.991ZM54.2464 100.991L52.7767 99.5071L54.1764 98.0095L55.646 99.5071L54.2464 100.991ZM57.4744 109.249V107.051H59.4199C59.4572 106.892 59.4898 106.678 59.5178 106.407C59.5458 106.137 59.5691 105.866 59.5878 105.595C59.6065 105.316 59.6111 105.082 59.6018 104.896L62.2331 103.972C62.0652 104.653 61.8972 105.292 61.7292 105.889C61.5706 106.477 61.3793 107.046 61.1554 107.597C60.9408 108.138 60.6609 108.689 60.3156 109.249H57.4744ZM63.2129 109.249C62.569 109.249 62.0232 109.188 61.5753 109.067C61.1367 108.936 60.7682 108.787 60.4696 108.619C60.171 108.441 59.9144 108.278 59.6998 108.129L60.8895 106.743C61.0201 106.809 61.1741 106.864 61.3513 106.911C61.5286 106.958 61.7246 106.995 61.9392 107.023C62.1538 107.042 62.3777 107.051 62.611 107.051H63.2129V109.249ZM57.4744 107.051H57.6143V109.249H57.4744C57.1944 109.249 57.0545 108.885 57.0545 108.157C57.0545 107.42 57.1944 107.051 57.4744 107.051ZM59.0839 113.014L57.6143 111.516L59 110.032L60.4696 111.516L59.0839 113.014ZM61.5473 113.014L60.0777 111.516L61.4773 110.032L62.9469 111.516L61.5473 113.014ZM63.215 109.249V107.051H65.1605C65.1978 106.892 65.2305 106.678 65.2585 106.407C65.2865 106.137 65.3098 105.866 65.3285 105.595C65.3471 105.316 65.3518 105.082 65.3425 104.896L67.9738 103.972C67.8058 104.653 67.6379 105.292 67.4699 105.889C67.3113 106.477 67.12 107.046 66.8961 107.597C66.6815 108.138 66.4015 108.689 66.0563 109.249H63.215ZM68.9535 109.249C68.3097 109.249 67.7638 109.188 67.316 109.067C66.8774 108.936 66.5088 108.787 66.2102 108.619C65.9117 108.441 65.6551 108.278 65.4405 108.129L66.6301 106.743C66.7608 106.809 66.9147 106.864 67.092 106.911C67.2693 106.958 67.4653 106.995 67.6799 107.023C67.8945 107.042 68.1184 107.051 68.3517 107.051H68.9535V109.249ZM63.215 107.051H63.355V109.249H63.215C62.9351 109.249 62.7951 108.885 62.7951 108.157C62.7951 107.42 62.9351 107.051 63.215 107.051ZM66.7141 103.16L65.2305 101.677L66.6441 100.179L68.1137 101.677L66.7141 103.16ZM68.9557 109.249V107.051H70.9712C70.9432 107.06 70.9059 107.074 70.8592 107.093C70.8219 107.112 70.7752 107.13 70.7192 107.149C70.6726 107.158 70.6259 107.168 70.5793 107.177C70.374 106.906 70.234 106.631 70.1594 106.351C70.0847 106.071 70.0474 105.787 70.0474 105.498C70.0474 105.115 70.1174 104.746 70.2574 104.392C70.3973 104.037 70.6073 103.715 70.8872 103.426C71.1671 103.137 71.5124 102.908 71.9229 102.74C72.3428 102.572 72.8234 102.488 73.3645 102.488C73.9151 102.488 74.3956 102.572 74.8062 102.74C75.2261 102.908 75.576 103.137 75.8559 103.426C76.1358 103.715 76.3458 104.037 76.4857 104.392C76.635 104.746 76.7097 105.115 76.7097 105.498C76.7097 105.796 76.6677 106.085 76.5837 106.365C76.5091 106.636 76.3691 106.906 76.1638 107.177C76.0798 107.158 76.0332 107.14 76.0238 107.121C76.0145 107.102 75.9679 107.079 75.8839 107.051H77.5215V109.249H77.1715C76.5091 109.249 75.9585 109.244 75.52 109.235C75.0814 109.216 74.7035 109.183 74.3863 109.137C74.0784 109.09 73.7751 109.011 73.4765 108.899C73.3366 108.945 73.2013 108.992 73.0706 109.039C72.94 109.076 72.7814 109.113 72.5948 109.151C72.4175 109.179 72.1795 109.202 71.8809 109.221C71.5917 109.239 71.2091 109.249 70.7332 109.249H68.9557ZM73.3645 107.163C73.5885 107.06 73.7751 106.934 73.9244 106.785C74.0737 106.636 74.1857 106.468 74.2603 106.281C74.335 106.095 74.3723 105.899 74.3723 105.693C74.3723 105.507 74.3303 105.339 74.2463 105.19C74.1717 105.04 74.0597 104.919 73.9104 104.826C73.7611 104.732 73.5792 104.686 73.3645 104.686C73.1593 104.686 72.982 104.732 72.8327 104.826C72.6834 104.919 72.5668 105.045 72.4828 105.204C72.4081 105.353 72.3708 105.516 72.3708 105.693C72.3708 105.899 72.4081 106.095 72.4828 106.281C72.5574 106.459 72.6694 106.622 72.8187 106.771C72.968 106.92 73.1499 107.051 73.3645 107.163ZM68.9557 107.051H69.0957V109.249H68.9557C68.6758 109.249 68.5358 108.885 68.5358 108.157C68.5358 107.42 68.6758 107.051 68.9557 107.051ZM72.1749 101.313L70.7052 99.829L72.0909 98.3314L73.5605 99.829L72.1749 101.313ZM74.6382 101.313L73.1686 99.829L74.5682 98.3314L76.0378 99.829L74.6382 101.313ZM77.5257 109.249V107.051H79.7931C79.8304 106.892 79.8631 106.678 79.8911 106.407C79.9191 106.137 79.9424 105.866 79.9611 105.595C79.9797 105.316 79.9844 105.082 79.9751 104.896L82.6064 103.972C82.4384 104.653 82.2705 105.292 82.1025 105.889C81.9439 106.477 81.7526 107.046 81.5287 107.597C81.3141 108.138 81.0341 108.689 80.6889 109.249H77.5257ZM83.4042 109.249C82.7603 109.249 82.2145 109.188 81.7666 109.067C81.3187 108.936 80.9455 108.787 80.6469 108.619C80.3576 108.441 80.1057 108.278 79.8911 108.129L81.0528 106.743C81.1928 106.809 81.3514 106.864 81.5287 106.911C81.7059 106.958 81.9019 106.995 82.1165 107.023C82.3311 107.042 82.5597 107.051 82.8023 107.051H83.7121V109.249H83.4042ZM77.5257 107.051H77.6657V109.249H77.5257C77.2458 109.249 77.1058 108.885 77.1058 108.157C77.1058 107.42 77.2458 107.051 77.5257 107.051ZM80.101 103.16L78.6314 101.677L80.0171 100.179L81.4867 101.677L80.101 103.16ZM82.5644 103.16L81.0948 101.677L82.4944 100.179L83.964 101.677L82.5644 103.16ZM86.9086 107.051H88.5882V109.249H86.9086V107.051ZM83.7174 109.249V107.051H85.0751V98.8913H87.3285V109.249H83.7174ZM83.7174 107.051H83.8574V109.249H83.7174C83.4375 109.249 83.2975 108.885 83.2975 108.157C83.2975 107.42 83.4375 107.051 83.7174 107.051ZM88.5833 109.249V107.051H89.941V98.8913H92.1944V109.249H88.5833ZM88.5833 107.051H88.7233V109.249H88.5833C88.3034 109.249 88.1635 108.885 88.1635 108.157C88.1635 107.42 88.3034 107.051 88.5833 107.051ZM101.369 109.039C100.688 109.039 100.086 108.941 99.5632 108.745C99.0407 108.549 98.6301 108.264 98.3316 107.891C98.0423 107.518 97.8977 107.07 97.8977 106.547C97.8977 106.062 98.0236 105.623 98.2756 105.232C98.5368 104.84 98.8961 104.485 99.3533 104.168C99.8198 103.841 100.366 103.538 100.991 103.258C101.625 102.969 102.311 102.689 103.048 102.418L103.384 104.63C102.759 104.779 102.237 104.938 101.817 105.106C101.406 105.264 101.079 105.428 100.837 105.595C100.594 105.754 100.417 105.908 100.305 106.057C100.202 106.197 100.151 106.319 100.151 106.421C100.151 106.543 100.23 106.645 100.389 106.729C100.548 106.804 100.846 106.841 101.285 106.841C101.378 106.841 101.513 106.837 101.691 106.827C101.868 106.818 102.073 106.799 102.307 106.771C102.54 106.734 102.787 106.683 103.048 106.617L103.566 108.465C103.193 108.642 102.838 108.782 102.502 108.885C102.176 108.987 101.798 109.039 101.369 109.039ZM104.784 109.249C104.187 109.249 103.706 109.169 103.342 109.011C102.988 108.843 102.717 108.633 102.53 108.381C102.353 108.119 102.232 107.84 102.167 107.541C102.111 107.242 102.083 106.962 102.083 106.701V101.775H104.336V106.071C104.336 106.435 104.429 106.692 104.616 106.841C104.812 106.981 105.124 107.051 105.554 107.051H106.016V109.249H104.784ZM100.319 100.991L98.8494 99.5071L100.235 98.0095L101.705 99.5071L100.319 100.991ZM102.782 100.991L101.313 99.5071L102.712 98.0095L104.182 99.5071L102.782 100.991ZM106.01 109.249V107.051H108.278C108.315 106.892 108.348 106.678 108.376 106.407C108.404 106.137 108.427 105.866 108.446 105.595C108.464 105.316 108.469 105.082 108.46 104.896L111.091 103.972C110.923 104.653 110.755 105.292 110.587 105.889C110.429 106.477 110.237 107.046 110.013 107.597C109.799 108.138 109.519 108.689 109.174 109.249H106.01ZM111.889 109.249C111.245 109.249 110.699 109.188 110.251 109.067C109.803 108.936 109.43 108.787 109.132 108.619C108.842 108.441 108.59 108.278 108.376 108.129L109.537 106.743C109.677 106.809 109.836 106.864 110.013 106.911C110.191 106.958 110.387 106.995 110.601 107.023C110.816 107.042 111.044 107.051 111.287 107.051H112.197V109.249H111.889ZM106.01 107.051H106.15V109.249H106.01C105.73 109.249 105.591 108.885 105.591 108.157C105.591 107.42 105.73 107.051 106.01 107.051ZM107.928 113.014L106.458 111.516L107.844 110.032L109.314 111.516L107.928 113.014ZM110.391 113.014L108.922 111.516L110.321 110.032L111.791 111.516L110.391 113.014ZM112.202 109.249V107.051H114.665C114.591 106.725 114.446 106.361 114.232 105.959C114.017 105.558 113.746 105.152 113.42 104.742L115.435 102.684C115.715 103.216 115.958 103.799 116.163 104.434C116.368 105.068 116.471 105.782 116.471 106.575C116.48 107.359 116.312 108.25 115.967 109.249H112.202ZM112.202 107.051H112.342V109.249H112.202C111.922 109.249 111.782 108.885 111.782 108.157C111.782 107.42 111.922 107.051 112.202 107.051ZM114.581 113.014L113.098 111.516L114.512 110.032L115.981 111.516L114.581 113.014ZM118.798 112.832C118.378 112.832 117.912 112.738 117.398 112.552C116.894 112.365 116.437 112.099 116.027 111.754L116.727 110.34C117.1 110.452 117.412 110.527 117.664 110.564C117.916 110.611 118.154 110.634 118.378 110.634C118.882 110.634 119.325 110.536 119.708 110.34C120.1 110.154 120.403 109.897 120.618 109.57C120.841 109.244 120.953 108.889 120.953 108.507C120.953 108.189 120.902 107.924 120.799 107.709C120.706 107.485 120.58 107.275 120.422 107.079C120.272 106.874 120.109 106.641 119.932 106.379L122.941 107.835C122.941 107.947 122.941 108.059 122.941 108.171C122.941 108.283 122.941 108.395 122.941 108.507C122.941 108.787 122.894 109.113 122.801 109.486C122.717 109.86 122.577 110.238 122.381 110.62C122.185 111.012 121.924 111.376 121.597 111.712C121.28 112.048 120.888 112.318 120.422 112.524C119.964 112.729 119.423 112.832 118.798 112.832ZM124.047 109.249C123.711 109.249 123.393 109.221 123.095 109.165C122.806 109.099 122.53 109.001 122.269 108.871C122.017 108.74 121.775 108.572 121.541 108.367C121.317 108.161 121.093 107.914 120.869 107.625L119.05 105.288L120.841 103.09L122.605 106.169C122.736 106.393 122.857 106.571 122.969 106.701C123.081 106.832 123.216 106.925 123.375 106.981C123.543 107.028 123.767 107.051 124.047 107.051H124.187V109.249H124.047ZM132.629 109.249C132.106 109.249 131.635 109.249 131.215 109.249C130.795 109.239 130.404 109.211 130.04 109.165C129.685 109.118 129.344 109.043 129.018 108.941C128.691 108.829 128.36 108.67 128.024 108.465C127.698 108.259 127.348 107.989 126.974 107.653L125.295 106.127V103.398C125.612 103.258 125.981 103.137 126.401 103.034C126.83 102.922 127.264 102.834 127.702 102.768C128.141 102.703 128.533 102.67 128.878 102.67C129.484 102.67 130.035 102.75 130.53 102.908C131.024 103.067 131.416 103.309 131.705 103.636C132.004 103.963 132.153 104.382 132.153 104.896C132.153 105.166 132.116 105.432 132.041 105.693C131.966 105.945 131.864 106.193 131.733 106.435C131.612 106.669 131.472 106.888 131.313 107.093C131.369 107.074 131.425 107.065 131.481 107.065C131.537 107.056 131.589 107.051 131.635 107.051H132.979V109.249H132.629ZM124.189 109.249V107.051H125.981C126.261 107.051 126.489 107.046 126.667 107.037C126.853 107.018 127.035 106.995 127.212 106.967C127.399 106.93 127.632 106.888 127.912 106.841L128.948 108.801C128.472 108.941 127.926 109.053 127.31 109.137C126.704 109.211 126.083 109.249 125.449 109.249H124.189ZM128.878 106.953C129.074 106.785 129.247 106.617 129.396 106.449C129.554 106.281 129.676 106.113 129.76 105.945C129.853 105.777 129.9 105.619 129.9 105.47C129.9 105.386 129.867 105.297 129.802 105.204C129.736 105.101 129.629 105.017 129.48 104.952C129.33 104.886 129.13 104.854 128.878 104.854C128.645 104.854 128.355 104.872 128.01 104.91C127.665 104.938 127.357 104.989 127.086 105.064L128.374 106.421C128.477 106.515 128.565 106.608 128.64 106.701C128.724 106.795 128.803 106.878 128.878 106.953ZM124.189 107.051H124.329V109.249H124.189C123.909 109.249 123.769 108.885 123.769 108.157C123.769 107.42 123.909 107.051 124.189 107.051ZM132.978 109.249V107.051H134.336V98.8913H136.589V109.249H132.978ZM132.978 107.051H133.118V109.249H132.978C132.698 109.249 132.558 108.885 132.558 108.157C132.558 107.42 132.698 107.051 132.978 107.051ZM138.522 98.8913H140.776V109.249H138.522V98.8913Z" fill="#435363"/>
<path d="M3.48015 130.503L6.16973 123.556H7.26144L9.93117 130.503H8.78984L7.20189 126.315C7.18204 126.268 7.14235 126.156 7.0828 125.977C7.02987 125.799 6.96701 125.6 6.89423 125.382C6.82145 125.163 6.75528 124.965 6.69574 124.786C6.63619 124.601 6.59649 124.482 6.57664 124.429L6.80491 124.419C6.76521 124.532 6.71559 124.674 6.65604 124.846C6.60311 125.018 6.54356 125.2 6.47739 125.392C6.41785 125.584 6.3583 125.766 6.29875 125.938C6.2392 126.103 6.18958 126.242 6.14988 126.354L4.57186 130.503H3.48015ZM4.67111 128.776L5.06809 127.744H8.22413L8.68067 128.776H4.67111ZM11.4924 130.503V123.963H12.5147V130.503H11.4924ZM10.4107 126.285V125.292H13.7255V126.285H10.4107ZM18.409 132.686V129.262H18.6075C18.6075 129.421 18.5546 129.58 18.4487 129.739C18.3428 129.891 18.2006 130.033 18.0219 130.165C17.8433 130.298 17.6448 130.404 17.4265 130.483C17.2081 130.562 16.9832 130.602 16.7516 130.602C16.2818 130.602 15.8617 130.486 15.4911 130.255C15.1206 130.017 14.8262 129.696 14.6079 129.292C14.3961 128.882 14.2903 128.415 14.2903 127.893C14.2903 127.37 14.3961 126.907 14.6079 126.503C14.8196 126.093 15.1074 125.772 15.4713 125.541C15.8418 125.302 16.2587 125.183 16.7218 125.183C16.9798 125.183 17.2247 125.226 17.4562 125.312C17.6944 125.398 17.9061 125.511 18.0914 125.65C18.2833 125.789 18.4322 125.944 18.538 126.116C18.6505 126.282 18.7067 126.45 18.7067 126.622L18.409 126.642V125.283H19.4312V132.686H18.409ZM16.8608 129.659C17.1717 129.659 17.4463 129.583 17.6845 129.431C17.9227 129.279 18.1079 129.07 18.2403 128.806C18.3792 128.541 18.4487 128.237 18.4487 127.893C18.4487 127.549 18.3792 127.244 18.2403 126.98C18.1079 126.708 17.9227 126.497 17.6845 126.345C17.4463 126.192 17.1717 126.116 16.8608 126.116C16.5498 126.116 16.2752 126.196 16.037 126.354C15.7988 126.507 15.6102 126.718 15.4713 126.99C15.339 127.254 15.2728 127.555 15.2728 127.893C15.2728 128.23 15.339 128.535 15.4713 128.806C15.6102 129.07 15.7988 129.279 16.037 129.431C16.2752 129.583 16.5498 129.659 16.8608 129.659ZM23.9458 130.503V127.109C23.9458 126.818 23.8399 126.583 23.6282 126.404C23.4231 126.219 23.1617 126.126 22.8442 126.126C22.553 126.126 22.2884 126.186 22.0502 126.305C21.8186 126.424 21.6069 126.606 21.415 126.851L20.7501 126.186C21.061 125.848 21.3952 125.597 21.7524 125.431C22.1163 125.266 22.5067 125.183 22.9236 125.183C23.3205 125.183 23.6646 125.249 23.9557 125.382C24.2468 125.514 24.4718 125.709 24.6306 125.967C24.7894 126.219 24.8688 126.526 24.8688 126.89V130.503H23.9458ZM22.3876 130.602C22.0502 130.602 21.7491 130.536 21.4845 130.404C21.2198 130.271 21.0081 130.089 20.8493 129.858C20.6971 129.62 20.621 129.342 20.621 129.024C20.621 128.746 20.6707 128.501 20.7699 128.29C20.8691 128.078 21.0147 127.903 21.2066 127.764C21.4051 127.625 21.6499 127.519 21.941 127.446C22.2387 127.373 22.5795 127.337 22.9632 127.337H24.4122L24.3229 128.151H22.8342C22.6357 128.151 22.4571 128.171 22.2983 128.21C22.1461 128.243 22.0138 128.3 21.9013 128.379C21.7954 128.452 21.7161 128.541 21.6631 128.647C21.6102 128.746 21.5837 128.865 21.5837 129.004C21.5837 129.15 21.6201 129.279 21.6929 129.391C21.7657 129.497 21.8649 129.58 21.9906 129.639C22.1163 129.699 22.2619 129.729 22.4273 129.729C22.6655 129.729 22.8905 129.689 23.1022 129.61C23.3205 129.524 23.5124 129.408 23.6778 129.262C23.8499 129.117 23.9822 128.955 24.0748 128.776L24.313 129.441C24.1741 129.673 24.002 129.874 23.7969 130.046C23.5918 130.218 23.3702 130.354 23.132 130.453C22.8938 130.553 22.6457 130.602 22.3876 130.602ZM26.1608 130.503V125.292H27.183V126.364L27.0044 126.483C27.0705 126.252 27.1996 126.04 27.3914 125.848C27.5833 125.65 27.8116 125.491 28.0762 125.372C28.3409 125.246 28.6122 125.183 28.89 125.183C29.287 125.183 29.6179 125.263 29.8825 125.422C30.1472 125.574 30.3457 125.809 30.478 126.126C30.6103 126.444 30.6765 126.844 30.6765 127.327V130.503H29.6542V127.397C29.6542 127.099 29.6145 126.854 29.5352 126.662C29.4558 126.464 29.3334 126.321 29.1679 126.235C29.0025 126.143 28.7974 126.103 28.5526 126.116C28.3541 126.116 28.1722 126.149 28.0068 126.215C27.8413 126.275 27.6958 126.361 27.5701 126.474C27.451 126.586 27.355 126.718 27.2823 126.871C27.2161 127.016 27.183 127.175 27.183 127.347V130.503H26.6769C26.5908 130.503 26.5048 130.503 26.4188 130.503C26.3328 130.503 26.2468 130.503 26.1608 130.503ZM38.2093 130.602C37.7064 130.602 37.2367 130.513 36.8 130.334C36.3633 130.149 35.9796 129.894 35.6487 129.57C35.3179 129.246 35.0599 128.869 34.8746 128.439C34.696 128.002 34.6066 127.532 34.6066 127.029C34.6066 126.533 34.696 126.07 34.8746 125.64C35.0599 125.21 35.3146 124.836 35.6388 124.518C35.9696 124.194 36.3534 123.943 36.7901 123.764C37.2268 123.585 37.6965 123.496 38.1994 123.496C38.55 123.496 38.8908 123.546 39.2216 123.645C39.559 123.744 39.8634 123.883 40.1347 124.062C40.406 124.24 40.6276 124.446 40.7996 124.677L40.1049 125.402C39.8072 125.117 39.4962 124.902 39.172 124.757C38.8544 124.611 38.5302 124.538 38.1994 124.538C37.8421 124.538 37.5113 124.601 37.2069 124.727C36.9092 124.852 36.6445 125.028 36.4129 125.253C36.188 125.478 36.0126 125.742 35.8869 126.047C35.7612 126.345 35.6984 126.672 35.6984 127.029C35.6984 127.373 35.7645 127.701 35.8969 128.012C36.0292 128.316 36.2111 128.584 36.4427 128.816C36.6809 129.047 36.9522 129.229 37.2565 129.362C37.5675 129.494 37.895 129.56 38.2391 129.56C38.4971 129.56 38.7419 129.524 38.9735 129.451C39.2051 129.372 39.4102 129.262 39.5888 129.123C39.7675 128.984 39.9064 128.826 40.0057 128.647C40.1049 128.462 40.1545 128.267 40.1545 128.061V127.863L40.3034 128.002H38.1795V126.94H41.2562C41.2694 127.013 41.2793 127.086 41.2859 127.158C41.2926 127.224 41.2959 127.291 41.2959 127.357C41.3025 127.416 41.3058 127.476 41.3058 127.535C41.3058 127.992 41.2264 128.409 41.0676 128.786C40.9088 129.156 40.6872 129.477 40.4026 129.749C40.1248 130.02 39.7972 130.232 39.4201 130.384C39.0496 130.529 38.646 130.602 38.2093 130.602ZM44.2695 130.602C43.899 130.602 43.5748 130.516 43.2969 130.344C43.0256 130.172 42.8139 129.931 42.6617 129.62C42.5162 129.309 42.4434 128.938 42.4434 128.508V125.292H43.4656V128.23C43.4656 128.687 43.5715 129.047 43.7832 129.312C44.0016 129.577 44.3026 129.709 44.6864 129.709C44.8783 129.709 45.0536 129.679 45.2124 129.62C45.3712 129.553 45.5068 129.464 45.6193 129.352C45.7384 129.239 45.831 129.104 45.8972 128.945C45.9633 128.786 45.9964 128.614 45.9964 128.429V125.292H47.0187V130.503H45.9964V129.411L46.1751 129.292C46.0957 129.537 45.96 129.759 45.7682 129.957C45.5829 130.156 45.3613 130.314 45.1032 130.433C44.8452 130.546 44.5673 130.602 44.2695 130.602ZM48.4723 130.503V123.159H49.4946V130.503H48.4723ZM51.509 130.503V124.707C51.509 124.409 51.5752 124.145 51.7075 123.913C51.8399 123.681 52.0218 123.499 52.2534 123.367C52.485 123.235 52.7529 123.169 53.0573 123.169C53.269 123.169 53.4675 123.208 53.6528 123.288C53.838 123.367 53.9869 123.473 54.0994 123.605L53.752 124.389C53.666 124.31 53.57 124.247 53.4642 124.201C53.3649 124.148 53.269 124.121 53.1764 124.121C53.0374 124.121 52.9183 124.145 52.8191 124.191C52.7265 124.231 52.657 124.297 52.6107 124.389C52.5643 124.475 52.5412 124.581 52.5412 124.707V130.503H52.0251C51.9391 130.503 51.8531 130.503 51.7671 130.503C51.6811 130.503 51.595 130.503 51.509 130.503ZM50.6754 126.325V125.382H53.7718V126.325H50.6754ZM57.1547 130.503L59.8443 123.556H60.936L63.6057 130.503H62.4644L60.8764 126.315C60.8566 126.268 60.8169 126.156 60.7573 125.977C60.7044 125.799 60.6415 125.6 60.5688 125.382C60.496 125.163 60.4298 124.965 60.3703 124.786C60.3107 124.601 60.271 124.482 60.2512 124.429L60.4794 124.419C60.4397 124.532 60.3901 124.674 60.3306 124.846C60.2776 125.018 60.2181 125.2 60.1519 125.392C60.0924 125.584 60.0328 125.766 59.9733 125.938C59.9137 126.103 59.8641 126.242 59.8244 126.354L58.2464 130.503H57.1547ZM58.3456 128.776L58.7426 127.744H61.8987L62.3552 128.776H58.3456ZM64.5703 130.503V125.292H65.6025V126.93L65.5033 126.533C65.576 126.282 65.6984 126.053 65.8705 125.848C66.0491 125.643 66.2509 125.481 66.4759 125.362C66.7074 125.243 66.9456 125.183 67.1904 125.183C67.3029 125.183 67.4088 125.193 67.508 125.213C67.6139 125.233 67.6966 125.256 67.7562 125.283L67.4882 126.394C67.4088 126.361 67.3195 126.335 67.2202 126.315C67.1276 126.288 67.035 126.275 66.9423 126.275C66.7637 126.275 66.5917 126.311 66.4262 126.384C66.2675 126.45 66.1252 126.546 65.9995 126.672C65.8804 126.791 65.7845 126.933 65.7117 127.099C65.6389 127.258 65.6025 127.433 65.6025 127.625V130.503H64.5703ZM71.4368 130.503V127.109C71.4368 126.818 71.3309 126.583 71.1192 126.404C70.9141 126.219 70.6528 126.126 70.3352 126.126C70.044 126.126 69.7794 126.186 69.5412 126.305C69.3096 126.424 69.0979 126.606 68.906 126.851L68.2411 126.186C68.552 125.848 68.8862 125.597 69.2435 125.431C69.6074 125.266 69.9977 125.183 70.4146 125.183C70.8115 125.183 71.1556 125.249 71.4467 125.382C71.7378 125.514 71.9628 125.709 72.1216 125.967C72.2804 126.219 72.3598 126.526 72.3598 126.89V130.503H71.4368ZM69.8786 130.602C69.5412 130.602 69.2401 130.536 68.9755 130.404C68.7108 130.271 68.4991 130.089 68.3403 129.858C68.1881 129.62 68.112 129.342 68.112 129.024C68.112 128.746 68.1617 128.501 68.2609 128.29C68.3602 128.078 68.5057 127.903 68.6976 127.764C68.8961 127.625 69.1409 127.519 69.432 127.446C69.7298 127.373 70.0705 127.337 70.4543 127.337H71.9033L71.8139 128.151H70.3252C70.1267 128.151 69.9481 128.171 69.7893 128.21C69.6371 128.243 69.5048 128.3 69.3923 128.379C69.2865 128.452 69.2071 128.541 69.1541 128.647C69.1012 128.746 69.0747 128.865 69.0747 129.004C69.0747 129.15 69.1111 129.279 69.1839 129.391C69.2567 129.497 69.3559 129.58 69.4816 129.639C69.6074 129.699 69.7529 129.729 69.9183 129.729C70.1565 129.729 70.3815 129.689 70.5932 129.61C70.8115 129.524 71.0034 129.408 71.1688 129.262C71.3409 129.117 71.4732 128.955 71.5658 128.776L71.804 129.441C71.6651 129.673 71.493 129.874 71.2879 130.046C71.0828 130.218 70.8612 130.354 70.623 130.453C70.3848 130.553 70.1367 130.602 69.8786 130.602ZM76.391 130.602C76.166 130.602 75.9411 130.566 75.7161 130.493C75.4978 130.42 75.296 130.324 75.1107 130.205C74.9321 130.079 74.7799 129.944 74.6542 129.798C74.5351 129.646 74.4557 129.494 74.416 129.342L74.674 129.203V130.473H73.6518V123.159H74.674V126.483L74.5152 126.394C74.5483 126.242 74.6211 126.096 74.7336 125.957C74.8461 125.812 74.9883 125.683 75.1603 125.57C75.339 125.451 75.5309 125.359 75.736 125.292C75.9411 125.22 76.1495 125.183 76.3612 125.183C76.831 125.183 77.2478 125.299 77.6117 125.531C77.9756 125.762 78.2634 126.083 78.4752 126.493C78.6869 126.897 78.7928 127.36 78.7928 127.883C78.7928 128.406 78.6869 128.872 78.4752 129.282C78.2701 129.692 77.9855 130.017 77.6216 130.255C77.2577 130.486 76.8475 130.602 76.391 130.602ZM76.2223 129.669C76.5266 129.669 76.7979 129.593 77.0361 129.441C77.2743 129.282 77.4629 129.07 77.6018 128.806C77.7407 128.535 77.8102 128.227 77.8102 127.883C77.8102 127.545 77.7407 127.244 77.6018 126.98C77.4695 126.708 77.2842 126.497 77.046 126.345C76.8078 126.192 76.5332 126.116 76.2223 126.116C75.9113 126.116 75.6367 126.192 75.3985 126.345C75.1603 126.497 74.9718 126.708 74.8328 126.98C74.6939 127.244 74.6244 127.545 74.6244 127.883C74.6244 128.227 74.6939 128.535 74.8328 128.806C74.9718 129.07 75.1603 129.282 75.3985 129.441C75.6367 129.593 75.9113 129.669 76.2223 129.669ZM85.7614 130.602C85.2784 130.602 84.8351 130.516 84.4315 130.344C84.0279 130.172 83.6772 129.927 83.3795 129.61C83.0818 129.286 82.8502 128.905 82.6848 128.468C82.526 128.032 82.4466 127.552 82.4466 127.029C82.4466 126.533 82.5326 126.073 82.7046 125.65C82.8833 125.22 83.1281 124.843 83.439 124.518C83.75 124.194 84.1106 123.943 84.5208 123.764C84.931 123.585 85.3743 123.496 85.8507 123.496C86.1882 123.496 86.5157 123.549 86.8333 123.655C87.1575 123.754 87.4486 123.896 87.7066 124.082C87.9713 124.26 88.1863 124.465 88.3517 124.697L87.6372 125.441C87.3527 125.15 87.0615 124.932 86.7638 124.786C86.4661 124.641 86.1617 124.568 85.8507 124.568C85.5265 124.568 85.2222 124.631 84.9377 124.757C84.6598 124.876 84.415 125.044 84.2032 125.263C83.9981 125.481 83.836 125.742 83.7169 126.047C83.5978 126.345 83.5383 126.672 83.5383 127.029C83.5383 127.406 83.5945 127.75 83.707 128.061C83.8261 128.366 83.9915 128.627 84.2032 128.846C84.415 129.064 84.6664 129.233 84.9575 129.352C85.2553 129.464 85.5828 129.52 85.9401 129.52C86.1584 129.52 86.3734 129.491 86.5852 129.431C86.7969 129.372 86.9954 129.286 87.1806 129.173C87.3659 129.061 87.5346 128.928 87.6868 128.776L88.2227 129.649C88.0705 129.828 87.8621 129.99 87.5975 130.136C87.3394 130.281 87.0483 130.397 86.7241 130.483C86.4065 130.562 86.0856 130.602 85.7614 130.602ZM91.763 130.602C91.2535 130.602 90.797 130.486 90.3934 130.255C89.9964 130.017 89.6821 129.696 89.4505 129.292C89.2189 128.882 89.1031 128.415 89.1031 127.893C89.1031 127.37 89.2189 126.907 89.4505 126.503C89.6821 126.093 89.9964 125.772 90.3934 125.541C90.797 125.302 91.2535 125.183 91.763 125.183C92.2658 125.183 92.7157 125.302 93.1127 125.541C93.5163 125.772 93.8339 126.093 94.0655 126.503C94.297 126.907 94.4128 127.37 94.4128 127.893C94.4128 128.415 94.297 128.882 94.0655 129.292C93.8339 129.696 93.5163 130.017 93.1127 130.255C92.7157 130.486 92.2658 130.602 91.763 130.602ZM91.763 129.669C92.0739 129.669 92.3518 129.593 92.5966 129.441C92.8414 129.282 93.0333 129.07 93.1723 128.806C93.3112 128.535 93.3774 128.23 93.3707 127.893C93.3774 127.549 93.3112 127.244 93.1723 126.98C93.0333 126.708 92.8414 126.497 92.5966 126.345C92.3518 126.192 92.0739 126.116 91.763 126.116C91.452 126.116 91.1708 126.196 90.9194 126.354C90.6746 126.507 90.4827 126.718 90.3437 126.99C90.2048 127.254 90.1386 127.555 90.1452 127.893C90.1386 128.23 90.2048 128.535 90.3437 128.806C90.4827 129.07 90.6746 129.282 90.9194 129.441C91.1708 129.593 91.452 129.669 91.763 129.669ZM95.9436 130.612C95.7252 130.612 95.5565 130.549 95.4374 130.424C95.3183 130.291 95.2588 130.106 95.2588 129.868C95.2588 129.649 95.3216 129.471 95.4473 129.332C95.573 129.193 95.7384 129.123 95.9436 129.123C96.1619 129.123 96.3306 129.19 96.4497 129.322C96.5688 129.448 96.6284 129.63 96.6284 129.868C96.6284 130.086 96.5655 130.265 96.4398 130.404C96.3141 130.543 96.1487 130.612 95.9436 130.612ZM100.825 130.503V123.556H101.896V130.503H100.825ZM101.301 127.545V126.513H104.884V127.545H101.301ZM101.301 124.588V123.556H105.33V124.588H101.301ZM106.706 130.503V125.292H107.728V130.503H106.706ZM107.202 124.141C106.983 124.141 106.815 124.085 106.696 123.973C106.577 123.86 106.517 123.701 106.517 123.496C106.517 123.304 106.577 123.149 106.696 123.03C106.821 122.911 106.99 122.851 107.202 122.851C107.42 122.851 107.589 122.907 107.708 123.02C107.827 123.132 107.887 123.291 107.887 123.496C107.887 123.688 107.824 123.843 107.698 123.963C107.579 124.082 107.414 124.141 107.202 124.141ZM109.299 130.503V125.292H110.321V126.364L110.143 126.483C110.209 126.252 110.338 126.04 110.53 125.848C110.722 125.65 110.95 125.491 111.215 125.372C111.479 125.246 111.751 125.183 112.028 125.183C112.425 125.183 112.756 125.263 113.021 125.422C113.286 125.574 113.484 125.809 113.616 126.126C113.749 126.444 113.815 126.844 113.815 127.327V130.503H112.793V127.397C112.793 127.099 112.753 126.854 112.673 126.662C112.594 126.464 112.472 126.321 112.306 126.235C112.141 126.143 111.936 126.103 111.691 126.116C111.492 126.116 111.311 126.149 111.145 126.215C110.98 126.275 110.834 126.361 110.708 126.474C110.589 126.586 110.493 126.718 110.421 126.871C110.354 127.016 110.321 127.175 110.321 127.347V130.503H109.815C109.729 130.503 109.643 130.503 109.557 130.503C109.471 130.503 109.385 130.503 109.299 130.503ZM118.288 130.503V127.109C118.288 126.818 118.182 126.583 117.971 126.404C117.765 126.219 117.504 126.126 117.186 126.126C116.895 126.126 116.631 126.186 116.393 126.305C116.161 126.424 115.949 126.606 115.757 126.851L115.092 126.186C115.403 125.848 115.737 125.597 116.095 125.431C116.459 125.266 116.849 125.183 117.266 125.183C117.663 125.183 118.007 125.249 118.298 125.382C118.589 125.514 118.814 125.709 118.973 125.967C119.132 126.219 119.211 126.526 119.211 126.89V130.503H118.288ZM116.73 130.602C116.393 130.602 116.091 130.536 115.827 130.404C115.562 130.271 115.35 130.089 115.192 129.858C115.039 129.62 114.963 129.342 114.963 129.024C114.963 128.746 115.013 128.501 115.112 128.29C115.211 128.078 115.357 127.903 115.549 127.764C115.747 127.625 115.992 127.519 116.283 127.446C116.581 127.373 116.922 127.337 117.306 127.337H118.755L118.665 128.151H117.177C116.978 128.151 116.799 128.171 116.641 128.21C116.488 128.243 116.356 128.3 116.244 128.379C116.138 128.452 116.058 128.541 116.005 128.647C115.953 128.746 115.926 128.865 115.926 129.004C115.926 129.15 115.962 129.279 116.035 129.391C116.108 129.497 116.207 129.58 116.333 129.639C116.459 129.699 116.604 129.729 116.77 129.729C117.008 129.729 117.233 129.689 117.445 129.61C117.663 129.524 117.855 129.408 118.02 129.262C118.192 129.117 118.325 128.955 118.417 128.776L118.655 129.441C118.516 129.673 118.344 129.874 118.139 130.046C117.934 130.218 117.713 130.354 117.474 130.453C117.236 130.553 116.988 130.602 116.73 130.602ZM120.503 130.503V125.292H121.525V126.364L121.347 126.483C121.413 126.252 121.542 126.04 121.734 125.848C121.926 125.65 122.154 125.491 122.419 125.372C122.683 125.246 122.955 125.183 123.232 125.183C123.629 125.183 123.96 125.263 124.225 125.422C124.49 125.574 124.688 125.809 124.82 126.126C124.953 126.444 125.019 126.844 125.019 127.327V130.503H123.997V127.397C123.997 127.099 123.957 126.854 123.878 126.662C123.798 126.464 123.676 126.321 123.51 126.235C123.345 126.143 123.14 126.103 122.895 126.116C122.696 126.116 122.515 126.149 122.349 126.215C122.184 126.275 122.038 126.361 121.912 126.474C121.793 126.586 121.697 126.718 121.625 126.871C121.558 127.016 121.525 127.175 121.525 127.347V130.503H121.019C120.933 130.503 120.847 130.503 120.761 130.503C120.675 130.503 120.589 130.503 120.503 130.503ZM128.619 130.602C128.136 130.602 127.702 130.483 127.319 130.245C126.942 130.007 126.64 129.682 126.415 129.272C126.197 128.862 126.088 128.402 126.088 127.893C126.088 127.383 126.197 126.923 126.415 126.513C126.64 126.103 126.942 125.779 127.319 125.541C127.702 125.302 128.136 125.183 128.619 125.183C129.082 125.183 129.502 125.279 129.879 125.471C130.263 125.656 130.554 125.911 130.753 126.235L130.187 126.93C130.081 126.778 129.945 126.639 129.78 126.513C129.615 126.388 129.439 126.288 129.254 126.215C129.069 126.143 128.89 126.106 128.718 126.106C128.4 126.106 128.116 126.186 127.864 126.345C127.62 126.497 127.425 126.708 127.279 126.98C127.133 127.251 127.061 127.555 127.061 127.893C127.061 128.23 127.137 128.535 127.289 128.806C127.441 129.07 127.643 129.282 127.894 129.441C128.146 129.6 128.424 129.679 128.728 129.679C128.907 129.679 129.079 129.649 129.244 129.59C129.416 129.53 129.581 129.441 129.74 129.322C129.899 129.203 130.048 129.057 130.187 128.885L130.753 129.58C130.541 129.878 130.236 130.122 129.839 130.314C129.449 130.506 129.042 130.602 128.619 130.602ZM131.886 130.503V125.292H132.908V130.503H131.886ZM132.382 124.141C132.163 124.141 131.995 124.085 131.876 123.973C131.757 123.86 131.697 123.701 131.697 123.496C131.697 123.304 131.757 123.149 131.876 123.03C132.001 122.911 132.17 122.851 132.382 122.851C132.6 122.851 132.769 122.907 132.888 123.02C133.007 123.132 133.067 123.291 133.067 123.496C133.067 123.688 133.004 123.843 132.878 123.963C132.759 124.082 132.593 124.141 132.382 124.141ZM137.566 130.503V127.109C137.566 126.818 137.46 126.583 137.248 126.404C137.043 126.219 136.782 126.126 136.464 126.126C136.173 126.126 135.908 126.186 135.67 126.305C135.438 126.424 135.227 126.606 135.035 126.851L134.37 126.186C134.681 125.848 135.015 125.597 135.372 125.431C135.736 125.266 136.127 125.183 136.543 125.183C136.94 125.183 137.284 125.249 137.576 125.382C137.867 125.514 138.092 125.709 138.25 125.967C138.409 126.219 138.489 126.526 138.489 126.89V130.503H137.566ZM136.007 130.602C135.67 130.602 135.369 130.536 135.104 130.404C134.84 130.271 134.628 130.089 134.469 129.858C134.317 129.62 134.241 129.342 134.241 129.024C134.241 128.746 134.29 128.501 134.39 128.29C134.489 128.078 134.635 127.903 134.826 127.764C135.025 127.625 135.27 127.519 135.561 127.446C135.859 127.373 136.199 127.337 136.583 127.337H138.032L137.943 128.151H136.454C136.256 128.151 136.077 128.171 135.918 128.21C135.766 128.243 135.634 128.3 135.521 128.379C135.415 128.452 135.336 128.541 135.283 128.647C135.23 128.746 135.204 128.865 135.204 129.004C135.204 129.15 135.24 129.279 135.313 129.391C135.385 129.497 135.485 129.58 135.61 129.639C135.736 129.699 135.882 129.729 136.047 129.729C136.285 129.729 136.51 129.689 136.722 129.61C136.94 129.524 137.132 129.408 137.298 129.262C137.47 129.117 137.602 128.955 137.695 128.776L137.933 129.441C137.794 129.673 137.622 129.874 137.417 130.046C137.212 130.218 136.99 130.354 136.752 130.453C136.514 130.553 136.265 130.602 136.007 130.602ZM139.8 130.503V123.159H140.823V130.503H139.8ZM23.4743 142.503V136.588H21.5291V135.556H26.5509V136.588H24.5462V142.503H23.4743ZM29.0575 142.602C28.5216 142.602 28.0452 142.49 27.6284 142.265C27.2182 142.033 26.894 141.719 26.6558 141.322C26.4242 140.925 26.3084 140.468 26.3084 139.952C26.3084 139.542 26.3746 139.168 26.5069 138.831C26.6392 138.493 26.8212 138.202 27.0528 137.957C27.2909 137.706 27.5721 137.514 27.8963 137.382C28.2272 137.243 28.5845 137.173 28.9682 137.173C29.3056 137.173 29.6199 137.24 29.9111 137.372C30.2022 137.498 30.4536 137.673 30.6653 137.898C30.8837 138.123 31.0491 138.391 31.1616 138.702C31.2807 139.006 31.3369 139.34 31.3303 139.704L31.3204 140.141H27.0627L26.8344 139.327H30.4371L30.2882 139.496V139.258C30.2683 139.039 30.1956 138.844 30.0698 138.672C29.9441 138.5 29.7853 138.364 29.5935 138.265C29.4016 138.166 29.1932 138.116 28.9682 138.116C28.6109 138.116 28.3099 138.186 28.0651 138.325C27.8203 138.457 27.635 138.655 27.5093 138.92C27.3836 139.178 27.3207 139.499 27.3207 139.883C27.3207 140.247 27.3968 140.564 27.549 140.836C27.7012 141.1 27.9162 141.305 28.1941 141.451C28.472 141.596 28.7929 141.669 29.1568 141.669C29.4148 141.669 29.653 141.626 29.8714 141.54C30.0963 141.454 30.3378 141.299 30.5959 141.074L31.1119 141.798C30.9531 141.957 30.758 142.096 30.5264 142.215C30.3014 142.334 30.0599 142.43 29.8019 142.503C29.5505 142.569 29.3023 142.602 29.0575 142.602ZM34.6544 142.602C34.1714 142.602 33.738 142.483 33.3543 142.245C32.9771 142.007 32.6761 141.682 32.4511 141.272C32.2328 140.862 32.1236 140.402 32.1236 139.893C32.1236 139.383 32.2328 138.923 32.4511 138.513C32.6761 138.103 32.9771 137.779 33.3543 137.541C33.738 137.302 34.1714 137.183 34.6544 137.183C35.1176 137.183 35.5377 137.279 35.9148 137.471C36.2986 137.656 36.5897 137.911 36.7882 138.235L36.2225 138.93C36.1166 138.778 35.981 138.639 35.8156 138.513C35.6502 138.388 35.4749 138.288 35.2896 138.215C35.1043 138.143 34.9257 138.106 34.7537 138.106C34.4361 138.106 34.1516 138.186 33.9001 138.345C33.6553 138.497 33.4601 138.708 33.3146 138.98C33.169 139.251 33.0962 139.555 33.0962 139.893C33.0962 140.23 33.1723 140.535 33.3245 140.806C33.4767 141.07 33.6785 141.282 33.9299 141.441C34.1813 141.6 34.4592 141.679 34.7636 141.679C34.9422 141.679 35.1143 141.649 35.2797 141.59C35.4517 141.53 35.6171 141.441 35.7759 141.322C35.9347 141.203 36.0836 141.057 36.2225 140.885L36.7882 141.58C36.5765 141.878 36.2721 142.122 35.8751 142.314C35.4848 142.506 35.0779 142.602 34.6544 142.602ZM37.7525 142.503V135.159H38.7747V138.364L38.5961 138.483C38.6622 138.252 38.7912 138.04 38.9831 137.848C39.175 137.65 39.4033 137.491 39.6679 137.372C39.9326 137.246 40.2038 137.183 40.4817 137.183C40.8787 137.183 41.2095 137.263 41.4742 137.422C41.7389 137.574 41.9374 137.809 42.0697 138.126C42.202 138.444 42.2682 138.844 42.2682 139.327V142.503H41.2459V139.397C41.2459 139.099 41.2062 138.854 41.1268 138.662C41.0474 138.464 40.925 138.321 40.7596 138.235C40.5942 138.143 40.3891 138.103 40.1443 138.116C39.9458 138.116 39.7639 138.149 39.5984 138.215C39.433 138.275 39.2875 138.361 39.1618 138.474C39.0427 138.586 38.9467 138.718 38.8739 138.871C38.8078 139.016 38.7747 139.175 38.7747 139.347V142.503H38.2685C38.1825 142.503 38.0965 142.503 38.0105 142.503C37.9245 142.503 37.8385 142.503 37.7525 142.503ZM43.6549 142.503V137.292H44.6771V138.364L44.4985 138.483C44.5647 138.252 44.6937 138.04 44.8856 137.848C45.0774 137.65 45.3057 137.491 45.5704 137.372C45.835 137.246 46.1063 137.183 46.3842 137.183C46.7812 137.183 47.112 137.263 47.3767 137.422C47.6413 137.574 47.8398 137.809 47.9721 138.126C48.1045 138.444 48.1706 138.844 48.1706 139.327V142.503H47.1484V139.397C47.1484 139.099 47.1087 138.854 47.0293 138.662C46.9499 138.464 46.8275 138.321 46.6621 138.235C46.4967 138.143 46.2916 138.103 46.0468 138.116C45.8483 138.116 45.6663 138.149 45.5009 138.215C45.3355 138.275 45.1899 138.361 45.0642 138.474C44.9451 138.586 44.8492 138.718 44.7764 138.871C44.7102 139.016 44.6771 139.175 44.6771 139.347V142.503H44.171C44.085 142.503 43.999 142.503 43.913 142.503C43.8269 142.503 43.7409 142.503 43.6549 142.503ZM51.8996 142.602C51.3901 142.602 50.9336 142.486 50.53 142.255C50.133 142.017 49.8187 141.696 49.5871 141.292C49.3556 140.882 49.2398 140.415 49.2398 139.893C49.2398 139.37 49.3556 138.907 49.5871 138.503C49.8187 138.093 50.133 137.772 50.53 137.541C50.9336 137.302 51.3901 137.183 51.8996 137.183C52.4024 137.183 52.8523 137.302 53.2493 137.541C53.6529 137.772 53.9705 138.093 54.2021 138.503C54.4337 138.907 54.5495 139.37 54.5495 139.893C54.5495 140.415 54.4337 140.882 54.2021 141.292C53.9705 141.696 53.6529 142.017 53.2493 142.255C52.8523 142.486 52.4024 142.602 51.8996 142.602ZM51.8996 141.669C52.2106 141.669 52.4884 141.593 52.7333 141.441C52.9781 141.282 53.1699 141.07 53.3089 140.806C53.4478 140.535 53.514 140.23 53.5074 139.893C53.514 139.549 53.4478 139.244 53.3089 138.98C53.1699 138.708 52.9781 138.497 52.7333 138.345C52.4884 138.192 52.2106 138.116 51.8996 138.116C51.5886 138.116 51.3074 138.196 51.056 138.354C50.8112 138.507 50.6193 138.718 50.4804 138.99C50.3414 139.254 50.2752 139.555 50.2819 139.893C50.2752 140.23 50.3414 140.535 50.4804 140.806C50.6193 141.07 50.8112 141.282 51.056 141.441C51.3074 141.593 51.5886 141.669 51.8996 141.669ZM55.6832 142.503V135.159H56.7054V142.503H55.6832ZM60.3995 142.602C59.89 142.602 59.4335 142.486 59.0299 142.255C58.6329 142.017 58.3186 141.696 58.0871 141.292C57.8555 140.882 57.7397 140.415 57.7397 139.893C57.7397 139.37 57.8555 138.907 58.0871 138.503C58.3186 138.093 58.6329 137.772 59.0299 137.541C59.4335 137.302 59.89 137.183 60.3995 137.183C60.9024 137.183 61.3523 137.302 61.7493 137.541C62.1529 137.772 62.4704 138.093 62.702 138.503C62.9336 138.907 63.0494 139.37 63.0494 139.893C63.0494 140.415 62.9336 140.882 62.702 141.292C62.4704 141.696 62.1529 142.017 61.7493 142.255C61.3523 142.486 60.9024 142.602 60.3995 142.602ZM60.3995 141.669C60.7105 141.669 60.9884 141.593 61.2332 141.441C61.478 141.282 61.6699 141.07 61.8088 140.806C61.9478 140.535 62.0139 140.23 62.0073 139.893C62.0139 139.549 61.9478 139.244 61.8088 138.98C61.6699 138.708 61.478 138.497 61.2332 138.345C60.9884 138.192 60.7105 138.116 60.3995 138.116C60.0885 138.116 59.8073 138.196 59.5559 138.354C59.3111 138.507 59.1192 138.718 58.9803 138.99C58.8413 139.254 58.7752 139.555 58.7818 139.893C58.7752 140.23 58.8413 140.535 58.9803 140.806C59.1192 141.07 59.3111 141.282 59.5559 141.441C59.8073 141.593 60.0885 141.669 60.3995 141.669ZM66.4956 144.786C66.125 144.786 65.7545 144.726 65.384 144.607C65.0201 144.494 64.7257 144.346 64.5007 144.16L64.8778 143.366C65.0763 143.519 65.3211 143.641 65.6123 143.734C65.91 143.826 66.2044 143.873 66.4956 143.873C66.8595 143.873 67.1638 143.813 67.4086 143.694C67.6534 143.575 67.8387 143.399 67.9644 143.168C68.0901 142.936 68.153 142.648 68.153 142.304V141.302L68.2622 141.372C68.2291 141.577 68.1199 141.775 67.9346 141.967C67.756 142.152 67.531 142.304 67.2598 142.424C66.9885 142.543 66.7106 142.602 66.4261 142.602C65.9299 142.602 65.4866 142.486 65.0962 142.255C64.7124 142.017 64.4081 141.696 64.1831 141.292C63.9582 140.882 63.8457 140.415 63.8457 139.893C63.8457 139.37 63.9549 138.907 64.1732 138.503C64.3982 138.093 64.7025 137.772 65.0863 137.541C65.4766 137.302 65.9133 137.183 66.3963 137.183C66.5948 137.183 66.7867 137.21 66.9719 137.263C67.1572 137.309 67.3292 137.379 67.488 137.471C67.6468 137.557 67.7891 137.653 67.9148 137.759C68.0405 137.865 68.1431 137.977 68.2225 138.096C68.3019 138.215 68.3515 138.328 68.3713 138.434L68.153 138.513V137.292H69.1752V142.185C69.1752 142.602 69.1124 142.969 68.9867 143.287C68.8676 143.611 68.6922 143.882 68.4606 144.101C68.2291 144.326 67.9479 144.494 67.6171 144.607C67.2862 144.726 66.9124 144.786 66.4956 144.786ZM66.5353 141.659C66.8595 141.659 67.1473 141.583 67.3987 141.431C67.6501 141.279 67.8453 141.07 67.9843 140.806C68.1232 140.541 68.1927 140.237 68.1927 139.893C68.1927 139.549 68.1199 139.244 67.9743 138.98C67.8354 138.708 67.6402 138.497 67.3888 138.345C67.144 138.192 66.8595 138.116 66.5353 138.116C66.2177 138.116 65.9332 138.196 65.6817 138.354C65.4369 138.507 65.2418 138.718 65.0962 138.99C64.9572 139.254 64.8878 139.555 64.8878 139.893C64.8878 140.23 64.9572 140.535 65.0962 140.806C65.2418 141.07 65.4369 141.279 65.6817 141.431C65.9332 141.583 66.2177 141.659 66.5353 141.659ZM71.4819 144.786L72.5339 142.354L72.5438 143.168L69.9435 137.292H71.1345L72.7621 141.123C72.7952 141.19 72.8349 141.292 72.8812 141.431C72.9275 141.563 72.9672 141.696 73.0003 141.828L72.7423 141.888C72.7952 141.749 72.8448 141.61 72.8912 141.471C72.9441 141.332 72.9937 141.193 73.04 141.054L74.3997 137.292H75.6105L73.4668 142.503L72.5835 144.786H71.4819ZM82.2335 142.602C81.7505 142.602 81.3072 142.516 80.9036 142.344C80.5 142.172 80.1493 141.927 79.8516 141.61C79.5539 141.286 79.3223 140.905 79.1569 140.468C78.9981 140.032 78.9187 139.552 78.9187 139.029C78.9187 138.533 79.0047 138.073 79.1767 137.65C79.3554 137.22 79.6002 136.843 79.9111 136.518C80.2221 136.194 80.5827 135.943 80.9929 135.764C81.4031 135.585 81.8464 135.496 82.3228 135.496C82.6603 135.496 82.9878 135.549 83.3054 135.655C83.6296 135.754 83.9207 135.896 84.1787 136.082C84.4434 136.26 84.6584 136.465 84.8238 136.697L84.1093 137.441C83.8248 137.15 83.5336 136.932 83.2359 136.786C82.9382 136.641 82.6338 136.568 82.3228 136.568C81.9986 136.568 81.6943 136.631 81.4098 136.757C81.1319 136.876 80.8871 137.044 80.6753 137.263C80.4702 137.481 80.3081 137.742 80.189 138.047C80.0699 138.345 80.0104 138.672 80.0104 139.029C80.0104 139.406 80.0666 139.75 80.1791 140.061C80.2982 140.366 80.4636 140.627 80.6753 140.846C80.8871 141.064 81.1385 141.233 81.4296 141.352C81.7274 141.464 82.0549 141.52 82.4122 141.52C82.6305 141.52 82.8455 141.491 83.0573 141.431C83.269 141.372 83.4675 141.286 83.6527 141.173C83.838 141.061 84.0067 140.928 84.1589 140.776L84.6948 141.649C84.5426 141.828 84.3342 141.99 84.0696 142.136C83.8115 142.281 83.5204 142.397 83.1962 142.483C82.8786 142.562 82.5577 142.602 82.2335 142.602ZM88.235 142.602C87.7256 142.602 87.269 142.486 86.8654 142.255C86.4685 142.017 86.1542 141.696 85.9226 141.292C85.691 140.882 85.5752 140.415 85.5752 139.893C85.5752 139.37 85.691 138.907 85.9226 138.503C86.1542 138.093 86.4685 137.772 86.8654 137.541C87.269 137.302 87.7256 137.183 88.235 137.183C88.7379 137.183 89.1878 137.302 89.5848 137.541C89.9884 137.772 90.306 138.093 90.5376 138.503C90.7691 138.907 90.8849 139.37 90.8849 139.893C90.8849 140.415 90.7691 140.882 90.5376 141.292C90.306 141.696 89.9884 142.017 89.5848 142.255C89.1878 142.486 88.7379 142.602 88.235 142.602ZM88.235 141.669C88.546 141.669 88.8239 141.593 89.0687 141.441C89.3135 141.282 89.5054 141.07 89.6443 140.806C89.7833 140.535 89.8495 140.23 89.8428 139.893C89.8495 139.549 89.7833 139.244 89.6443 138.98C89.5054 138.708 89.3135 138.497 89.0687 138.345C88.8239 138.192 88.546 138.116 88.235 138.116C87.9241 138.116 87.6429 138.196 87.3915 138.354C87.1466 138.507 86.9548 138.718 86.8158 138.99C86.6769 139.254 86.6107 139.555 86.6173 139.893C86.6107 140.23 86.6769 140.535 86.8158 140.806C86.9548 141.07 87.1466 141.282 87.3915 141.441C87.6429 141.593 87.9241 141.669 88.235 141.669ZM91.979 142.503V137.292H93.0111V138.404L92.8226 138.523C92.8755 138.351 92.9582 138.186 93.0707 138.027C93.1898 137.868 93.332 137.729 93.4974 137.61C93.6695 137.484 93.8514 137.385 94.0433 137.312C94.2418 137.24 94.4436 137.203 94.6487 137.203C94.9464 137.203 95.2078 137.253 95.4327 137.352C95.6577 137.451 95.843 137.6 95.9885 137.799C96.1341 137.997 96.24 138.245 96.3061 138.543L96.1473 138.503L96.2168 138.335C96.2896 138.182 96.3888 138.04 96.5145 137.908C96.6469 137.769 96.7957 137.646 96.9611 137.541C97.1266 137.435 97.3019 137.352 97.4871 137.292C97.6724 137.233 97.8544 137.203 98.033 137.203C98.4234 137.203 98.7443 137.283 98.9957 137.441C99.2537 137.6 99.4456 137.842 99.5713 138.166C99.7037 138.49 99.7698 138.894 99.7698 139.377V142.503H98.7377V139.436C98.7377 138.993 98.6516 138.669 98.4796 138.464C98.3142 138.252 98.0529 138.146 97.6956 138.146C97.5103 138.146 97.335 138.179 97.1696 138.245C97.0108 138.305 96.8718 138.391 96.7527 138.503C96.6336 138.616 96.541 138.748 96.4748 138.9C96.4087 139.046 96.3756 139.208 96.3756 139.387V142.503H95.3434V139.416C95.3434 139.006 95.2541 138.692 95.0755 138.474C94.9034 138.255 94.652 138.146 94.3212 138.146C94.1359 138.146 93.9639 138.179 93.8051 138.245C93.6463 138.305 93.5074 138.391 93.3883 138.503C93.2692 138.609 93.1765 138.738 93.1104 138.89C93.0442 139.036 93.0111 139.195 93.0111 139.367V142.503H91.979ZM101.138 144.686V137.292H102.171V138.483L102.012 138.394C102.051 138.196 102.164 138.007 102.349 137.828C102.534 137.643 102.759 137.494 103.024 137.382C103.295 137.263 103.573 137.203 103.858 137.203C104.328 137.203 104.744 137.319 105.108 137.551C105.472 137.782 105.76 138.1 105.972 138.503C106.183 138.907 106.289 139.37 106.289 139.893C106.289 140.409 106.183 140.872 105.972 141.282C105.767 141.686 105.482 142.007 105.118 142.245C104.754 142.476 104.344 142.592 103.888 142.592C103.583 142.592 103.289 142.533 103.004 142.414C102.72 142.288 102.478 142.129 102.28 141.937C102.081 141.745 101.959 141.547 101.913 141.342L102.171 141.203V144.686H101.138ZM103.719 141.649C104.023 141.649 104.294 141.573 104.533 141.421C104.771 141.269 104.959 141.061 105.098 140.796C105.237 140.531 105.307 140.23 105.307 139.893C105.307 139.555 105.237 139.258 105.098 139C104.966 138.735 104.781 138.526 104.543 138.374C104.304 138.222 104.03 138.146 103.719 138.146C103.408 138.146 103.133 138.222 102.895 138.374C102.657 138.52 102.468 138.725 102.329 138.99C102.19 139.254 102.121 139.555 102.121 139.893C102.121 140.23 102.19 140.531 102.329 140.796C102.468 141.061 102.657 141.269 102.895 141.421C103.133 141.573 103.408 141.649 103.719 141.649ZM110.486 142.503V139.109C110.486 138.818 110.38 138.583 110.168 138.404C109.963 138.219 109.702 138.126 109.384 138.126C109.093 138.126 108.829 138.186 108.59 138.305C108.359 138.424 108.147 138.606 107.955 138.851L107.29 138.186C107.601 137.848 107.935 137.597 108.293 137.431C108.657 137.266 109.047 137.183 109.464 137.183C109.861 137.183 110.205 137.249 110.496 137.382C110.787 137.514 111.012 137.709 111.171 137.967C111.33 138.219 111.409 138.526 111.409 138.89V142.503H110.486ZM108.928 142.602C108.59 142.602 108.289 142.536 108.025 142.404C107.76 142.271 107.548 142.089 107.39 141.858C107.237 141.62 107.161 141.342 107.161 141.024C107.161 140.746 107.211 140.501 107.31 140.29C107.409 140.078 107.555 139.903 107.747 139.764C107.945 139.625 108.19 139.519 108.481 139.446C108.779 139.373 109.12 139.337 109.504 139.337H110.953L110.863 140.151H109.374C109.176 140.151 108.997 140.171 108.839 140.21C108.686 140.243 108.554 140.3 108.442 140.379C108.336 140.452 108.256 140.541 108.203 140.647C108.15 140.746 108.124 140.865 108.124 141.004C108.124 141.15 108.16 141.279 108.233 141.391C108.306 141.497 108.405 141.58 108.531 141.639C108.657 141.699 108.802 141.729 108.968 141.729C109.206 141.729 109.431 141.689 109.642 141.61C109.861 141.524 110.053 141.408 110.218 141.262C110.39 141.117 110.522 140.955 110.615 140.776L110.853 141.441C110.714 141.673 110.542 141.874 110.337 142.046C110.132 142.218 109.91 142.354 109.672 142.453C109.434 142.553 109.186 142.602 108.928 142.602ZM112.701 142.503V137.292H113.723V138.364L113.545 138.483C113.611 138.252 113.74 138.04 113.932 137.848C114.124 137.65 114.352 137.491 114.616 137.372C114.881 137.246 115.152 137.183 115.43 137.183C115.827 137.183 116.158 137.263 116.423 137.422C116.687 137.574 116.886 137.809 117.018 138.126C117.151 138.444 117.217 138.844 117.217 139.327V142.503H116.195V139.397C116.195 139.099 116.155 138.854 116.075 138.662C115.996 138.464 115.874 138.321 115.708 138.235C115.543 138.143 115.338 138.103 115.093 138.116C114.894 138.116 114.712 138.149 114.547 138.215C114.382 138.275 114.236 138.361 114.11 138.474C113.991 138.586 113.895 138.718 113.823 138.871C113.756 139.016 113.723 139.175 113.723 139.347V142.503H113.217C113.131 142.503 113.045 142.503 112.959 142.503C112.873 142.503 112.787 142.503 112.701 142.503ZM119.428 144.786L120.48 142.354L120.49 143.168L117.89 137.292H119.081L120.709 141.123C120.742 141.19 120.781 141.292 120.828 141.431C120.874 141.563 120.914 141.696 120.947 141.828L120.689 141.888C120.742 141.749 120.791 141.61 120.838 141.471C120.891 141.332 120.94 141.193 120.987 141.054L122.346 137.292H123.557L121.413 142.503L120.53 144.786H119.428Z" fill="#707C87"/>
</svg>
